G04 #@! TF.GenerationSoftware,KiCad,Pcbnew,5.0.2-bee76a0~70~ubuntu16.04.1*
G04 #@! TF.CreationDate,2019-07-05T21:08:44-07:00*
G04 #@! TF.ProjectId,dc27-fur-badge,64633237-2d66-4757-922d-62616467652e,rev?*
G04 #@! TF.SameCoordinates,Original*
G04 #@! TF.FileFunction,Paste,Bot*
G04 #@! TF.FilePolarity,Positive*
%FSLAX46Y46*%
G04 Gerber Fmt 4.6, Leading zero omitted, Abs format (unit mm)*
G04 Created by KiCad (PCBNEW 5.0.2-bee76a0~70~ubuntu16.04.1) date Fri 05 Jul 2019 09:08:44 PM PDT*
%MOMM*%
%LPD*%
G01*
G04 APERTURE LIST*
%ADD10R,1.500000X0.450000*%
%ADD11R,1.500000X0.700000*%
%ADD12R,1.200000X2.500000*%
%ADD13C,0.100000*%
%ADD14C,0.875000*%
%ADD15C,0.250000*%
%ADD16R,0.900000X1.200000*%
%ADD17R,0.850000X0.650000*%
%ADD18R,0.650000X1.060000*%
%ADD19C,0.975000*%
%ADD20R,0.400000X0.900000*%
%ADD21C,1.000000*%
%ADD22R,0.325000X0.300000*%
%ADD23R,0.300000X0.325000*%
%ADD24R,1.800000X1.900000*%
%ADD25R,1.900000X1.900000*%
%ADD26R,2.100000X1.600000*%
%ADD27R,0.400000X1.600000*%
%ADD28R,1.700000X0.650000*%
%ADD29R,0.800000X0.900000*%
%ADD30R,1.000000X1.800000*%
%ADD31R,0.600000X0.700000*%
G04 APERTURE END LIST*
D10*
G04 #@! TO.C,IC2*
X141300000Y-56275000D03*
X141300000Y-55625000D03*
X141300000Y-54975000D03*
X141300000Y-54325000D03*
X141300000Y-53675000D03*
X141300000Y-53025000D03*
X141300000Y-52375000D03*
X141300000Y-51725000D03*
X147200000Y-51725000D03*
X147200000Y-52375000D03*
X147200000Y-53025000D03*
X147200000Y-53675000D03*
X147200000Y-54325000D03*
X147200000Y-54975000D03*
X147200000Y-55625000D03*
X147200000Y-56275000D03*
G04 #@! TD*
D11*
G04 #@! TO.C,IC11*
X119500000Y-54800000D03*
X119500000Y-55900000D03*
X119500000Y-57000000D03*
X119500000Y-58100000D03*
X119500000Y-59200000D03*
X119500000Y-60300000D03*
X119500000Y-61400000D03*
X119500000Y-62500000D03*
X133500000Y-54800000D03*
X133500000Y-55900000D03*
X133500000Y-57000000D03*
X133500000Y-58100000D03*
X133500000Y-59200000D03*
X133500000Y-60300000D03*
X133500000Y-61400000D03*
X133500000Y-62500000D03*
G04 #@! TD*
D12*
G04 #@! TO.C,SW3*
X197750000Y-94500000D03*
X200250000Y-94500000D03*
X202750000Y-94500000D03*
X197750000Y-100000000D03*
X200250000Y-100000000D03*
X202750000Y-100000000D03*
G04 #@! TD*
D13*
G04 #@! TO.C,R3*
G36*
X165741111Y-97889580D02*
X165762346Y-97892730D01*
X165783170Y-97897946D01*
X165803382Y-97905178D01*
X165822788Y-97914357D01*
X165841201Y-97925393D01*
X165858444Y-97938181D01*
X165874350Y-97952597D01*
X166183709Y-98261956D01*
X166198125Y-98277862D01*
X166210913Y-98295105D01*
X166221949Y-98313518D01*
X166231128Y-98332924D01*
X166238360Y-98353136D01*
X166243576Y-98373960D01*
X166246726Y-98395195D01*
X166247779Y-98416636D01*
X166246726Y-98438077D01*
X166243576Y-98459312D01*
X166238360Y-98480136D01*
X166231128Y-98500348D01*
X166221949Y-98519754D01*
X166210913Y-98538167D01*
X166198125Y-98555410D01*
X166183709Y-98571316D01*
X165821316Y-98933709D01*
X165805410Y-98948125D01*
X165788167Y-98960913D01*
X165769754Y-98971949D01*
X165750348Y-98981128D01*
X165730136Y-98988360D01*
X165709312Y-98993576D01*
X165688077Y-98996726D01*
X165666636Y-98997779D01*
X165645195Y-98996726D01*
X165623960Y-98993576D01*
X165603136Y-98988360D01*
X165582924Y-98981128D01*
X165563518Y-98971949D01*
X165545105Y-98960913D01*
X165527862Y-98948125D01*
X165511956Y-98933709D01*
X165202597Y-98624350D01*
X165188181Y-98608444D01*
X165175393Y-98591201D01*
X165164357Y-98572788D01*
X165155178Y-98553382D01*
X165147946Y-98533170D01*
X165142730Y-98512346D01*
X165139580Y-98491111D01*
X165138527Y-98469670D01*
X165139580Y-98448229D01*
X165142730Y-98426994D01*
X165147946Y-98406170D01*
X165155178Y-98385958D01*
X165164357Y-98366552D01*
X165175393Y-98348139D01*
X165188181Y-98330896D01*
X165202597Y-98314990D01*
X165564990Y-97952597D01*
X165580896Y-97938181D01*
X165598139Y-97925393D01*
X165616552Y-97914357D01*
X165635958Y-97905178D01*
X165656170Y-97897946D01*
X165676994Y-97892730D01*
X165698229Y-97889580D01*
X165719670Y-97888527D01*
X165741111Y-97889580D01*
X165741111Y-97889580D01*
G37*
D14*
X165693153Y-98443153D03*
D13*
G36*
X166854805Y-99003274D02*
X166876040Y-99006424D01*
X166896864Y-99011640D01*
X166917076Y-99018872D01*
X166936482Y-99028051D01*
X166954895Y-99039087D01*
X166972138Y-99051875D01*
X166988044Y-99066291D01*
X167297403Y-99375650D01*
X167311819Y-99391556D01*
X167324607Y-99408799D01*
X167335643Y-99427212D01*
X167344822Y-99446618D01*
X167352054Y-99466830D01*
X167357270Y-99487654D01*
X167360420Y-99508889D01*
X167361473Y-99530330D01*
X167360420Y-99551771D01*
X167357270Y-99573006D01*
X167352054Y-99593830D01*
X167344822Y-99614042D01*
X167335643Y-99633448D01*
X167324607Y-99651861D01*
X167311819Y-99669104D01*
X167297403Y-99685010D01*
X166935010Y-100047403D01*
X166919104Y-100061819D01*
X166901861Y-100074607D01*
X166883448Y-100085643D01*
X166864042Y-100094822D01*
X166843830Y-100102054D01*
X166823006Y-100107270D01*
X166801771Y-100110420D01*
X166780330Y-100111473D01*
X166758889Y-100110420D01*
X166737654Y-100107270D01*
X166716830Y-100102054D01*
X166696618Y-100094822D01*
X166677212Y-100085643D01*
X166658799Y-100074607D01*
X166641556Y-100061819D01*
X166625650Y-100047403D01*
X166316291Y-99738044D01*
X166301875Y-99722138D01*
X166289087Y-99704895D01*
X166278051Y-99686482D01*
X166268872Y-99667076D01*
X166261640Y-99646864D01*
X166256424Y-99626040D01*
X166253274Y-99604805D01*
X166252221Y-99583364D01*
X166253274Y-99561923D01*
X166256424Y-99540688D01*
X166261640Y-99519864D01*
X166268872Y-99499652D01*
X166278051Y-99480246D01*
X166289087Y-99461833D01*
X166301875Y-99444590D01*
X166316291Y-99428684D01*
X166678684Y-99066291D01*
X166694590Y-99051875D01*
X166711833Y-99039087D01*
X166730246Y-99028051D01*
X166749652Y-99018872D01*
X166769864Y-99011640D01*
X166790688Y-99006424D01*
X166811923Y-99003274D01*
X166833364Y-99002221D01*
X166854805Y-99003274D01*
X166854805Y-99003274D01*
G37*
D14*
X166806847Y-99556847D03*
G04 #@! TD*
D10*
G04 #@! TO.C,IC4*
X181800000Y-56275000D03*
X181800000Y-55625000D03*
X181800000Y-54975000D03*
X181800000Y-54325000D03*
X181800000Y-53675000D03*
X181800000Y-53025000D03*
X181800000Y-52375000D03*
X181800000Y-51725000D03*
X187700000Y-51725000D03*
X187700000Y-52375000D03*
X187700000Y-53025000D03*
X187700000Y-53675000D03*
X187700000Y-54325000D03*
X187700000Y-54975000D03*
X187700000Y-55625000D03*
X187700000Y-56275000D03*
G04 #@! TD*
D15*
G04 #@! TO.C,IC1*
X171182159Y-109878858D03*
D13*
G36*
X171624101Y-110144023D02*
X171447324Y-110320800D01*
X170740217Y-109613693D01*
X170916994Y-109436916D01*
X171624101Y-110144023D01*
X171624101Y-110144023D01*
G37*
D15*
X170828606Y-110232412D03*
D13*
G36*
X171270548Y-110497577D02*
X171093771Y-110674354D01*
X170386664Y-109967247D01*
X170563441Y-109790470D01*
X171270548Y-110497577D01*
X171270548Y-110497577D01*
G37*
D15*
X170475052Y-110585965D03*
D13*
G36*
X170916994Y-110851130D02*
X170740217Y-111027907D01*
X170033110Y-110320800D01*
X170209887Y-110144023D01*
X170916994Y-110851130D01*
X170916994Y-110851130D01*
G37*
D15*
X170121499Y-110939518D03*
D13*
G36*
X170563441Y-111204683D02*
X170386664Y-111381460D01*
X169679557Y-110674353D01*
X169856334Y-110497576D01*
X170563441Y-111204683D01*
X170563441Y-111204683D01*
G37*
D15*
X169767946Y-111293072D03*
D13*
G36*
X170209888Y-111558237D02*
X170033111Y-111735014D01*
X169326004Y-111027907D01*
X169502781Y-110851130D01*
X170209888Y-111558237D01*
X170209888Y-111558237D01*
G37*
D15*
X169414392Y-111646625D03*
D13*
G36*
X169856334Y-111911790D02*
X169679557Y-112088567D01*
X168972450Y-111381460D01*
X169149227Y-111204683D01*
X169856334Y-111911790D01*
X169856334Y-111911790D01*
G37*
D15*
X169060839Y-112000179D03*
D13*
G36*
X169502781Y-112265344D02*
X169326004Y-112442121D01*
X168618897Y-111735014D01*
X168795674Y-111558237D01*
X169502781Y-112265344D01*
X169502781Y-112265344D01*
G37*
D15*
X168707285Y-112353732D03*
D13*
G36*
X169149227Y-112618897D02*
X168972450Y-112795674D01*
X168265343Y-112088567D01*
X168442120Y-111911790D01*
X169149227Y-112618897D01*
X169149227Y-112618897D01*
G37*
D15*
X168353732Y-112707285D03*
D13*
G36*
X168795674Y-112972450D02*
X168618897Y-113149227D01*
X167911790Y-112442120D01*
X168088567Y-112265343D01*
X168795674Y-112972450D01*
X168795674Y-112972450D01*
G37*
D15*
X168000179Y-113060839D03*
D13*
G36*
X168442121Y-113326004D02*
X168265344Y-113502781D01*
X167558237Y-112795674D01*
X167735014Y-112618897D01*
X168442121Y-113326004D01*
X168442121Y-113326004D01*
G37*
D15*
X167646625Y-113414392D03*
D13*
G36*
X168088567Y-113679557D02*
X167911790Y-113856334D01*
X167204683Y-113149227D01*
X167381460Y-112972450D01*
X168088567Y-113679557D01*
X168088567Y-113679557D01*
G37*
D15*
X167293072Y-113767946D03*
D13*
G36*
X167735014Y-114033111D02*
X167558237Y-114209888D01*
X166851130Y-113502781D01*
X167027907Y-113326004D01*
X167735014Y-114033111D01*
X167735014Y-114033111D01*
G37*
D15*
X166939518Y-114121499D03*
D13*
G36*
X167381460Y-114386664D02*
X167204683Y-114563441D01*
X166497576Y-113856334D01*
X166674353Y-113679557D01*
X167381460Y-114386664D01*
X167381460Y-114386664D01*
G37*
D15*
X166585965Y-114475052D03*
D13*
G36*
X167027907Y-114740217D02*
X166851130Y-114916994D01*
X166144023Y-114209887D01*
X166320800Y-114033110D01*
X167027907Y-114740217D01*
X167027907Y-114740217D01*
G37*
D15*
X166232412Y-114828606D03*
D13*
G36*
X166674354Y-115093771D02*
X166497577Y-115270548D01*
X165790470Y-114563441D01*
X165967247Y-114386664D01*
X166674354Y-115093771D01*
X166674354Y-115093771D01*
G37*
D15*
X165878858Y-115182159D03*
D13*
G36*
X166320800Y-115447324D02*
X166144023Y-115624101D01*
X165436916Y-114916994D01*
X165613693Y-114740217D01*
X166320800Y-115447324D01*
X166320800Y-115447324D01*
G37*
D15*
X163121142Y-115182159D03*
D13*
G36*
X162855977Y-115624101D02*
X162679200Y-115447324D01*
X163386307Y-114740217D01*
X163563084Y-114916994D01*
X162855977Y-115624101D01*
X162855977Y-115624101D01*
G37*
D15*
X162767588Y-114828606D03*
D13*
G36*
X162502423Y-115270548D02*
X162325646Y-115093771D01*
X163032753Y-114386664D01*
X163209530Y-114563441D01*
X162502423Y-115270548D01*
X162502423Y-115270548D01*
G37*
D15*
X162414035Y-114475052D03*
D13*
G36*
X162148870Y-114916994D02*
X161972093Y-114740217D01*
X162679200Y-114033110D01*
X162855977Y-114209887D01*
X162148870Y-114916994D01*
X162148870Y-114916994D01*
G37*
D15*
X162060482Y-114121499D03*
D13*
G36*
X161795317Y-114563441D02*
X161618540Y-114386664D01*
X162325647Y-113679557D01*
X162502424Y-113856334D01*
X161795317Y-114563441D01*
X161795317Y-114563441D01*
G37*
D15*
X161706928Y-113767946D03*
D13*
G36*
X161441763Y-114209888D02*
X161264986Y-114033111D01*
X161972093Y-113326004D01*
X162148870Y-113502781D01*
X161441763Y-114209888D01*
X161441763Y-114209888D01*
G37*
D15*
X161353375Y-113414392D03*
D13*
G36*
X161088210Y-113856334D02*
X160911433Y-113679557D01*
X161618540Y-112972450D01*
X161795317Y-113149227D01*
X161088210Y-113856334D01*
X161088210Y-113856334D01*
G37*
D15*
X160999821Y-113060839D03*
D13*
G36*
X160734656Y-113502781D02*
X160557879Y-113326004D01*
X161264986Y-112618897D01*
X161441763Y-112795674D01*
X160734656Y-113502781D01*
X160734656Y-113502781D01*
G37*
D15*
X160646268Y-112707285D03*
D13*
G36*
X160381103Y-113149227D02*
X160204326Y-112972450D01*
X160911433Y-112265343D01*
X161088210Y-112442120D01*
X160381103Y-113149227D01*
X160381103Y-113149227D01*
G37*
D15*
X160292715Y-112353732D03*
D13*
G36*
X160027550Y-112795674D02*
X159850773Y-112618897D01*
X160557880Y-111911790D01*
X160734657Y-112088567D01*
X160027550Y-112795674D01*
X160027550Y-112795674D01*
G37*
D15*
X159939161Y-112000179D03*
D13*
G36*
X159673996Y-112442121D02*
X159497219Y-112265344D01*
X160204326Y-111558237D01*
X160381103Y-111735014D01*
X159673996Y-112442121D01*
X159673996Y-112442121D01*
G37*
D15*
X159585608Y-111646625D03*
D13*
G36*
X159320443Y-112088567D02*
X159143666Y-111911790D01*
X159850773Y-111204683D01*
X160027550Y-111381460D01*
X159320443Y-112088567D01*
X159320443Y-112088567D01*
G37*
D15*
X159232054Y-111293072D03*
D13*
G36*
X158966889Y-111735014D02*
X158790112Y-111558237D01*
X159497219Y-110851130D01*
X159673996Y-111027907D01*
X158966889Y-111735014D01*
X158966889Y-111735014D01*
G37*
D15*
X158878501Y-110939518D03*
D13*
G36*
X158613336Y-111381460D02*
X158436559Y-111204683D01*
X159143666Y-110497576D01*
X159320443Y-110674353D01*
X158613336Y-111381460D01*
X158613336Y-111381460D01*
G37*
D15*
X158524948Y-110585965D03*
D13*
G36*
X158259783Y-111027907D02*
X158083006Y-110851130D01*
X158790113Y-110144023D01*
X158966890Y-110320800D01*
X158259783Y-111027907D01*
X158259783Y-111027907D01*
G37*
D15*
X158171394Y-110232412D03*
D13*
G36*
X157906229Y-110674354D02*
X157729452Y-110497577D01*
X158436559Y-109790470D01*
X158613336Y-109967247D01*
X157906229Y-110674354D01*
X157906229Y-110674354D01*
G37*
D15*
X157817841Y-109878858D03*
D13*
G36*
X157552676Y-110320800D02*
X157375899Y-110144023D01*
X158083006Y-109436916D01*
X158259783Y-109613693D01*
X157552676Y-110320800D01*
X157552676Y-110320800D01*
G37*
D15*
X157817841Y-107121142D03*
D13*
G36*
X158259783Y-107386307D02*
X158083006Y-107563084D01*
X157375899Y-106855977D01*
X157552676Y-106679200D01*
X158259783Y-107386307D01*
X158259783Y-107386307D01*
G37*
D15*
X158171394Y-106767588D03*
D13*
G36*
X158613336Y-107032753D02*
X158436559Y-107209530D01*
X157729452Y-106502423D01*
X157906229Y-106325646D01*
X158613336Y-107032753D01*
X158613336Y-107032753D01*
G37*
D15*
X158524948Y-106414035D03*
D13*
G36*
X158966890Y-106679200D02*
X158790113Y-106855977D01*
X158083006Y-106148870D01*
X158259783Y-105972093D01*
X158966890Y-106679200D01*
X158966890Y-106679200D01*
G37*
D15*
X158878501Y-106060482D03*
D13*
G36*
X159320443Y-106325647D02*
X159143666Y-106502424D01*
X158436559Y-105795317D01*
X158613336Y-105618540D01*
X159320443Y-106325647D01*
X159320443Y-106325647D01*
G37*
D15*
X159232054Y-105706928D03*
D13*
G36*
X159673996Y-105972093D02*
X159497219Y-106148870D01*
X158790112Y-105441763D01*
X158966889Y-105264986D01*
X159673996Y-105972093D01*
X159673996Y-105972093D01*
G37*
D15*
X159585608Y-105353375D03*
D13*
G36*
X160027550Y-105618540D02*
X159850773Y-105795317D01*
X159143666Y-105088210D01*
X159320443Y-104911433D01*
X160027550Y-105618540D01*
X160027550Y-105618540D01*
G37*
D15*
X159939161Y-104999821D03*
D13*
G36*
X160381103Y-105264986D02*
X160204326Y-105441763D01*
X159497219Y-104734656D01*
X159673996Y-104557879D01*
X160381103Y-105264986D01*
X160381103Y-105264986D01*
G37*
D15*
X160292715Y-104646268D03*
D13*
G36*
X160734657Y-104911433D02*
X160557880Y-105088210D01*
X159850773Y-104381103D01*
X160027550Y-104204326D01*
X160734657Y-104911433D01*
X160734657Y-104911433D01*
G37*
D15*
X160646268Y-104292715D03*
D13*
G36*
X161088210Y-104557880D02*
X160911433Y-104734657D01*
X160204326Y-104027550D01*
X160381103Y-103850773D01*
X161088210Y-104557880D01*
X161088210Y-104557880D01*
G37*
D15*
X160999821Y-103939161D03*
D13*
G36*
X161441763Y-104204326D02*
X161264986Y-104381103D01*
X160557879Y-103673996D01*
X160734656Y-103497219D01*
X161441763Y-104204326D01*
X161441763Y-104204326D01*
G37*
D15*
X161353375Y-103585608D03*
D13*
G36*
X161795317Y-103850773D02*
X161618540Y-104027550D01*
X160911433Y-103320443D01*
X161088210Y-103143666D01*
X161795317Y-103850773D01*
X161795317Y-103850773D01*
G37*
D15*
X161706928Y-103232054D03*
D13*
G36*
X162148870Y-103497219D02*
X161972093Y-103673996D01*
X161264986Y-102966889D01*
X161441763Y-102790112D01*
X162148870Y-103497219D01*
X162148870Y-103497219D01*
G37*
D15*
X162060482Y-102878501D03*
D13*
G36*
X162502424Y-103143666D02*
X162325647Y-103320443D01*
X161618540Y-102613336D01*
X161795317Y-102436559D01*
X162502424Y-103143666D01*
X162502424Y-103143666D01*
G37*
D15*
X162414035Y-102524948D03*
D13*
G36*
X162855977Y-102790113D02*
X162679200Y-102966890D01*
X161972093Y-102259783D01*
X162148870Y-102083006D01*
X162855977Y-102790113D01*
X162855977Y-102790113D01*
G37*
D15*
X162767588Y-102171394D03*
D13*
G36*
X163209530Y-102436559D02*
X163032753Y-102613336D01*
X162325646Y-101906229D01*
X162502423Y-101729452D01*
X163209530Y-102436559D01*
X163209530Y-102436559D01*
G37*
D15*
X163121142Y-101817841D03*
D13*
G36*
X163563084Y-102083006D02*
X163386307Y-102259783D01*
X162679200Y-101552676D01*
X162855977Y-101375899D01*
X163563084Y-102083006D01*
X163563084Y-102083006D01*
G37*
D15*
X165878858Y-101817841D03*
D13*
G36*
X165613693Y-102259783D02*
X165436916Y-102083006D01*
X166144023Y-101375899D01*
X166320800Y-101552676D01*
X165613693Y-102259783D01*
X165613693Y-102259783D01*
G37*
D15*
X166232412Y-102171394D03*
D13*
G36*
X165967247Y-102613336D02*
X165790470Y-102436559D01*
X166497577Y-101729452D01*
X166674354Y-101906229D01*
X165967247Y-102613336D01*
X165967247Y-102613336D01*
G37*
D15*
X166585965Y-102524948D03*
D13*
G36*
X166320800Y-102966890D02*
X166144023Y-102790113D01*
X166851130Y-102083006D01*
X167027907Y-102259783D01*
X166320800Y-102966890D01*
X166320800Y-102966890D01*
G37*
D15*
X166939518Y-102878501D03*
D13*
G36*
X166674353Y-103320443D02*
X166497576Y-103143666D01*
X167204683Y-102436559D01*
X167381460Y-102613336D01*
X166674353Y-103320443D01*
X166674353Y-103320443D01*
G37*
D15*
X167293072Y-103232054D03*
D13*
G36*
X167027907Y-103673996D02*
X166851130Y-103497219D01*
X167558237Y-102790112D01*
X167735014Y-102966889D01*
X167027907Y-103673996D01*
X167027907Y-103673996D01*
G37*
D15*
X167646625Y-103585608D03*
D13*
G36*
X167381460Y-104027550D02*
X167204683Y-103850773D01*
X167911790Y-103143666D01*
X168088567Y-103320443D01*
X167381460Y-104027550D01*
X167381460Y-104027550D01*
G37*
D15*
X168000179Y-103939161D03*
D13*
G36*
X167735014Y-104381103D02*
X167558237Y-104204326D01*
X168265344Y-103497219D01*
X168442121Y-103673996D01*
X167735014Y-104381103D01*
X167735014Y-104381103D01*
G37*
D15*
X168353732Y-104292715D03*
D13*
G36*
X168088567Y-104734657D02*
X167911790Y-104557880D01*
X168618897Y-103850773D01*
X168795674Y-104027550D01*
X168088567Y-104734657D01*
X168088567Y-104734657D01*
G37*
D15*
X168707285Y-104646268D03*
D13*
G36*
X168442120Y-105088210D02*
X168265343Y-104911433D01*
X168972450Y-104204326D01*
X169149227Y-104381103D01*
X168442120Y-105088210D01*
X168442120Y-105088210D01*
G37*
D15*
X169060839Y-104999821D03*
D13*
G36*
X168795674Y-105441763D02*
X168618897Y-105264986D01*
X169326004Y-104557879D01*
X169502781Y-104734656D01*
X168795674Y-105441763D01*
X168795674Y-105441763D01*
G37*
D15*
X169414392Y-105353375D03*
D13*
G36*
X169149227Y-105795317D02*
X168972450Y-105618540D01*
X169679557Y-104911433D01*
X169856334Y-105088210D01*
X169149227Y-105795317D01*
X169149227Y-105795317D01*
G37*
D15*
X169767946Y-105706928D03*
D13*
G36*
X169502781Y-106148870D02*
X169326004Y-105972093D01*
X170033111Y-105264986D01*
X170209888Y-105441763D01*
X169502781Y-106148870D01*
X169502781Y-106148870D01*
G37*
D15*
X170121499Y-106060482D03*
D13*
G36*
X169856334Y-106502424D02*
X169679557Y-106325647D01*
X170386664Y-105618540D01*
X170563441Y-105795317D01*
X169856334Y-106502424D01*
X169856334Y-106502424D01*
G37*
D15*
X170475052Y-106414035D03*
D13*
G36*
X170209887Y-106855977D02*
X170033110Y-106679200D01*
X170740217Y-105972093D01*
X170916994Y-106148870D01*
X170209887Y-106855977D01*
X170209887Y-106855977D01*
G37*
D15*
X170828606Y-106767588D03*
D13*
G36*
X170563441Y-107209530D02*
X170386664Y-107032753D01*
X171093771Y-106325646D01*
X171270548Y-106502423D01*
X170563441Y-107209530D01*
X170563441Y-107209530D01*
G37*
D15*
X171182159Y-107121142D03*
D13*
G36*
X170916994Y-107563084D02*
X170740217Y-107386307D01*
X171447324Y-106679200D01*
X171624101Y-106855977D01*
X170916994Y-107563084D01*
X170916994Y-107563084D01*
G37*
G04 #@! TD*
D10*
G04 #@! TO.C,IC3*
X167450000Y-56275000D03*
X167450000Y-55625000D03*
X167450000Y-54975000D03*
X167450000Y-54325000D03*
X167450000Y-53675000D03*
X167450000Y-53025000D03*
X167450000Y-52375000D03*
X167450000Y-51725000D03*
X161550000Y-51725000D03*
X161550000Y-52375000D03*
X161550000Y-53025000D03*
X161550000Y-53675000D03*
X161550000Y-54325000D03*
X161550000Y-54975000D03*
X161550000Y-55625000D03*
X161550000Y-56275000D03*
G04 #@! TD*
D13*
G04 #@! TO.C,R100*
G36*
X120527691Y-93276053D02*
X120548926Y-93279203D01*
X120569750Y-93284419D01*
X120589962Y-93291651D01*
X120609368Y-93300830D01*
X120627781Y-93311866D01*
X120645024Y-93324654D01*
X120660930Y-93339070D01*
X120675346Y-93354976D01*
X120688134Y-93372219D01*
X120699170Y-93390632D01*
X120708349Y-93410038D01*
X120715581Y-93430250D01*
X120720797Y-93451074D01*
X120723947Y-93472309D01*
X120725000Y-93493750D01*
X120725000Y-93931250D01*
X120723947Y-93952691D01*
X120720797Y-93973926D01*
X120715581Y-93994750D01*
X120708349Y-94014962D01*
X120699170Y-94034368D01*
X120688134Y-94052781D01*
X120675346Y-94070024D01*
X120660930Y-94085930D01*
X120645024Y-94100346D01*
X120627781Y-94113134D01*
X120609368Y-94124170D01*
X120589962Y-94133349D01*
X120569750Y-94140581D01*
X120548926Y-94145797D01*
X120527691Y-94148947D01*
X120506250Y-94150000D01*
X119993750Y-94150000D01*
X119972309Y-94148947D01*
X119951074Y-94145797D01*
X119930250Y-94140581D01*
X119910038Y-94133349D01*
X119890632Y-94124170D01*
X119872219Y-94113134D01*
X119854976Y-94100346D01*
X119839070Y-94085930D01*
X119824654Y-94070024D01*
X119811866Y-94052781D01*
X119800830Y-94034368D01*
X119791651Y-94014962D01*
X119784419Y-93994750D01*
X119779203Y-93973926D01*
X119776053Y-93952691D01*
X119775000Y-93931250D01*
X119775000Y-93493750D01*
X119776053Y-93472309D01*
X119779203Y-93451074D01*
X119784419Y-93430250D01*
X119791651Y-93410038D01*
X119800830Y-93390632D01*
X119811866Y-93372219D01*
X119824654Y-93354976D01*
X119839070Y-93339070D01*
X119854976Y-93324654D01*
X119872219Y-93311866D01*
X119890632Y-93300830D01*
X119910038Y-93291651D01*
X119930250Y-93284419D01*
X119951074Y-93279203D01*
X119972309Y-93276053D01*
X119993750Y-93275000D01*
X120506250Y-93275000D01*
X120527691Y-93276053D01*
X120527691Y-93276053D01*
G37*
D14*
X120250000Y-93712500D03*
D13*
G36*
X120527691Y-94851053D02*
X120548926Y-94854203D01*
X120569750Y-94859419D01*
X120589962Y-94866651D01*
X120609368Y-94875830D01*
X120627781Y-94886866D01*
X120645024Y-94899654D01*
X120660930Y-94914070D01*
X120675346Y-94929976D01*
X120688134Y-94947219D01*
X120699170Y-94965632D01*
X120708349Y-94985038D01*
X120715581Y-95005250D01*
X120720797Y-95026074D01*
X120723947Y-95047309D01*
X120725000Y-95068750D01*
X120725000Y-95506250D01*
X120723947Y-95527691D01*
X120720797Y-95548926D01*
X120715581Y-95569750D01*
X120708349Y-95589962D01*
X120699170Y-95609368D01*
X120688134Y-95627781D01*
X120675346Y-95645024D01*
X120660930Y-95660930D01*
X120645024Y-95675346D01*
X120627781Y-95688134D01*
X120609368Y-95699170D01*
X120589962Y-95708349D01*
X120569750Y-95715581D01*
X120548926Y-95720797D01*
X120527691Y-95723947D01*
X120506250Y-95725000D01*
X119993750Y-95725000D01*
X119972309Y-95723947D01*
X119951074Y-95720797D01*
X119930250Y-95715581D01*
X119910038Y-95708349D01*
X119890632Y-95699170D01*
X119872219Y-95688134D01*
X119854976Y-95675346D01*
X119839070Y-95660930D01*
X119824654Y-95645024D01*
X119811866Y-95627781D01*
X119800830Y-95609368D01*
X119791651Y-95589962D01*
X119784419Y-95569750D01*
X119779203Y-95548926D01*
X119776053Y-95527691D01*
X119775000Y-95506250D01*
X119775000Y-95068750D01*
X119776053Y-95047309D01*
X119779203Y-95026074D01*
X119784419Y-95005250D01*
X119791651Y-94985038D01*
X119800830Y-94965632D01*
X119811866Y-94947219D01*
X119824654Y-94929976D01*
X119839070Y-94914070D01*
X119854976Y-94899654D01*
X119872219Y-94886866D01*
X119890632Y-94875830D01*
X119910038Y-94866651D01*
X119930250Y-94859419D01*
X119951074Y-94854203D01*
X119972309Y-94851053D01*
X119993750Y-94850000D01*
X120506250Y-94850000D01*
X120527691Y-94851053D01*
X120527691Y-94851053D01*
G37*
D14*
X120250000Y-95287500D03*
G04 #@! TD*
D13*
G04 #@! TO.C,R101*
G36*
X125527691Y-94851053D02*
X125548926Y-94854203D01*
X125569750Y-94859419D01*
X125589962Y-94866651D01*
X125609368Y-94875830D01*
X125627781Y-94886866D01*
X125645024Y-94899654D01*
X125660930Y-94914070D01*
X125675346Y-94929976D01*
X125688134Y-94947219D01*
X125699170Y-94965632D01*
X125708349Y-94985038D01*
X125715581Y-95005250D01*
X125720797Y-95026074D01*
X125723947Y-95047309D01*
X125725000Y-95068750D01*
X125725000Y-95506250D01*
X125723947Y-95527691D01*
X125720797Y-95548926D01*
X125715581Y-95569750D01*
X125708349Y-95589962D01*
X125699170Y-95609368D01*
X125688134Y-95627781D01*
X125675346Y-95645024D01*
X125660930Y-95660930D01*
X125645024Y-95675346D01*
X125627781Y-95688134D01*
X125609368Y-95699170D01*
X125589962Y-95708349D01*
X125569750Y-95715581D01*
X125548926Y-95720797D01*
X125527691Y-95723947D01*
X125506250Y-95725000D01*
X124993750Y-95725000D01*
X124972309Y-95723947D01*
X124951074Y-95720797D01*
X124930250Y-95715581D01*
X124910038Y-95708349D01*
X124890632Y-95699170D01*
X124872219Y-95688134D01*
X124854976Y-95675346D01*
X124839070Y-95660930D01*
X124824654Y-95645024D01*
X124811866Y-95627781D01*
X124800830Y-95609368D01*
X124791651Y-95589962D01*
X124784419Y-95569750D01*
X124779203Y-95548926D01*
X124776053Y-95527691D01*
X124775000Y-95506250D01*
X124775000Y-95068750D01*
X124776053Y-95047309D01*
X124779203Y-95026074D01*
X124784419Y-95005250D01*
X124791651Y-94985038D01*
X124800830Y-94965632D01*
X124811866Y-94947219D01*
X124824654Y-94929976D01*
X124839070Y-94914070D01*
X124854976Y-94899654D01*
X124872219Y-94886866D01*
X124890632Y-94875830D01*
X124910038Y-94866651D01*
X124930250Y-94859419D01*
X124951074Y-94854203D01*
X124972309Y-94851053D01*
X124993750Y-94850000D01*
X125506250Y-94850000D01*
X125527691Y-94851053D01*
X125527691Y-94851053D01*
G37*
D14*
X125250000Y-95287500D03*
D13*
G36*
X125527691Y-93276053D02*
X125548926Y-93279203D01*
X125569750Y-93284419D01*
X125589962Y-93291651D01*
X125609368Y-93300830D01*
X125627781Y-93311866D01*
X125645024Y-93324654D01*
X125660930Y-93339070D01*
X125675346Y-93354976D01*
X125688134Y-93372219D01*
X125699170Y-93390632D01*
X125708349Y-93410038D01*
X125715581Y-93430250D01*
X125720797Y-93451074D01*
X125723947Y-93472309D01*
X125725000Y-93493750D01*
X125725000Y-93931250D01*
X125723947Y-93952691D01*
X125720797Y-93973926D01*
X125715581Y-93994750D01*
X125708349Y-94014962D01*
X125699170Y-94034368D01*
X125688134Y-94052781D01*
X125675346Y-94070024D01*
X125660930Y-94085930D01*
X125645024Y-94100346D01*
X125627781Y-94113134D01*
X125609368Y-94124170D01*
X125589962Y-94133349D01*
X125569750Y-94140581D01*
X125548926Y-94145797D01*
X125527691Y-94148947D01*
X125506250Y-94150000D01*
X124993750Y-94150000D01*
X124972309Y-94148947D01*
X124951074Y-94145797D01*
X124930250Y-94140581D01*
X124910038Y-94133349D01*
X124890632Y-94124170D01*
X124872219Y-94113134D01*
X124854976Y-94100346D01*
X124839070Y-94085930D01*
X124824654Y-94070024D01*
X124811866Y-94052781D01*
X124800830Y-94034368D01*
X124791651Y-94014962D01*
X124784419Y-93994750D01*
X124779203Y-93973926D01*
X124776053Y-93952691D01*
X124775000Y-93931250D01*
X124775000Y-93493750D01*
X124776053Y-93472309D01*
X124779203Y-93451074D01*
X124784419Y-93430250D01*
X124791651Y-93410038D01*
X124800830Y-93390632D01*
X124811866Y-93372219D01*
X124824654Y-93354976D01*
X124839070Y-93339070D01*
X124854976Y-93324654D01*
X124872219Y-93311866D01*
X124890632Y-93300830D01*
X124910038Y-93291651D01*
X124930250Y-93284419D01*
X124951074Y-93279203D01*
X124972309Y-93276053D01*
X124993750Y-93275000D01*
X125506250Y-93275000D01*
X125527691Y-93276053D01*
X125527691Y-93276053D01*
G37*
D14*
X125250000Y-93712500D03*
G04 #@! TD*
D13*
G04 #@! TO.C,R102*
G36*
X130527691Y-93276053D02*
X130548926Y-93279203D01*
X130569750Y-93284419D01*
X130589962Y-93291651D01*
X130609368Y-93300830D01*
X130627781Y-93311866D01*
X130645024Y-93324654D01*
X130660930Y-93339070D01*
X130675346Y-93354976D01*
X130688134Y-93372219D01*
X130699170Y-93390632D01*
X130708349Y-93410038D01*
X130715581Y-93430250D01*
X130720797Y-93451074D01*
X130723947Y-93472309D01*
X130725000Y-93493750D01*
X130725000Y-93931250D01*
X130723947Y-93952691D01*
X130720797Y-93973926D01*
X130715581Y-93994750D01*
X130708349Y-94014962D01*
X130699170Y-94034368D01*
X130688134Y-94052781D01*
X130675346Y-94070024D01*
X130660930Y-94085930D01*
X130645024Y-94100346D01*
X130627781Y-94113134D01*
X130609368Y-94124170D01*
X130589962Y-94133349D01*
X130569750Y-94140581D01*
X130548926Y-94145797D01*
X130527691Y-94148947D01*
X130506250Y-94150000D01*
X129993750Y-94150000D01*
X129972309Y-94148947D01*
X129951074Y-94145797D01*
X129930250Y-94140581D01*
X129910038Y-94133349D01*
X129890632Y-94124170D01*
X129872219Y-94113134D01*
X129854976Y-94100346D01*
X129839070Y-94085930D01*
X129824654Y-94070024D01*
X129811866Y-94052781D01*
X129800830Y-94034368D01*
X129791651Y-94014962D01*
X129784419Y-93994750D01*
X129779203Y-93973926D01*
X129776053Y-93952691D01*
X129775000Y-93931250D01*
X129775000Y-93493750D01*
X129776053Y-93472309D01*
X129779203Y-93451074D01*
X129784419Y-93430250D01*
X129791651Y-93410038D01*
X129800830Y-93390632D01*
X129811866Y-93372219D01*
X129824654Y-93354976D01*
X129839070Y-93339070D01*
X129854976Y-93324654D01*
X129872219Y-93311866D01*
X129890632Y-93300830D01*
X129910038Y-93291651D01*
X129930250Y-93284419D01*
X129951074Y-93279203D01*
X129972309Y-93276053D01*
X129993750Y-93275000D01*
X130506250Y-93275000D01*
X130527691Y-93276053D01*
X130527691Y-93276053D01*
G37*
D14*
X130250000Y-93712500D03*
D13*
G36*
X130527691Y-94851053D02*
X130548926Y-94854203D01*
X130569750Y-94859419D01*
X130589962Y-94866651D01*
X130609368Y-94875830D01*
X130627781Y-94886866D01*
X130645024Y-94899654D01*
X130660930Y-94914070D01*
X130675346Y-94929976D01*
X130688134Y-94947219D01*
X130699170Y-94965632D01*
X130708349Y-94985038D01*
X130715581Y-95005250D01*
X130720797Y-95026074D01*
X130723947Y-95047309D01*
X130725000Y-95068750D01*
X130725000Y-95506250D01*
X130723947Y-95527691D01*
X130720797Y-95548926D01*
X130715581Y-95569750D01*
X130708349Y-95589962D01*
X130699170Y-95609368D01*
X130688134Y-95627781D01*
X130675346Y-95645024D01*
X130660930Y-95660930D01*
X130645024Y-95675346D01*
X130627781Y-95688134D01*
X130609368Y-95699170D01*
X130589962Y-95708349D01*
X130569750Y-95715581D01*
X130548926Y-95720797D01*
X130527691Y-95723947D01*
X130506250Y-95725000D01*
X129993750Y-95725000D01*
X129972309Y-95723947D01*
X129951074Y-95720797D01*
X129930250Y-95715581D01*
X129910038Y-95708349D01*
X129890632Y-95699170D01*
X129872219Y-95688134D01*
X129854976Y-95675346D01*
X129839070Y-95660930D01*
X129824654Y-95645024D01*
X129811866Y-95627781D01*
X129800830Y-95609368D01*
X129791651Y-95589962D01*
X129784419Y-95569750D01*
X129779203Y-95548926D01*
X129776053Y-95527691D01*
X129775000Y-95506250D01*
X129775000Y-95068750D01*
X129776053Y-95047309D01*
X129779203Y-95026074D01*
X129784419Y-95005250D01*
X129791651Y-94985038D01*
X129800830Y-94965632D01*
X129811866Y-94947219D01*
X129824654Y-94929976D01*
X129839070Y-94914070D01*
X129854976Y-94899654D01*
X129872219Y-94886866D01*
X129890632Y-94875830D01*
X129910038Y-94866651D01*
X129930250Y-94859419D01*
X129951074Y-94854203D01*
X129972309Y-94851053D01*
X129993750Y-94850000D01*
X130506250Y-94850000D01*
X130527691Y-94851053D01*
X130527691Y-94851053D01*
G37*
D14*
X130250000Y-95287500D03*
G04 #@! TD*
D13*
G04 #@! TO.C,R103*
G36*
X135527691Y-94851053D02*
X135548926Y-94854203D01*
X135569750Y-94859419D01*
X135589962Y-94866651D01*
X135609368Y-94875830D01*
X135627781Y-94886866D01*
X135645024Y-94899654D01*
X135660930Y-94914070D01*
X135675346Y-94929976D01*
X135688134Y-94947219D01*
X135699170Y-94965632D01*
X135708349Y-94985038D01*
X135715581Y-95005250D01*
X135720797Y-95026074D01*
X135723947Y-95047309D01*
X135725000Y-95068750D01*
X135725000Y-95506250D01*
X135723947Y-95527691D01*
X135720797Y-95548926D01*
X135715581Y-95569750D01*
X135708349Y-95589962D01*
X135699170Y-95609368D01*
X135688134Y-95627781D01*
X135675346Y-95645024D01*
X135660930Y-95660930D01*
X135645024Y-95675346D01*
X135627781Y-95688134D01*
X135609368Y-95699170D01*
X135589962Y-95708349D01*
X135569750Y-95715581D01*
X135548926Y-95720797D01*
X135527691Y-95723947D01*
X135506250Y-95725000D01*
X134993750Y-95725000D01*
X134972309Y-95723947D01*
X134951074Y-95720797D01*
X134930250Y-95715581D01*
X134910038Y-95708349D01*
X134890632Y-95699170D01*
X134872219Y-95688134D01*
X134854976Y-95675346D01*
X134839070Y-95660930D01*
X134824654Y-95645024D01*
X134811866Y-95627781D01*
X134800830Y-95609368D01*
X134791651Y-95589962D01*
X134784419Y-95569750D01*
X134779203Y-95548926D01*
X134776053Y-95527691D01*
X134775000Y-95506250D01*
X134775000Y-95068750D01*
X134776053Y-95047309D01*
X134779203Y-95026074D01*
X134784419Y-95005250D01*
X134791651Y-94985038D01*
X134800830Y-94965632D01*
X134811866Y-94947219D01*
X134824654Y-94929976D01*
X134839070Y-94914070D01*
X134854976Y-94899654D01*
X134872219Y-94886866D01*
X134890632Y-94875830D01*
X134910038Y-94866651D01*
X134930250Y-94859419D01*
X134951074Y-94854203D01*
X134972309Y-94851053D01*
X134993750Y-94850000D01*
X135506250Y-94850000D01*
X135527691Y-94851053D01*
X135527691Y-94851053D01*
G37*
D14*
X135250000Y-95287500D03*
D13*
G36*
X135527691Y-93276053D02*
X135548926Y-93279203D01*
X135569750Y-93284419D01*
X135589962Y-93291651D01*
X135609368Y-93300830D01*
X135627781Y-93311866D01*
X135645024Y-93324654D01*
X135660930Y-93339070D01*
X135675346Y-93354976D01*
X135688134Y-93372219D01*
X135699170Y-93390632D01*
X135708349Y-93410038D01*
X135715581Y-93430250D01*
X135720797Y-93451074D01*
X135723947Y-93472309D01*
X135725000Y-93493750D01*
X135725000Y-93931250D01*
X135723947Y-93952691D01*
X135720797Y-93973926D01*
X135715581Y-93994750D01*
X135708349Y-94014962D01*
X135699170Y-94034368D01*
X135688134Y-94052781D01*
X135675346Y-94070024D01*
X135660930Y-94085930D01*
X135645024Y-94100346D01*
X135627781Y-94113134D01*
X135609368Y-94124170D01*
X135589962Y-94133349D01*
X135569750Y-94140581D01*
X135548926Y-94145797D01*
X135527691Y-94148947D01*
X135506250Y-94150000D01*
X134993750Y-94150000D01*
X134972309Y-94148947D01*
X134951074Y-94145797D01*
X134930250Y-94140581D01*
X134910038Y-94133349D01*
X134890632Y-94124170D01*
X134872219Y-94113134D01*
X134854976Y-94100346D01*
X134839070Y-94085930D01*
X134824654Y-94070024D01*
X134811866Y-94052781D01*
X134800830Y-94034368D01*
X134791651Y-94014962D01*
X134784419Y-93994750D01*
X134779203Y-93973926D01*
X134776053Y-93952691D01*
X134775000Y-93931250D01*
X134775000Y-93493750D01*
X134776053Y-93472309D01*
X134779203Y-93451074D01*
X134784419Y-93430250D01*
X134791651Y-93410038D01*
X134800830Y-93390632D01*
X134811866Y-93372219D01*
X134824654Y-93354976D01*
X134839070Y-93339070D01*
X134854976Y-93324654D01*
X134872219Y-93311866D01*
X134890632Y-93300830D01*
X134910038Y-93291651D01*
X134930250Y-93284419D01*
X134951074Y-93279203D01*
X134972309Y-93276053D01*
X134993750Y-93275000D01*
X135506250Y-93275000D01*
X135527691Y-93276053D01*
X135527691Y-93276053D01*
G37*
D14*
X135250000Y-93712500D03*
G04 #@! TD*
D13*
G04 #@! TO.C,R104*
G36*
X140527691Y-93276053D02*
X140548926Y-93279203D01*
X140569750Y-93284419D01*
X140589962Y-93291651D01*
X140609368Y-93300830D01*
X140627781Y-93311866D01*
X140645024Y-93324654D01*
X140660930Y-93339070D01*
X140675346Y-93354976D01*
X140688134Y-93372219D01*
X140699170Y-93390632D01*
X140708349Y-93410038D01*
X140715581Y-93430250D01*
X140720797Y-93451074D01*
X140723947Y-93472309D01*
X140725000Y-93493750D01*
X140725000Y-93931250D01*
X140723947Y-93952691D01*
X140720797Y-93973926D01*
X140715581Y-93994750D01*
X140708349Y-94014962D01*
X140699170Y-94034368D01*
X140688134Y-94052781D01*
X140675346Y-94070024D01*
X140660930Y-94085930D01*
X140645024Y-94100346D01*
X140627781Y-94113134D01*
X140609368Y-94124170D01*
X140589962Y-94133349D01*
X140569750Y-94140581D01*
X140548926Y-94145797D01*
X140527691Y-94148947D01*
X140506250Y-94150000D01*
X139993750Y-94150000D01*
X139972309Y-94148947D01*
X139951074Y-94145797D01*
X139930250Y-94140581D01*
X139910038Y-94133349D01*
X139890632Y-94124170D01*
X139872219Y-94113134D01*
X139854976Y-94100346D01*
X139839070Y-94085930D01*
X139824654Y-94070024D01*
X139811866Y-94052781D01*
X139800830Y-94034368D01*
X139791651Y-94014962D01*
X139784419Y-93994750D01*
X139779203Y-93973926D01*
X139776053Y-93952691D01*
X139775000Y-93931250D01*
X139775000Y-93493750D01*
X139776053Y-93472309D01*
X139779203Y-93451074D01*
X139784419Y-93430250D01*
X139791651Y-93410038D01*
X139800830Y-93390632D01*
X139811866Y-93372219D01*
X139824654Y-93354976D01*
X139839070Y-93339070D01*
X139854976Y-93324654D01*
X139872219Y-93311866D01*
X139890632Y-93300830D01*
X139910038Y-93291651D01*
X139930250Y-93284419D01*
X139951074Y-93279203D01*
X139972309Y-93276053D01*
X139993750Y-93275000D01*
X140506250Y-93275000D01*
X140527691Y-93276053D01*
X140527691Y-93276053D01*
G37*
D14*
X140250000Y-93712500D03*
D13*
G36*
X140527691Y-94851053D02*
X140548926Y-94854203D01*
X140569750Y-94859419D01*
X140589962Y-94866651D01*
X140609368Y-94875830D01*
X140627781Y-94886866D01*
X140645024Y-94899654D01*
X140660930Y-94914070D01*
X140675346Y-94929976D01*
X140688134Y-94947219D01*
X140699170Y-94965632D01*
X140708349Y-94985038D01*
X140715581Y-95005250D01*
X140720797Y-95026074D01*
X140723947Y-95047309D01*
X140725000Y-95068750D01*
X140725000Y-95506250D01*
X140723947Y-95527691D01*
X140720797Y-95548926D01*
X140715581Y-95569750D01*
X140708349Y-95589962D01*
X140699170Y-95609368D01*
X140688134Y-95627781D01*
X140675346Y-95645024D01*
X140660930Y-95660930D01*
X140645024Y-95675346D01*
X140627781Y-95688134D01*
X140609368Y-95699170D01*
X140589962Y-95708349D01*
X140569750Y-95715581D01*
X140548926Y-95720797D01*
X140527691Y-95723947D01*
X140506250Y-95725000D01*
X139993750Y-95725000D01*
X139972309Y-95723947D01*
X139951074Y-95720797D01*
X139930250Y-95715581D01*
X139910038Y-95708349D01*
X139890632Y-95699170D01*
X139872219Y-95688134D01*
X139854976Y-95675346D01*
X139839070Y-95660930D01*
X139824654Y-95645024D01*
X139811866Y-95627781D01*
X139800830Y-95609368D01*
X139791651Y-95589962D01*
X139784419Y-95569750D01*
X139779203Y-95548926D01*
X139776053Y-95527691D01*
X139775000Y-95506250D01*
X139775000Y-95068750D01*
X139776053Y-95047309D01*
X139779203Y-95026074D01*
X139784419Y-95005250D01*
X139791651Y-94985038D01*
X139800830Y-94965632D01*
X139811866Y-94947219D01*
X139824654Y-94929976D01*
X139839070Y-94914070D01*
X139854976Y-94899654D01*
X139872219Y-94886866D01*
X139890632Y-94875830D01*
X139910038Y-94866651D01*
X139930250Y-94859419D01*
X139951074Y-94854203D01*
X139972309Y-94851053D01*
X139993750Y-94850000D01*
X140506250Y-94850000D01*
X140527691Y-94851053D01*
X140527691Y-94851053D01*
G37*
D14*
X140250000Y-95287500D03*
G04 #@! TD*
D13*
G04 #@! TO.C,R105*
G36*
X145527691Y-94601053D02*
X145548926Y-94604203D01*
X145569750Y-94609419D01*
X145589962Y-94616651D01*
X145609368Y-94625830D01*
X145627781Y-94636866D01*
X145645024Y-94649654D01*
X145660930Y-94664070D01*
X145675346Y-94679976D01*
X145688134Y-94697219D01*
X145699170Y-94715632D01*
X145708349Y-94735038D01*
X145715581Y-94755250D01*
X145720797Y-94776074D01*
X145723947Y-94797309D01*
X145725000Y-94818750D01*
X145725000Y-95256250D01*
X145723947Y-95277691D01*
X145720797Y-95298926D01*
X145715581Y-95319750D01*
X145708349Y-95339962D01*
X145699170Y-95359368D01*
X145688134Y-95377781D01*
X145675346Y-95395024D01*
X145660930Y-95410930D01*
X145645024Y-95425346D01*
X145627781Y-95438134D01*
X145609368Y-95449170D01*
X145589962Y-95458349D01*
X145569750Y-95465581D01*
X145548926Y-95470797D01*
X145527691Y-95473947D01*
X145506250Y-95475000D01*
X144993750Y-95475000D01*
X144972309Y-95473947D01*
X144951074Y-95470797D01*
X144930250Y-95465581D01*
X144910038Y-95458349D01*
X144890632Y-95449170D01*
X144872219Y-95438134D01*
X144854976Y-95425346D01*
X144839070Y-95410930D01*
X144824654Y-95395024D01*
X144811866Y-95377781D01*
X144800830Y-95359368D01*
X144791651Y-95339962D01*
X144784419Y-95319750D01*
X144779203Y-95298926D01*
X144776053Y-95277691D01*
X144775000Y-95256250D01*
X144775000Y-94818750D01*
X144776053Y-94797309D01*
X144779203Y-94776074D01*
X144784419Y-94755250D01*
X144791651Y-94735038D01*
X144800830Y-94715632D01*
X144811866Y-94697219D01*
X144824654Y-94679976D01*
X144839070Y-94664070D01*
X144854976Y-94649654D01*
X144872219Y-94636866D01*
X144890632Y-94625830D01*
X144910038Y-94616651D01*
X144930250Y-94609419D01*
X144951074Y-94604203D01*
X144972309Y-94601053D01*
X144993750Y-94600000D01*
X145506250Y-94600000D01*
X145527691Y-94601053D01*
X145527691Y-94601053D01*
G37*
D14*
X145250000Y-95037500D03*
D13*
G36*
X145527691Y-93026053D02*
X145548926Y-93029203D01*
X145569750Y-93034419D01*
X145589962Y-93041651D01*
X145609368Y-93050830D01*
X145627781Y-93061866D01*
X145645024Y-93074654D01*
X145660930Y-93089070D01*
X145675346Y-93104976D01*
X145688134Y-93122219D01*
X145699170Y-93140632D01*
X145708349Y-93160038D01*
X145715581Y-93180250D01*
X145720797Y-93201074D01*
X145723947Y-93222309D01*
X145725000Y-93243750D01*
X145725000Y-93681250D01*
X145723947Y-93702691D01*
X145720797Y-93723926D01*
X145715581Y-93744750D01*
X145708349Y-93764962D01*
X145699170Y-93784368D01*
X145688134Y-93802781D01*
X145675346Y-93820024D01*
X145660930Y-93835930D01*
X145645024Y-93850346D01*
X145627781Y-93863134D01*
X145609368Y-93874170D01*
X145589962Y-93883349D01*
X145569750Y-93890581D01*
X145548926Y-93895797D01*
X145527691Y-93898947D01*
X145506250Y-93900000D01*
X144993750Y-93900000D01*
X144972309Y-93898947D01*
X144951074Y-93895797D01*
X144930250Y-93890581D01*
X144910038Y-93883349D01*
X144890632Y-93874170D01*
X144872219Y-93863134D01*
X144854976Y-93850346D01*
X144839070Y-93835930D01*
X144824654Y-93820024D01*
X144811866Y-93802781D01*
X144800830Y-93784368D01*
X144791651Y-93764962D01*
X144784419Y-93744750D01*
X144779203Y-93723926D01*
X144776053Y-93702691D01*
X144775000Y-93681250D01*
X144775000Y-93243750D01*
X144776053Y-93222309D01*
X144779203Y-93201074D01*
X144784419Y-93180250D01*
X144791651Y-93160038D01*
X144800830Y-93140632D01*
X144811866Y-93122219D01*
X144824654Y-93104976D01*
X144839070Y-93089070D01*
X144854976Y-93074654D01*
X144872219Y-93061866D01*
X144890632Y-93050830D01*
X144910038Y-93041651D01*
X144930250Y-93034419D01*
X144951074Y-93029203D01*
X144972309Y-93026053D01*
X144993750Y-93025000D01*
X145506250Y-93025000D01*
X145527691Y-93026053D01*
X145527691Y-93026053D01*
G37*
D14*
X145250000Y-93462500D03*
G04 #@! TD*
D13*
G04 #@! TO.C,R106*
G36*
X153527691Y-93026053D02*
X153548926Y-93029203D01*
X153569750Y-93034419D01*
X153589962Y-93041651D01*
X153609368Y-93050830D01*
X153627781Y-93061866D01*
X153645024Y-93074654D01*
X153660930Y-93089070D01*
X153675346Y-93104976D01*
X153688134Y-93122219D01*
X153699170Y-93140632D01*
X153708349Y-93160038D01*
X153715581Y-93180250D01*
X153720797Y-93201074D01*
X153723947Y-93222309D01*
X153725000Y-93243750D01*
X153725000Y-93681250D01*
X153723947Y-93702691D01*
X153720797Y-93723926D01*
X153715581Y-93744750D01*
X153708349Y-93764962D01*
X153699170Y-93784368D01*
X153688134Y-93802781D01*
X153675346Y-93820024D01*
X153660930Y-93835930D01*
X153645024Y-93850346D01*
X153627781Y-93863134D01*
X153609368Y-93874170D01*
X153589962Y-93883349D01*
X153569750Y-93890581D01*
X153548926Y-93895797D01*
X153527691Y-93898947D01*
X153506250Y-93900000D01*
X152993750Y-93900000D01*
X152972309Y-93898947D01*
X152951074Y-93895797D01*
X152930250Y-93890581D01*
X152910038Y-93883349D01*
X152890632Y-93874170D01*
X152872219Y-93863134D01*
X152854976Y-93850346D01*
X152839070Y-93835930D01*
X152824654Y-93820024D01*
X152811866Y-93802781D01*
X152800830Y-93784368D01*
X152791651Y-93764962D01*
X152784419Y-93744750D01*
X152779203Y-93723926D01*
X152776053Y-93702691D01*
X152775000Y-93681250D01*
X152775000Y-93243750D01*
X152776053Y-93222309D01*
X152779203Y-93201074D01*
X152784419Y-93180250D01*
X152791651Y-93160038D01*
X152800830Y-93140632D01*
X152811866Y-93122219D01*
X152824654Y-93104976D01*
X152839070Y-93089070D01*
X152854976Y-93074654D01*
X152872219Y-93061866D01*
X152890632Y-93050830D01*
X152910038Y-93041651D01*
X152930250Y-93034419D01*
X152951074Y-93029203D01*
X152972309Y-93026053D01*
X152993750Y-93025000D01*
X153506250Y-93025000D01*
X153527691Y-93026053D01*
X153527691Y-93026053D01*
G37*
D14*
X153250000Y-93462500D03*
D13*
G36*
X153527691Y-94601053D02*
X153548926Y-94604203D01*
X153569750Y-94609419D01*
X153589962Y-94616651D01*
X153609368Y-94625830D01*
X153627781Y-94636866D01*
X153645024Y-94649654D01*
X153660930Y-94664070D01*
X153675346Y-94679976D01*
X153688134Y-94697219D01*
X153699170Y-94715632D01*
X153708349Y-94735038D01*
X153715581Y-94755250D01*
X153720797Y-94776074D01*
X153723947Y-94797309D01*
X153725000Y-94818750D01*
X153725000Y-95256250D01*
X153723947Y-95277691D01*
X153720797Y-95298926D01*
X153715581Y-95319750D01*
X153708349Y-95339962D01*
X153699170Y-95359368D01*
X153688134Y-95377781D01*
X153675346Y-95395024D01*
X153660930Y-95410930D01*
X153645024Y-95425346D01*
X153627781Y-95438134D01*
X153609368Y-95449170D01*
X153589962Y-95458349D01*
X153569750Y-95465581D01*
X153548926Y-95470797D01*
X153527691Y-95473947D01*
X153506250Y-95475000D01*
X152993750Y-95475000D01*
X152972309Y-95473947D01*
X152951074Y-95470797D01*
X152930250Y-95465581D01*
X152910038Y-95458349D01*
X152890632Y-95449170D01*
X152872219Y-95438134D01*
X152854976Y-95425346D01*
X152839070Y-95410930D01*
X152824654Y-95395024D01*
X152811866Y-95377781D01*
X152800830Y-95359368D01*
X152791651Y-95339962D01*
X152784419Y-95319750D01*
X152779203Y-95298926D01*
X152776053Y-95277691D01*
X152775000Y-95256250D01*
X152775000Y-94818750D01*
X152776053Y-94797309D01*
X152779203Y-94776074D01*
X152784419Y-94755250D01*
X152791651Y-94735038D01*
X152800830Y-94715632D01*
X152811866Y-94697219D01*
X152824654Y-94679976D01*
X152839070Y-94664070D01*
X152854976Y-94649654D01*
X152872219Y-94636866D01*
X152890632Y-94625830D01*
X152910038Y-94616651D01*
X152930250Y-94609419D01*
X152951074Y-94604203D01*
X152972309Y-94601053D01*
X152993750Y-94600000D01*
X153506250Y-94600000D01*
X153527691Y-94601053D01*
X153527691Y-94601053D01*
G37*
D14*
X153250000Y-95037500D03*
G04 #@! TD*
D13*
G04 #@! TO.C,R107*
G36*
X155527691Y-94601053D02*
X155548926Y-94604203D01*
X155569750Y-94609419D01*
X155589962Y-94616651D01*
X155609368Y-94625830D01*
X155627781Y-94636866D01*
X155645024Y-94649654D01*
X155660930Y-94664070D01*
X155675346Y-94679976D01*
X155688134Y-94697219D01*
X155699170Y-94715632D01*
X155708349Y-94735038D01*
X155715581Y-94755250D01*
X155720797Y-94776074D01*
X155723947Y-94797309D01*
X155725000Y-94818750D01*
X155725000Y-95256250D01*
X155723947Y-95277691D01*
X155720797Y-95298926D01*
X155715581Y-95319750D01*
X155708349Y-95339962D01*
X155699170Y-95359368D01*
X155688134Y-95377781D01*
X155675346Y-95395024D01*
X155660930Y-95410930D01*
X155645024Y-95425346D01*
X155627781Y-95438134D01*
X155609368Y-95449170D01*
X155589962Y-95458349D01*
X155569750Y-95465581D01*
X155548926Y-95470797D01*
X155527691Y-95473947D01*
X155506250Y-95475000D01*
X154993750Y-95475000D01*
X154972309Y-95473947D01*
X154951074Y-95470797D01*
X154930250Y-95465581D01*
X154910038Y-95458349D01*
X154890632Y-95449170D01*
X154872219Y-95438134D01*
X154854976Y-95425346D01*
X154839070Y-95410930D01*
X154824654Y-95395024D01*
X154811866Y-95377781D01*
X154800830Y-95359368D01*
X154791651Y-95339962D01*
X154784419Y-95319750D01*
X154779203Y-95298926D01*
X154776053Y-95277691D01*
X154775000Y-95256250D01*
X154775000Y-94818750D01*
X154776053Y-94797309D01*
X154779203Y-94776074D01*
X154784419Y-94755250D01*
X154791651Y-94735038D01*
X154800830Y-94715632D01*
X154811866Y-94697219D01*
X154824654Y-94679976D01*
X154839070Y-94664070D01*
X154854976Y-94649654D01*
X154872219Y-94636866D01*
X154890632Y-94625830D01*
X154910038Y-94616651D01*
X154930250Y-94609419D01*
X154951074Y-94604203D01*
X154972309Y-94601053D01*
X154993750Y-94600000D01*
X155506250Y-94600000D01*
X155527691Y-94601053D01*
X155527691Y-94601053D01*
G37*
D14*
X155250000Y-95037500D03*
D13*
G36*
X155527691Y-93026053D02*
X155548926Y-93029203D01*
X155569750Y-93034419D01*
X155589962Y-93041651D01*
X155609368Y-93050830D01*
X155627781Y-93061866D01*
X155645024Y-93074654D01*
X155660930Y-93089070D01*
X155675346Y-93104976D01*
X155688134Y-93122219D01*
X155699170Y-93140632D01*
X155708349Y-93160038D01*
X155715581Y-93180250D01*
X155720797Y-93201074D01*
X155723947Y-93222309D01*
X155725000Y-93243750D01*
X155725000Y-93681250D01*
X155723947Y-93702691D01*
X155720797Y-93723926D01*
X155715581Y-93744750D01*
X155708349Y-93764962D01*
X155699170Y-93784368D01*
X155688134Y-93802781D01*
X155675346Y-93820024D01*
X155660930Y-93835930D01*
X155645024Y-93850346D01*
X155627781Y-93863134D01*
X155609368Y-93874170D01*
X155589962Y-93883349D01*
X155569750Y-93890581D01*
X155548926Y-93895797D01*
X155527691Y-93898947D01*
X155506250Y-93900000D01*
X154993750Y-93900000D01*
X154972309Y-93898947D01*
X154951074Y-93895797D01*
X154930250Y-93890581D01*
X154910038Y-93883349D01*
X154890632Y-93874170D01*
X154872219Y-93863134D01*
X154854976Y-93850346D01*
X154839070Y-93835930D01*
X154824654Y-93820024D01*
X154811866Y-93802781D01*
X154800830Y-93784368D01*
X154791651Y-93764962D01*
X154784419Y-93744750D01*
X154779203Y-93723926D01*
X154776053Y-93702691D01*
X154775000Y-93681250D01*
X154775000Y-93243750D01*
X154776053Y-93222309D01*
X154779203Y-93201074D01*
X154784419Y-93180250D01*
X154791651Y-93160038D01*
X154800830Y-93140632D01*
X154811866Y-93122219D01*
X154824654Y-93104976D01*
X154839070Y-93089070D01*
X154854976Y-93074654D01*
X154872219Y-93061866D01*
X154890632Y-93050830D01*
X154910038Y-93041651D01*
X154930250Y-93034419D01*
X154951074Y-93029203D01*
X154972309Y-93026053D01*
X154993750Y-93025000D01*
X155506250Y-93025000D01*
X155527691Y-93026053D01*
X155527691Y-93026053D01*
G37*
D14*
X155250000Y-93462500D03*
G04 #@! TD*
D13*
G04 #@! TO.C,R108*
G36*
X157527691Y-93026053D02*
X157548926Y-93029203D01*
X157569750Y-93034419D01*
X157589962Y-93041651D01*
X157609368Y-93050830D01*
X157627781Y-93061866D01*
X157645024Y-93074654D01*
X157660930Y-93089070D01*
X157675346Y-93104976D01*
X157688134Y-93122219D01*
X157699170Y-93140632D01*
X157708349Y-93160038D01*
X157715581Y-93180250D01*
X157720797Y-93201074D01*
X157723947Y-93222309D01*
X157725000Y-93243750D01*
X157725000Y-93681250D01*
X157723947Y-93702691D01*
X157720797Y-93723926D01*
X157715581Y-93744750D01*
X157708349Y-93764962D01*
X157699170Y-93784368D01*
X157688134Y-93802781D01*
X157675346Y-93820024D01*
X157660930Y-93835930D01*
X157645024Y-93850346D01*
X157627781Y-93863134D01*
X157609368Y-93874170D01*
X157589962Y-93883349D01*
X157569750Y-93890581D01*
X157548926Y-93895797D01*
X157527691Y-93898947D01*
X157506250Y-93900000D01*
X156993750Y-93900000D01*
X156972309Y-93898947D01*
X156951074Y-93895797D01*
X156930250Y-93890581D01*
X156910038Y-93883349D01*
X156890632Y-93874170D01*
X156872219Y-93863134D01*
X156854976Y-93850346D01*
X156839070Y-93835930D01*
X156824654Y-93820024D01*
X156811866Y-93802781D01*
X156800830Y-93784368D01*
X156791651Y-93764962D01*
X156784419Y-93744750D01*
X156779203Y-93723926D01*
X156776053Y-93702691D01*
X156775000Y-93681250D01*
X156775000Y-93243750D01*
X156776053Y-93222309D01*
X156779203Y-93201074D01*
X156784419Y-93180250D01*
X156791651Y-93160038D01*
X156800830Y-93140632D01*
X156811866Y-93122219D01*
X156824654Y-93104976D01*
X156839070Y-93089070D01*
X156854976Y-93074654D01*
X156872219Y-93061866D01*
X156890632Y-93050830D01*
X156910038Y-93041651D01*
X156930250Y-93034419D01*
X156951074Y-93029203D01*
X156972309Y-93026053D01*
X156993750Y-93025000D01*
X157506250Y-93025000D01*
X157527691Y-93026053D01*
X157527691Y-93026053D01*
G37*
D14*
X157250000Y-93462500D03*
D13*
G36*
X157527691Y-94601053D02*
X157548926Y-94604203D01*
X157569750Y-94609419D01*
X157589962Y-94616651D01*
X157609368Y-94625830D01*
X157627781Y-94636866D01*
X157645024Y-94649654D01*
X157660930Y-94664070D01*
X157675346Y-94679976D01*
X157688134Y-94697219D01*
X157699170Y-94715632D01*
X157708349Y-94735038D01*
X157715581Y-94755250D01*
X157720797Y-94776074D01*
X157723947Y-94797309D01*
X157725000Y-94818750D01*
X157725000Y-95256250D01*
X157723947Y-95277691D01*
X157720797Y-95298926D01*
X157715581Y-95319750D01*
X157708349Y-95339962D01*
X157699170Y-95359368D01*
X157688134Y-95377781D01*
X157675346Y-95395024D01*
X157660930Y-95410930D01*
X157645024Y-95425346D01*
X157627781Y-95438134D01*
X157609368Y-95449170D01*
X157589962Y-95458349D01*
X157569750Y-95465581D01*
X157548926Y-95470797D01*
X157527691Y-95473947D01*
X157506250Y-95475000D01*
X156993750Y-95475000D01*
X156972309Y-95473947D01*
X156951074Y-95470797D01*
X156930250Y-95465581D01*
X156910038Y-95458349D01*
X156890632Y-95449170D01*
X156872219Y-95438134D01*
X156854976Y-95425346D01*
X156839070Y-95410930D01*
X156824654Y-95395024D01*
X156811866Y-95377781D01*
X156800830Y-95359368D01*
X156791651Y-95339962D01*
X156784419Y-95319750D01*
X156779203Y-95298926D01*
X156776053Y-95277691D01*
X156775000Y-95256250D01*
X156775000Y-94818750D01*
X156776053Y-94797309D01*
X156779203Y-94776074D01*
X156784419Y-94755250D01*
X156791651Y-94735038D01*
X156800830Y-94715632D01*
X156811866Y-94697219D01*
X156824654Y-94679976D01*
X156839070Y-94664070D01*
X156854976Y-94649654D01*
X156872219Y-94636866D01*
X156890632Y-94625830D01*
X156910038Y-94616651D01*
X156930250Y-94609419D01*
X156951074Y-94604203D01*
X156972309Y-94601053D01*
X156993750Y-94600000D01*
X157506250Y-94600000D01*
X157527691Y-94601053D01*
X157527691Y-94601053D01*
G37*
D14*
X157250000Y-95037500D03*
G04 #@! TD*
D13*
G04 #@! TO.C,R109*
G36*
X159527691Y-94601053D02*
X159548926Y-94604203D01*
X159569750Y-94609419D01*
X159589962Y-94616651D01*
X159609368Y-94625830D01*
X159627781Y-94636866D01*
X159645024Y-94649654D01*
X159660930Y-94664070D01*
X159675346Y-94679976D01*
X159688134Y-94697219D01*
X159699170Y-94715632D01*
X159708349Y-94735038D01*
X159715581Y-94755250D01*
X159720797Y-94776074D01*
X159723947Y-94797309D01*
X159725000Y-94818750D01*
X159725000Y-95256250D01*
X159723947Y-95277691D01*
X159720797Y-95298926D01*
X159715581Y-95319750D01*
X159708349Y-95339962D01*
X159699170Y-95359368D01*
X159688134Y-95377781D01*
X159675346Y-95395024D01*
X159660930Y-95410930D01*
X159645024Y-95425346D01*
X159627781Y-95438134D01*
X159609368Y-95449170D01*
X159589962Y-95458349D01*
X159569750Y-95465581D01*
X159548926Y-95470797D01*
X159527691Y-95473947D01*
X159506250Y-95475000D01*
X158993750Y-95475000D01*
X158972309Y-95473947D01*
X158951074Y-95470797D01*
X158930250Y-95465581D01*
X158910038Y-95458349D01*
X158890632Y-95449170D01*
X158872219Y-95438134D01*
X158854976Y-95425346D01*
X158839070Y-95410930D01*
X158824654Y-95395024D01*
X158811866Y-95377781D01*
X158800830Y-95359368D01*
X158791651Y-95339962D01*
X158784419Y-95319750D01*
X158779203Y-95298926D01*
X158776053Y-95277691D01*
X158775000Y-95256250D01*
X158775000Y-94818750D01*
X158776053Y-94797309D01*
X158779203Y-94776074D01*
X158784419Y-94755250D01*
X158791651Y-94735038D01*
X158800830Y-94715632D01*
X158811866Y-94697219D01*
X158824654Y-94679976D01*
X158839070Y-94664070D01*
X158854976Y-94649654D01*
X158872219Y-94636866D01*
X158890632Y-94625830D01*
X158910038Y-94616651D01*
X158930250Y-94609419D01*
X158951074Y-94604203D01*
X158972309Y-94601053D01*
X158993750Y-94600000D01*
X159506250Y-94600000D01*
X159527691Y-94601053D01*
X159527691Y-94601053D01*
G37*
D14*
X159250000Y-95037500D03*
D13*
G36*
X159527691Y-93026053D02*
X159548926Y-93029203D01*
X159569750Y-93034419D01*
X159589962Y-93041651D01*
X159609368Y-93050830D01*
X159627781Y-93061866D01*
X159645024Y-93074654D01*
X159660930Y-93089070D01*
X159675346Y-93104976D01*
X159688134Y-93122219D01*
X159699170Y-93140632D01*
X159708349Y-93160038D01*
X159715581Y-93180250D01*
X159720797Y-93201074D01*
X159723947Y-93222309D01*
X159725000Y-93243750D01*
X159725000Y-93681250D01*
X159723947Y-93702691D01*
X159720797Y-93723926D01*
X159715581Y-93744750D01*
X159708349Y-93764962D01*
X159699170Y-93784368D01*
X159688134Y-93802781D01*
X159675346Y-93820024D01*
X159660930Y-93835930D01*
X159645024Y-93850346D01*
X159627781Y-93863134D01*
X159609368Y-93874170D01*
X159589962Y-93883349D01*
X159569750Y-93890581D01*
X159548926Y-93895797D01*
X159527691Y-93898947D01*
X159506250Y-93900000D01*
X158993750Y-93900000D01*
X158972309Y-93898947D01*
X158951074Y-93895797D01*
X158930250Y-93890581D01*
X158910038Y-93883349D01*
X158890632Y-93874170D01*
X158872219Y-93863134D01*
X158854976Y-93850346D01*
X158839070Y-93835930D01*
X158824654Y-93820024D01*
X158811866Y-93802781D01*
X158800830Y-93784368D01*
X158791651Y-93764962D01*
X158784419Y-93744750D01*
X158779203Y-93723926D01*
X158776053Y-93702691D01*
X158775000Y-93681250D01*
X158775000Y-93243750D01*
X158776053Y-93222309D01*
X158779203Y-93201074D01*
X158784419Y-93180250D01*
X158791651Y-93160038D01*
X158800830Y-93140632D01*
X158811866Y-93122219D01*
X158824654Y-93104976D01*
X158839070Y-93089070D01*
X158854976Y-93074654D01*
X158872219Y-93061866D01*
X158890632Y-93050830D01*
X158910038Y-93041651D01*
X158930250Y-93034419D01*
X158951074Y-93029203D01*
X158972309Y-93026053D01*
X158993750Y-93025000D01*
X159506250Y-93025000D01*
X159527691Y-93026053D01*
X159527691Y-93026053D01*
G37*
D14*
X159250000Y-93462500D03*
G04 #@! TD*
D13*
G04 #@! TO.C,R110*
G36*
X170527691Y-94601053D02*
X170548926Y-94604203D01*
X170569750Y-94609419D01*
X170589962Y-94616651D01*
X170609368Y-94625830D01*
X170627781Y-94636866D01*
X170645024Y-94649654D01*
X170660930Y-94664070D01*
X170675346Y-94679976D01*
X170688134Y-94697219D01*
X170699170Y-94715632D01*
X170708349Y-94735038D01*
X170715581Y-94755250D01*
X170720797Y-94776074D01*
X170723947Y-94797309D01*
X170725000Y-94818750D01*
X170725000Y-95256250D01*
X170723947Y-95277691D01*
X170720797Y-95298926D01*
X170715581Y-95319750D01*
X170708349Y-95339962D01*
X170699170Y-95359368D01*
X170688134Y-95377781D01*
X170675346Y-95395024D01*
X170660930Y-95410930D01*
X170645024Y-95425346D01*
X170627781Y-95438134D01*
X170609368Y-95449170D01*
X170589962Y-95458349D01*
X170569750Y-95465581D01*
X170548926Y-95470797D01*
X170527691Y-95473947D01*
X170506250Y-95475000D01*
X169993750Y-95475000D01*
X169972309Y-95473947D01*
X169951074Y-95470797D01*
X169930250Y-95465581D01*
X169910038Y-95458349D01*
X169890632Y-95449170D01*
X169872219Y-95438134D01*
X169854976Y-95425346D01*
X169839070Y-95410930D01*
X169824654Y-95395024D01*
X169811866Y-95377781D01*
X169800830Y-95359368D01*
X169791651Y-95339962D01*
X169784419Y-95319750D01*
X169779203Y-95298926D01*
X169776053Y-95277691D01*
X169775000Y-95256250D01*
X169775000Y-94818750D01*
X169776053Y-94797309D01*
X169779203Y-94776074D01*
X169784419Y-94755250D01*
X169791651Y-94735038D01*
X169800830Y-94715632D01*
X169811866Y-94697219D01*
X169824654Y-94679976D01*
X169839070Y-94664070D01*
X169854976Y-94649654D01*
X169872219Y-94636866D01*
X169890632Y-94625830D01*
X169910038Y-94616651D01*
X169930250Y-94609419D01*
X169951074Y-94604203D01*
X169972309Y-94601053D01*
X169993750Y-94600000D01*
X170506250Y-94600000D01*
X170527691Y-94601053D01*
X170527691Y-94601053D01*
G37*
D14*
X170250000Y-95037500D03*
D13*
G36*
X170527691Y-93026053D02*
X170548926Y-93029203D01*
X170569750Y-93034419D01*
X170589962Y-93041651D01*
X170609368Y-93050830D01*
X170627781Y-93061866D01*
X170645024Y-93074654D01*
X170660930Y-93089070D01*
X170675346Y-93104976D01*
X170688134Y-93122219D01*
X170699170Y-93140632D01*
X170708349Y-93160038D01*
X170715581Y-93180250D01*
X170720797Y-93201074D01*
X170723947Y-93222309D01*
X170725000Y-93243750D01*
X170725000Y-93681250D01*
X170723947Y-93702691D01*
X170720797Y-93723926D01*
X170715581Y-93744750D01*
X170708349Y-93764962D01*
X170699170Y-93784368D01*
X170688134Y-93802781D01*
X170675346Y-93820024D01*
X170660930Y-93835930D01*
X170645024Y-93850346D01*
X170627781Y-93863134D01*
X170609368Y-93874170D01*
X170589962Y-93883349D01*
X170569750Y-93890581D01*
X170548926Y-93895797D01*
X170527691Y-93898947D01*
X170506250Y-93900000D01*
X169993750Y-93900000D01*
X169972309Y-93898947D01*
X169951074Y-93895797D01*
X169930250Y-93890581D01*
X169910038Y-93883349D01*
X169890632Y-93874170D01*
X169872219Y-93863134D01*
X169854976Y-93850346D01*
X169839070Y-93835930D01*
X169824654Y-93820024D01*
X169811866Y-93802781D01*
X169800830Y-93784368D01*
X169791651Y-93764962D01*
X169784419Y-93744750D01*
X169779203Y-93723926D01*
X169776053Y-93702691D01*
X169775000Y-93681250D01*
X169775000Y-93243750D01*
X169776053Y-93222309D01*
X169779203Y-93201074D01*
X169784419Y-93180250D01*
X169791651Y-93160038D01*
X169800830Y-93140632D01*
X169811866Y-93122219D01*
X169824654Y-93104976D01*
X169839070Y-93089070D01*
X169854976Y-93074654D01*
X169872219Y-93061866D01*
X169890632Y-93050830D01*
X169910038Y-93041651D01*
X169930250Y-93034419D01*
X169951074Y-93029203D01*
X169972309Y-93026053D01*
X169993750Y-93025000D01*
X170506250Y-93025000D01*
X170527691Y-93026053D01*
X170527691Y-93026053D01*
G37*
D14*
X170250000Y-93462500D03*
G04 #@! TD*
D13*
G04 #@! TO.C,R111*
G36*
X172527691Y-93026053D02*
X172548926Y-93029203D01*
X172569750Y-93034419D01*
X172589962Y-93041651D01*
X172609368Y-93050830D01*
X172627781Y-93061866D01*
X172645024Y-93074654D01*
X172660930Y-93089070D01*
X172675346Y-93104976D01*
X172688134Y-93122219D01*
X172699170Y-93140632D01*
X172708349Y-93160038D01*
X172715581Y-93180250D01*
X172720797Y-93201074D01*
X172723947Y-93222309D01*
X172725000Y-93243750D01*
X172725000Y-93681250D01*
X172723947Y-93702691D01*
X172720797Y-93723926D01*
X172715581Y-93744750D01*
X172708349Y-93764962D01*
X172699170Y-93784368D01*
X172688134Y-93802781D01*
X172675346Y-93820024D01*
X172660930Y-93835930D01*
X172645024Y-93850346D01*
X172627781Y-93863134D01*
X172609368Y-93874170D01*
X172589962Y-93883349D01*
X172569750Y-93890581D01*
X172548926Y-93895797D01*
X172527691Y-93898947D01*
X172506250Y-93900000D01*
X171993750Y-93900000D01*
X171972309Y-93898947D01*
X171951074Y-93895797D01*
X171930250Y-93890581D01*
X171910038Y-93883349D01*
X171890632Y-93874170D01*
X171872219Y-93863134D01*
X171854976Y-93850346D01*
X171839070Y-93835930D01*
X171824654Y-93820024D01*
X171811866Y-93802781D01*
X171800830Y-93784368D01*
X171791651Y-93764962D01*
X171784419Y-93744750D01*
X171779203Y-93723926D01*
X171776053Y-93702691D01*
X171775000Y-93681250D01*
X171775000Y-93243750D01*
X171776053Y-93222309D01*
X171779203Y-93201074D01*
X171784419Y-93180250D01*
X171791651Y-93160038D01*
X171800830Y-93140632D01*
X171811866Y-93122219D01*
X171824654Y-93104976D01*
X171839070Y-93089070D01*
X171854976Y-93074654D01*
X171872219Y-93061866D01*
X171890632Y-93050830D01*
X171910038Y-93041651D01*
X171930250Y-93034419D01*
X171951074Y-93029203D01*
X171972309Y-93026053D01*
X171993750Y-93025000D01*
X172506250Y-93025000D01*
X172527691Y-93026053D01*
X172527691Y-93026053D01*
G37*
D14*
X172250000Y-93462500D03*
D13*
G36*
X172527691Y-94601053D02*
X172548926Y-94604203D01*
X172569750Y-94609419D01*
X172589962Y-94616651D01*
X172609368Y-94625830D01*
X172627781Y-94636866D01*
X172645024Y-94649654D01*
X172660930Y-94664070D01*
X172675346Y-94679976D01*
X172688134Y-94697219D01*
X172699170Y-94715632D01*
X172708349Y-94735038D01*
X172715581Y-94755250D01*
X172720797Y-94776074D01*
X172723947Y-94797309D01*
X172725000Y-94818750D01*
X172725000Y-95256250D01*
X172723947Y-95277691D01*
X172720797Y-95298926D01*
X172715581Y-95319750D01*
X172708349Y-95339962D01*
X172699170Y-95359368D01*
X172688134Y-95377781D01*
X172675346Y-95395024D01*
X172660930Y-95410930D01*
X172645024Y-95425346D01*
X172627781Y-95438134D01*
X172609368Y-95449170D01*
X172589962Y-95458349D01*
X172569750Y-95465581D01*
X172548926Y-95470797D01*
X172527691Y-95473947D01*
X172506250Y-95475000D01*
X171993750Y-95475000D01*
X171972309Y-95473947D01*
X171951074Y-95470797D01*
X171930250Y-95465581D01*
X171910038Y-95458349D01*
X171890632Y-95449170D01*
X171872219Y-95438134D01*
X171854976Y-95425346D01*
X171839070Y-95410930D01*
X171824654Y-95395024D01*
X171811866Y-95377781D01*
X171800830Y-95359368D01*
X171791651Y-95339962D01*
X171784419Y-95319750D01*
X171779203Y-95298926D01*
X171776053Y-95277691D01*
X171775000Y-95256250D01*
X171775000Y-94818750D01*
X171776053Y-94797309D01*
X171779203Y-94776074D01*
X171784419Y-94755250D01*
X171791651Y-94735038D01*
X171800830Y-94715632D01*
X171811866Y-94697219D01*
X171824654Y-94679976D01*
X171839070Y-94664070D01*
X171854976Y-94649654D01*
X171872219Y-94636866D01*
X171890632Y-94625830D01*
X171910038Y-94616651D01*
X171930250Y-94609419D01*
X171951074Y-94604203D01*
X171972309Y-94601053D01*
X171993750Y-94600000D01*
X172506250Y-94600000D01*
X172527691Y-94601053D01*
X172527691Y-94601053D01*
G37*
D14*
X172250000Y-95037500D03*
G04 #@! TD*
D13*
G04 #@! TO.C,R112*
G36*
X174527691Y-94601053D02*
X174548926Y-94604203D01*
X174569750Y-94609419D01*
X174589962Y-94616651D01*
X174609368Y-94625830D01*
X174627781Y-94636866D01*
X174645024Y-94649654D01*
X174660930Y-94664070D01*
X174675346Y-94679976D01*
X174688134Y-94697219D01*
X174699170Y-94715632D01*
X174708349Y-94735038D01*
X174715581Y-94755250D01*
X174720797Y-94776074D01*
X174723947Y-94797309D01*
X174725000Y-94818750D01*
X174725000Y-95256250D01*
X174723947Y-95277691D01*
X174720797Y-95298926D01*
X174715581Y-95319750D01*
X174708349Y-95339962D01*
X174699170Y-95359368D01*
X174688134Y-95377781D01*
X174675346Y-95395024D01*
X174660930Y-95410930D01*
X174645024Y-95425346D01*
X174627781Y-95438134D01*
X174609368Y-95449170D01*
X174589962Y-95458349D01*
X174569750Y-95465581D01*
X174548926Y-95470797D01*
X174527691Y-95473947D01*
X174506250Y-95475000D01*
X173993750Y-95475000D01*
X173972309Y-95473947D01*
X173951074Y-95470797D01*
X173930250Y-95465581D01*
X173910038Y-95458349D01*
X173890632Y-95449170D01*
X173872219Y-95438134D01*
X173854976Y-95425346D01*
X173839070Y-95410930D01*
X173824654Y-95395024D01*
X173811866Y-95377781D01*
X173800830Y-95359368D01*
X173791651Y-95339962D01*
X173784419Y-95319750D01*
X173779203Y-95298926D01*
X173776053Y-95277691D01*
X173775000Y-95256250D01*
X173775000Y-94818750D01*
X173776053Y-94797309D01*
X173779203Y-94776074D01*
X173784419Y-94755250D01*
X173791651Y-94735038D01*
X173800830Y-94715632D01*
X173811866Y-94697219D01*
X173824654Y-94679976D01*
X173839070Y-94664070D01*
X173854976Y-94649654D01*
X173872219Y-94636866D01*
X173890632Y-94625830D01*
X173910038Y-94616651D01*
X173930250Y-94609419D01*
X173951074Y-94604203D01*
X173972309Y-94601053D01*
X173993750Y-94600000D01*
X174506250Y-94600000D01*
X174527691Y-94601053D01*
X174527691Y-94601053D01*
G37*
D14*
X174250000Y-95037500D03*
D13*
G36*
X174527691Y-93026053D02*
X174548926Y-93029203D01*
X174569750Y-93034419D01*
X174589962Y-93041651D01*
X174609368Y-93050830D01*
X174627781Y-93061866D01*
X174645024Y-93074654D01*
X174660930Y-93089070D01*
X174675346Y-93104976D01*
X174688134Y-93122219D01*
X174699170Y-93140632D01*
X174708349Y-93160038D01*
X174715581Y-93180250D01*
X174720797Y-93201074D01*
X174723947Y-93222309D01*
X174725000Y-93243750D01*
X174725000Y-93681250D01*
X174723947Y-93702691D01*
X174720797Y-93723926D01*
X174715581Y-93744750D01*
X174708349Y-93764962D01*
X174699170Y-93784368D01*
X174688134Y-93802781D01*
X174675346Y-93820024D01*
X174660930Y-93835930D01*
X174645024Y-93850346D01*
X174627781Y-93863134D01*
X174609368Y-93874170D01*
X174589962Y-93883349D01*
X174569750Y-93890581D01*
X174548926Y-93895797D01*
X174527691Y-93898947D01*
X174506250Y-93900000D01*
X173993750Y-93900000D01*
X173972309Y-93898947D01*
X173951074Y-93895797D01*
X173930250Y-93890581D01*
X173910038Y-93883349D01*
X173890632Y-93874170D01*
X173872219Y-93863134D01*
X173854976Y-93850346D01*
X173839070Y-93835930D01*
X173824654Y-93820024D01*
X173811866Y-93802781D01*
X173800830Y-93784368D01*
X173791651Y-93764962D01*
X173784419Y-93744750D01*
X173779203Y-93723926D01*
X173776053Y-93702691D01*
X173775000Y-93681250D01*
X173775000Y-93243750D01*
X173776053Y-93222309D01*
X173779203Y-93201074D01*
X173784419Y-93180250D01*
X173791651Y-93160038D01*
X173800830Y-93140632D01*
X173811866Y-93122219D01*
X173824654Y-93104976D01*
X173839070Y-93089070D01*
X173854976Y-93074654D01*
X173872219Y-93061866D01*
X173890632Y-93050830D01*
X173910038Y-93041651D01*
X173930250Y-93034419D01*
X173951074Y-93029203D01*
X173972309Y-93026053D01*
X173993750Y-93025000D01*
X174506250Y-93025000D01*
X174527691Y-93026053D01*
X174527691Y-93026053D01*
G37*
D14*
X174250000Y-93462500D03*
G04 #@! TD*
D13*
G04 #@! TO.C,R113*
G36*
X185527691Y-93026053D02*
X185548926Y-93029203D01*
X185569750Y-93034419D01*
X185589962Y-93041651D01*
X185609368Y-93050830D01*
X185627781Y-93061866D01*
X185645024Y-93074654D01*
X185660930Y-93089070D01*
X185675346Y-93104976D01*
X185688134Y-93122219D01*
X185699170Y-93140632D01*
X185708349Y-93160038D01*
X185715581Y-93180250D01*
X185720797Y-93201074D01*
X185723947Y-93222309D01*
X185725000Y-93243750D01*
X185725000Y-93681250D01*
X185723947Y-93702691D01*
X185720797Y-93723926D01*
X185715581Y-93744750D01*
X185708349Y-93764962D01*
X185699170Y-93784368D01*
X185688134Y-93802781D01*
X185675346Y-93820024D01*
X185660930Y-93835930D01*
X185645024Y-93850346D01*
X185627781Y-93863134D01*
X185609368Y-93874170D01*
X185589962Y-93883349D01*
X185569750Y-93890581D01*
X185548926Y-93895797D01*
X185527691Y-93898947D01*
X185506250Y-93900000D01*
X184993750Y-93900000D01*
X184972309Y-93898947D01*
X184951074Y-93895797D01*
X184930250Y-93890581D01*
X184910038Y-93883349D01*
X184890632Y-93874170D01*
X184872219Y-93863134D01*
X184854976Y-93850346D01*
X184839070Y-93835930D01*
X184824654Y-93820024D01*
X184811866Y-93802781D01*
X184800830Y-93784368D01*
X184791651Y-93764962D01*
X184784419Y-93744750D01*
X184779203Y-93723926D01*
X184776053Y-93702691D01*
X184775000Y-93681250D01*
X184775000Y-93243750D01*
X184776053Y-93222309D01*
X184779203Y-93201074D01*
X184784419Y-93180250D01*
X184791651Y-93160038D01*
X184800830Y-93140632D01*
X184811866Y-93122219D01*
X184824654Y-93104976D01*
X184839070Y-93089070D01*
X184854976Y-93074654D01*
X184872219Y-93061866D01*
X184890632Y-93050830D01*
X184910038Y-93041651D01*
X184930250Y-93034419D01*
X184951074Y-93029203D01*
X184972309Y-93026053D01*
X184993750Y-93025000D01*
X185506250Y-93025000D01*
X185527691Y-93026053D01*
X185527691Y-93026053D01*
G37*
D14*
X185250000Y-93462500D03*
D13*
G36*
X185527691Y-94601053D02*
X185548926Y-94604203D01*
X185569750Y-94609419D01*
X185589962Y-94616651D01*
X185609368Y-94625830D01*
X185627781Y-94636866D01*
X185645024Y-94649654D01*
X185660930Y-94664070D01*
X185675346Y-94679976D01*
X185688134Y-94697219D01*
X185699170Y-94715632D01*
X185708349Y-94735038D01*
X185715581Y-94755250D01*
X185720797Y-94776074D01*
X185723947Y-94797309D01*
X185725000Y-94818750D01*
X185725000Y-95256250D01*
X185723947Y-95277691D01*
X185720797Y-95298926D01*
X185715581Y-95319750D01*
X185708349Y-95339962D01*
X185699170Y-95359368D01*
X185688134Y-95377781D01*
X185675346Y-95395024D01*
X185660930Y-95410930D01*
X185645024Y-95425346D01*
X185627781Y-95438134D01*
X185609368Y-95449170D01*
X185589962Y-95458349D01*
X185569750Y-95465581D01*
X185548926Y-95470797D01*
X185527691Y-95473947D01*
X185506250Y-95475000D01*
X184993750Y-95475000D01*
X184972309Y-95473947D01*
X184951074Y-95470797D01*
X184930250Y-95465581D01*
X184910038Y-95458349D01*
X184890632Y-95449170D01*
X184872219Y-95438134D01*
X184854976Y-95425346D01*
X184839070Y-95410930D01*
X184824654Y-95395024D01*
X184811866Y-95377781D01*
X184800830Y-95359368D01*
X184791651Y-95339962D01*
X184784419Y-95319750D01*
X184779203Y-95298926D01*
X184776053Y-95277691D01*
X184775000Y-95256250D01*
X184775000Y-94818750D01*
X184776053Y-94797309D01*
X184779203Y-94776074D01*
X184784419Y-94755250D01*
X184791651Y-94735038D01*
X184800830Y-94715632D01*
X184811866Y-94697219D01*
X184824654Y-94679976D01*
X184839070Y-94664070D01*
X184854976Y-94649654D01*
X184872219Y-94636866D01*
X184890632Y-94625830D01*
X184910038Y-94616651D01*
X184930250Y-94609419D01*
X184951074Y-94604203D01*
X184972309Y-94601053D01*
X184993750Y-94600000D01*
X185506250Y-94600000D01*
X185527691Y-94601053D01*
X185527691Y-94601053D01*
G37*
D14*
X185250000Y-95037500D03*
G04 #@! TD*
D13*
G04 #@! TO.C,R114*
G36*
X187527691Y-94601053D02*
X187548926Y-94604203D01*
X187569750Y-94609419D01*
X187589962Y-94616651D01*
X187609368Y-94625830D01*
X187627781Y-94636866D01*
X187645024Y-94649654D01*
X187660930Y-94664070D01*
X187675346Y-94679976D01*
X187688134Y-94697219D01*
X187699170Y-94715632D01*
X187708349Y-94735038D01*
X187715581Y-94755250D01*
X187720797Y-94776074D01*
X187723947Y-94797309D01*
X187725000Y-94818750D01*
X187725000Y-95256250D01*
X187723947Y-95277691D01*
X187720797Y-95298926D01*
X187715581Y-95319750D01*
X187708349Y-95339962D01*
X187699170Y-95359368D01*
X187688134Y-95377781D01*
X187675346Y-95395024D01*
X187660930Y-95410930D01*
X187645024Y-95425346D01*
X187627781Y-95438134D01*
X187609368Y-95449170D01*
X187589962Y-95458349D01*
X187569750Y-95465581D01*
X187548926Y-95470797D01*
X187527691Y-95473947D01*
X187506250Y-95475000D01*
X186993750Y-95475000D01*
X186972309Y-95473947D01*
X186951074Y-95470797D01*
X186930250Y-95465581D01*
X186910038Y-95458349D01*
X186890632Y-95449170D01*
X186872219Y-95438134D01*
X186854976Y-95425346D01*
X186839070Y-95410930D01*
X186824654Y-95395024D01*
X186811866Y-95377781D01*
X186800830Y-95359368D01*
X186791651Y-95339962D01*
X186784419Y-95319750D01*
X186779203Y-95298926D01*
X186776053Y-95277691D01*
X186775000Y-95256250D01*
X186775000Y-94818750D01*
X186776053Y-94797309D01*
X186779203Y-94776074D01*
X186784419Y-94755250D01*
X186791651Y-94735038D01*
X186800830Y-94715632D01*
X186811866Y-94697219D01*
X186824654Y-94679976D01*
X186839070Y-94664070D01*
X186854976Y-94649654D01*
X186872219Y-94636866D01*
X186890632Y-94625830D01*
X186910038Y-94616651D01*
X186930250Y-94609419D01*
X186951074Y-94604203D01*
X186972309Y-94601053D01*
X186993750Y-94600000D01*
X187506250Y-94600000D01*
X187527691Y-94601053D01*
X187527691Y-94601053D01*
G37*
D14*
X187250000Y-95037500D03*
D13*
G36*
X187527691Y-93026053D02*
X187548926Y-93029203D01*
X187569750Y-93034419D01*
X187589962Y-93041651D01*
X187609368Y-93050830D01*
X187627781Y-93061866D01*
X187645024Y-93074654D01*
X187660930Y-93089070D01*
X187675346Y-93104976D01*
X187688134Y-93122219D01*
X187699170Y-93140632D01*
X187708349Y-93160038D01*
X187715581Y-93180250D01*
X187720797Y-93201074D01*
X187723947Y-93222309D01*
X187725000Y-93243750D01*
X187725000Y-93681250D01*
X187723947Y-93702691D01*
X187720797Y-93723926D01*
X187715581Y-93744750D01*
X187708349Y-93764962D01*
X187699170Y-93784368D01*
X187688134Y-93802781D01*
X187675346Y-93820024D01*
X187660930Y-93835930D01*
X187645024Y-93850346D01*
X187627781Y-93863134D01*
X187609368Y-93874170D01*
X187589962Y-93883349D01*
X187569750Y-93890581D01*
X187548926Y-93895797D01*
X187527691Y-93898947D01*
X187506250Y-93900000D01*
X186993750Y-93900000D01*
X186972309Y-93898947D01*
X186951074Y-93895797D01*
X186930250Y-93890581D01*
X186910038Y-93883349D01*
X186890632Y-93874170D01*
X186872219Y-93863134D01*
X186854976Y-93850346D01*
X186839070Y-93835930D01*
X186824654Y-93820024D01*
X186811866Y-93802781D01*
X186800830Y-93784368D01*
X186791651Y-93764962D01*
X186784419Y-93744750D01*
X186779203Y-93723926D01*
X186776053Y-93702691D01*
X186775000Y-93681250D01*
X186775000Y-93243750D01*
X186776053Y-93222309D01*
X186779203Y-93201074D01*
X186784419Y-93180250D01*
X186791651Y-93160038D01*
X186800830Y-93140632D01*
X186811866Y-93122219D01*
X186824654Y-93104976D01*
X186839070Y-93089070D01*
X186854976Y-93074654D01*
X186872219Y-93061866D01*
X186890632Y-93050830D01*
X186910038Y-93041651D01*
X186930250Y-93034419D01*
X186951074Y-93029203D01*
X186972309Y-93026053D01*
X186993750Y-93025000D01*
X187506250Y-93025000D01*
X187527691Y-93026053D01*
X187527691Y-93026053D01*
G37*
D14*
X187250000Y-93462500D03*
G04 #@! TD*
D13*
G04 #@! TO.C,R115*
G36*
X189527691Y-93026053D02*
X189548926Y-93029203D01*
X189569750Y-93034419D01*
X189589962Y-93041651D01*
X189609368Y-93050830D01*
X189627781Y-93061866D01*
X189645024Y-93074654D01*
X189660930Y-93089070D01*
X189675346Y-93104976D01*
X189688134Y-93122219D01*
X189699170Y-93140632D01*
X189708349Y-93160038D01*
X189715581Y-93180250D01*
X189720797Y-93201074D01*
X189723947Y-93222309D01*
X189725000Y-93243750D01*
X189725000Y-93681250D01*
X189723947Y-93702691D01*
X189720797Y-93723926D01*
X189715581Y-93744750D01*
X189708349Y-93764962D01*
X189699170Y-93784368D01*
X189688134Y-93802781D01*
X189675346Y-93820024D01*
X189660930Y-93835930D01*
X189645024Y-93850346D01*
X189627781Y-93863134D01*
X189609368Y-93874170D01*
X189589962Y-93883349D01*
X189569750Y-93890581D01*
X189548926Y-93895797D01*
X189527691Y-93898947D01*
X189506250Y-93900000D01*
X188993750Y-93900000D01*
X188972309Y-93898947D01*
X188951074Y-93895797D01*
X188930250Y-93890581D01*
X188910038Y-93883349D01*
X188890632Y-93874170D01*
X188872219Y-93863134D01*
X188854976Y-93850346D01*
X188839070Y-93835930D01*
X188824654Y-93820024D01*
X188811866Y-93802781D01*
X188800830Y-93784368D01*
X188791651Y-93764962D01*
X188784419Y-93744750D01*
X188779203Y-93723926D01*
X188776053Y-93702691D01*
X188775000Y-93681250D01*
X188775000Y-93243750D01*
X188776053Y-93222309D01*
X188779203Y-93201074D01*
X188784419Y-93180250D01*
X188791651Y-93160038D01*
X188800830Y-93140632D01*
X188811866Y-93122219D01*
X188824654Y-93104976D01*
X188839070Y-93089070D01*
X188854976Y-93074654D01*
X188872219Y-93061866D01*
X188890632Y-93050830D01*
X188910038Y-93041651D01*
X188930250Y-93034419D01*
X188951074Y-93029203D01*
X188972309Y-93026053D01*
X188993750Y-93025000D01*
X189506250Y-93025000D01*
X189527691Y-93026053D01*
X189527691Y-93026053D01*
G37*
D14*
X189250000Y-93462500D03*
D13*
G36*
X189527691Y-94601053D02*
X189548926Y-94604203D01*
X189569750Y-94609419D01*
X189589962Y-94616651D01*
X189609368Y-94625830D01*
X189627781Y-94636866D01*
X189645024Y-94649654D01*
X189660930Y-94664070D01*
X189675346Y-94679976D01*
X189688134Y-94697219D01*
X189699170Y-94715632D01*
X189708349Y-94735038D01*
X189715581Y-94755250D01*
X189720797Y-94776074D01*
X189723947Y-94797309D01*
X189725000Y-94818750D01*
X189725000Y-95256250D01*
X189723947Y-95277691D01*
X189720797Y-95298926D01*
X189715581Y-95319750D01*
X189708349Y-95339962D01*
X189699170Y-95359368D01*
X189688134Y-95377781D01*
X189675346Y-95395024D01*
X189660930Y-95410930D01*
X189645024Y-95425346D01*
X189627781Y-95438134D01*
X189609368Y-95449170D01*
X189589962Y-95458349D01*
X189569750Y-95465581D01*
X189548926Y-95470797D01*
X189527691Y-95473947D01*
X189506250Y-95475000D01*
X188993750Y-95475000D01*
X188972309Y-95473947D01*
X188951074Y-95470797D01*
X188930250Y-95465581D01*
X188910038Y-95458349D01*
X188890632Y-95449170D01*
X188872219Y-95438134D01*
X188854976Y-95425346D01*
X188839070Y-95410930D01*
X188824654Y-95395024D01*
X188811866Y-95377781D01*
X188800830Y-95359368D01*
X188791651Y-95339962D01*
X188784419Y-95319750D01*
X188779203Y-95298926D01*
X188776053Y-95277691D01*
X188775000Y-95256250D01*
X188775000Y-94818750D01*
X188776053Y-94797309D01*
X188779203Y-94776074D01*
X188784419Y-94755250D01*
X188791651Y-94735038D01*
X188800830Y-94715632D01*
X188811866Y-94697219D01*
X188824654Y-94679976D01*
X188839070Y-94664070D01*
X188854976Y-94649654D01*
X188872219Y-94636866D01*
X188890632Y-94625830D01*
X188910038Y-94616651D01*
X188930250Y-94609419D01*
X188951074Y-94604203D01*
X188972309Y-94601053D01*
X188993750Y-94600000D01*
X189506250Y-94600000D01*
X189527691Y-94601053D01*
X189527691Y-94601053D01*
G37*
D14*
X189250000Y-95037500D03*
G04 #@! TD*
D13*
G04 #@! TO.C,R116*
G36*
X191527691Y-94601053D02*
X191548926Y-94604203D01*
X191569750Y-94609419D01*
X191589962Y-94616651D01*
X191609368Y-94625830D01*
X191627781Y-94636866D01*
X191645024Y-94649654D01*
X191660930Y-94664070D01*
X191675346Y-94679976D01*
X191688134Y-94697219D01*
X191699170Y-94715632D01*
X191708349Y-94735038D01*
X191715581Y-94755250D01*
X191720797Y-94776074D01*
X191723947Y-94797309D01*
X191725000Y-94818750D01*
X191725000Y-95256250D01*
X191723947Y-95277691D01*
X191720797Y-95298926D01*
X191715581Y-95319750D01*
X191708349Y-95339962D01*
X191699170Y-95359368D01*
X191688134Y-95377781D01*
X191675346Y-95395024D01*
X191660930Y-95410930D01*
X191645024Y-95425346D01*
X191627781Y-95438134D01*
X191609368Y-95449170D01*
X191589962Y-95458349D01*
X191569750Y-95465581D01*
X191548926Y-95470797D01*
X191527691Y-95473947D01*
X191506250Y-95475000D01*
X190993750Y-95475000D01*
X190972309Y-95473947D01*
X190951074Y-95470797D01*
X190930250Y-95465581D01*
X190910038Y-95458349D01*
X190890632Y-95449170D01*
X190872219Y-95438134D01*
X190854976Y-95425346D01*
X190839070Y-95410930D01*
X190824654Y-95395024D01*
X190811866Y-95377781D01*
X190800830Y-95359368D01*
X190791651Y-95339962D01*
X190784419Y-95319750D01*
X190779203Y-95298926D01*
X190776053Y-95277691D01*
X190775000Y-95256250D01*
X190775000Y-94818750D01*
X190776053Y-94797309D01*
X190779203Y-94776074D01*
X190784419Y-94755250D01*
X190791651Y-94735038D01*
X190800830Y-94715632D01*
X190811866Y-94697219D01*
X190824654Y-94679976D01*
X190839070Y-94664070D01*
X190854976Y-94649654D01*
X190872219Y-94636866D01*
X190890632Y-94625830D01*
X190910038Y-94616651D01*
X190930250Y-94609419D01*
X190951074Y-94604203D01*
X190972309Y-94601053D01*
X190993750Y-94600000D01*
X191506250Y-94600000D01*
X191527691Y-94601053D01*
X191527691Y-94601053D01*
G37*
D14*
X191250000Y-95037500D03*
D13*
G36*
X191527691Y-93026053D02*
X191548926Y-93029203D01*
X191569750Y-93034419D01*
X191589962Y-93041651D01*
X191609368Y-93050830D01*
X191627781Y-93061866D01*
X191645024Y-93074654D01*
X191660930Y-93089070D01*
X191675346Y-93104976D01*
X191688134Y-93122219D01*
X191699170Y-93140632D01*
X191708349Y-93160038D01*
X191715581Y-93180250D01*
X191720797Y-93201074D01*
X191723947Y-93222309D01*
X191725000Y-93243750D01*
X191725000Y-93681250D01*
X191723947Y-93702691D01*
X191720797Y-93723926D01*
X191715581Y-93744750D01*
X191708349Y-93764962D01*
X191699170Y-93784368D01*
X191688134Y-93802781D01*
X191675346Y-93820024D01*
X191660930Y-93835930D01*
X191645024Y-93850346D01*
X191627781Y-93863134D01*
X191609368Y-93874170D01*
X191589962Y-93883349D01*
X191569750Y-93890581D01*
X191548926Y-93895797D01*
X191527691Y-93898947D01*
X191506250Y-93900000D01*
X190993750Y-93900000D01*
X190972309Y-93898947D01*
X190951074Y-93895797D01*
X190930250Y-93890581D01*
X190910038Y-93883349D01*
X190890632Y-93874170D01*
X190872219Y-93863134D01*
X190854976Y-93850346D01*
X190839070Y-93835930D01*
X190824654Y-93820024D01*
X190811866Y-93802781D01*
X190800830Y-93784368D01*
X190791651Y-93764962D01*
X190784419Y-93744750D01*
X190779203Y-93723926D01*
X190776053Y-93702691D01*
X190775000Y-93681250D01*
X190775000Y-93243750D01*
X190776053Y-93222309D01*
X190779203Y-93201074D01*
X190784419Y-93180250D01*
X190791651Y-93160038D01*
X190800830Y-93140632D01*
X190811866Y-93122219D01*
X190824654Y-93104976D01*
X190839070Y-93089070D01*
X190854976Y-93074654D01*
X190872219Y-93061866D01*
X190890632Y-93050830D01*
X190910038Y-93041651D01*
X190930250Y-93034419D01*
X190951074Y-93029203D01*
X190972309Y-93026053D01*
X190993750Y-93025000D01*
X191506250Y-93025000D01*
X191527691Y-93026053D01*
X191527691Y-93026053D01*
G37*
D14*
X191250000Y-93462500D03*
G04 #@! TD*
D13*
G04 #@! TO.C,R117*
G36*
X193527691Y-93026053D02*
X193548926Y-93029203D01*
X193569750Y-93034419D01*
X193589962Y-93041651D01*
X193609368Y-93050830D01*
X193627781Y-93061866D01*
X193645024Y-93074654D01*
X193660930Y-93089070D01*
X193675346Y-93104976D01*
X193688134Y-93122219D01*
X193699170Y-93140632D01*
X193708349Y-93160038D01*
X193715581Y-93180250D01*
X193720797Y-93201074D01*
X193723947Y-93222309D01*
X193725000Y-93243750D01*
X193725000Y-93681250D01*
X193723947Y-93702691D01*
X193720797Y-93723926D01*
X193715581Y-93744750D01*
X193708349Y-93764962D01*
X193699170Y-93784368D01*
X193688134Y-93802781D01*
X193675346Y-93820024D01*
X193660930Y-93835930D01*
X193645024Y-93850346D01*
X193627781Y-93863134D01*
X193609368Y-93874170D01*
X193589962Y-93883349D01*
X193569750Y-93890581D01*
X193548926Y-93895797D01*
X193527691Y-93898947D01*
X193506250Y-93900000D01*
X192993750Y-93900000D01*
X192972309Y-93898947D01*
X192951074Y-93895797D01*
X192930250Y-93890581D01*
X192910038Y-93883349D01*
X192890632Y-93874170D01*
X192872219Y-93863134D01*
X192854976Y-93850346D01*
X192839070Y-93835930D01*
X192824654Y-93820024D01*
X192811866Y-93802781D01*
X192800830Y-93784368D01*
X192791651Y-93764962D01*
X192784419Y-93744750D01*
X192779203Y-93723926D01*
X192776053Y-93702691D01*
X192775000Y-93681250D01*
X192775000Y-93243750D01*
X192776053Y-93222309D01*
X192779203Y-93201074D01*
X192784419Y-93180250D01*
X192791651Y-93160038D01*
X192800830Y-93140632D01*
X192811866Y-93122219D01*
X192824654Y-93104976D01*
X192839070Y-93089070D01*
X192854976Y-93074654D01*
X192872219Y-93061866D01*
X192890632Y-93050830D01*
X192910038Y-93041651D01*
X192930250Y-93034419D01*
X192951074Y-93029203D01*
X192972309Y-93026053D01*
X192993750Y-93025000D01*
X193506250Y-93025000D01*
X193527691Y-93026053D01*
X193527691Y-93026053D01*
G37*
D14*
X193250000Y-93462500D03*
D13*
G36*
X193527691Y-94601053D02*
X193548926Y-94604203D01*
X193569750Y-94609419D01*
X193589962Y-94616651D01*
X193609368Y-94625830D01*
X193627781Y-94636866D01*
X193645024Y-94649654D01*
X193660930Y-94664070D01*
X193675346Y-94679976D01*
X193688134Y-94697219D01*
X193699170Y-94715632D01*
X193708349Y-94735038D01*
X193715581Y-94755250D01*
X193720797Y-94776074D01*
X193723947Y-94797309D01*
X193725000Y-94818750D01*
X193725000Y-95256250D01*
X193723947Y-95277691D01*
X193720797Y-95298926D01*
X193715581Y-95319750D01*
X193708349Y-95339962D01*
X193699170Y-95359368D01*
X193688134Y-95377781D01*
X193675346Y-95395024D01*
X193660930Y-95410930D01*
X193645024Y-95425346D01*
X193627781Y-95438134D01*
X193609368Y-95449170D01*
X193589962Y-95458349D01*
X193569750Y-95465581D01*
X193548926Y-95470797D01*
X193527691Y-95473947D01*
X193506250Y-95475000D01*
X192993750Y-95475000D01*
X192972309Y-95473947D01*
X192951074Y-95470797D01*
X192930250Y-95465581D01*
X192910038Y-95458349D01*
X192890632Y-95449170D01*
X192872219Y-95438134D01*
X192854976Y-95425346D01*
X192839070Y-95410930D01*
X192824654Y-95395024D01*
X192811866Y-95377781D01*
X192800830Y-95359368D01*
X192791651Y-95339962D01*
X192784419Y-95319750D01*
X192779203Y-95298926D01*
X192776053Y-95277691D01*
X192775000Y-95256250D01*
X192775000Y-94818750D01*
X192776053Y-94797309D01*
X192779203Y-94776074D01*
X192784419Y-94755250D01*
X192791651Y-94735038D01*
X192800830Y-94715632D01*
X192811866Y-94697219D01*
X192824654Y-94679976D01*
X192839070Y-94664070D01*
X192854976Y-94649654D01*
X192872219Y-94636866D01*
X192890632Y-94625830D01*
X192910038Y-94616651D01*
X192930250Y-94609419D01*
X192951074Y-94604203D01*
X192972309Y-94601053D01*
X192993750Y-94600000D01*
X193506250Y-94600000D01*
X193527691Y-94601053D01*
X193527691Y-94601053D01*
G37*
D14*
X193250000Y-95037500D03*
G04 #@! TD*
D13*
G04 #@! TO.C,C7*
G36*
X169854805Y-117253274D02*
X169876040Y-117256424D01*
X169896864Y-117261640D01*
X169917076Y-117268872D01*
X169936482Y-117278051D01*
X169954895Y-117289087D01*
X169972138Y-117301875D01*
X169988044Y-117316291D01*
X170297403Y-117625650D01*
X170311819Y-117641556D01*
X170324607Y-117658799D01*
X170335643Y-117677212D01*
X170344822Y-117696618D01*
X170352054Y-117716830D01*
X170357270Y-117737654D01*
X170360420Y-117758889D01*
X170361473Y-117780330D01*
X170360420Y-117801771D01*
X170357270Y-117823006D01*
X170352054Y-117843830D01*
X170344822Y-117864042D01*
X170335643Y-117883448D01*
X170324607Y-117901861D01*
X170311819Y-117919104D01*
X170297403Y-117935010D01*
X169935010Y-118297403D01*
X169919104Y-118311819D01*
X169901861Y-118324607D01*
X169883448Y-118335643D01*
X169864042Y-118344822D01*
X169843830Y-118352054D01*
X169823006Y-118357270D01*
X169801771Y-118360420D01*
X169780330Y-118361473D01*
X169758889Y-118360420D01*
X169737654Y-118357270D01*
X169716830Y-118352054D01*
X169696618Y-118344822D01*
X169677212Y-118335643D01*
X169658799Y-118324607D01*
X169641556Y-118311819D01*
X169625650Y-118297403D01*
X169316291Y-117988044D01*
X169301875Y-117972138D01*
X169289087Y-117954895D01*
X169278051Y-117936482D01*
X169268872Y-117917076D01*
X169261640Y-117896864D01*
X169256424Y-117876040D01*
X169253274Y-117854805D01*
X169252221Y-117833364D01*
X169253274Y-117811923D01*
X169256424Y-117790688D01*
X169261640Y-117769864D01*
X169268872Y-117749652D01*
X169278051Y-117730246D01*
X169289087Y-117711833D01*
X169301875Y-117694590D01*
X169316291Y-117678684D01*
X169678684Y-117316291D01*
X169694590Y-117301875D01*
X169711833Y-117289087D01*
X169730246Y-117278051D01*
X169749652Y-117268872D01*
X169769864Y-117261640D01*
X169790688Y-117256424D01*
X169811923Y-117253274D01*
X169833364Y-117252221D01*
X169854805Y-117253274D01*
X169854805Y-117253274D01*
G37*
D14*
X169806847Y-117806847D03*
D13*
G36*
X168741111Y-116139580D02*
X168762346Y-116142730D01*
X168783170Y-116147946D01*
X168803382Y-116155178D01*
X168822788Y-116164357D01*
X168841201Y-116175393D01*
X168858444Y-116188181D01*
X168874350Y-116202597D01*
X169183709Y-116511956D01*
X169198125Y-116527862D01*
X169210913Y-116545105D01*
X169221949Y-116563518D01*
X169231128Y-116582924D01*
X169238360Y-116603136D01*
X169243576Y-116623960D01*
X169246726Y-116645195D01*
X169247779Y-116666636D01*
X169246726Y-116688077D01*
X169243576Y-116709312D01*
X169238360Y-116730136D01*
X169231128Y-116750348D01*
X169221949Y-116769754D01*
X169210913Y-116788167D01*
X169198125Y-116805410D01*
X169183709Y-116821316D01*
X168821316Y-117183709D01*
X168805410Y-117198125D01*
X168788167Y-117210913D01*
X168769754Y-117221949D01*
X168750348Y-117231128D01*
X168730136Y-117238360D01*
X168709312Y-117243576D01*
X168688077Y-117246726D01*
X168666636Y-117247779D01*
X168645195Y-117246726D01*
X168623960Y-117243576D01*
X168603136Y-117238360D01*
X168582924Y-117231128D01*
X168563518Y-117221949D01*
X168545105Y-117210913D01*
X168527862Y-117198125D01*
X168511956Y-117183709D01*
X168202597Y-116874350D01*
X168188181Y-116858444D01*
X168175393Y-116841201D01*
X168164357Y-116822788D01*
X168155178Y-116803382D01*
X168147946Y-116783170D01*
X168142730Y-116762346D01*
X168139580Y-116741111D01*
X168138527Y-116719670D01*
X168139580Y-116698229D01*
X168142730Y-116676994D01*
X168147946Y-116656170D01*
X168155178Y-116635958D01*
X168164357Y-116616552D01*
X168175393Y-116598139D01*
X168188181Y-116580896D01*
X168202597Y-116564990D01*
X168564990Y-116202597D01*
X168580896Y-116188181D01*
X168598139Y-116175393D01*
X168616552Y-116164357D01*
X168635958Y-116155178D01*
X168656170Y-116147946D01*
X168676994Y-116142730D01*
X168698229Y-116139580D01*
X168719670Y-116138527D01*
X168741111Y-116139580D01*
X168741111Y-116139580D01*
G37*
D14*
X168693153Y-116693153D03*
G04 #@! TD*
D13*
G04 #@! TO.C,C8*
G36*
X173438077Y-105053274D02*
X173459312Y-105056424D01*
X173480136Y-105061640D01*
X173500348Y-105068872D01*
X173519754Y-105078051D01*
X173538167Y-105089087D01*
X173555410Y-105101875D01*
X173571316Y-105116291D01*
X173933709Y-105478684D01*
X173948125Y-105494590D01*
X173960913Y-105511833D01*
X173971949Y-105530246D01*
X173981128Y-105549652D01*
X173988360Y-105569864D01*
X173993576Y-105590688D01*
X173996726Y-105611923D01*
X173997779Y-105633364D01*
X173996726Y-105654805D01*
X173993576Y-105676040D01*
X173988360Y-105696864D01*
X173981128Y-105717076D01*
X173971949Y-105736482D01*
X173960913Y-105754895D01*
X173948125Y-105772138D01*
X173933709Y-105788044D01*
X173624350Y-106097403D01*
X173608444Y-106111819D01*
X173591201Y-106124607D01*
X173572788Y-106135643D01*
X173553382Y-106144822D01*
X173533170Y-106152054D01*
X173512346Y-106157270D01*
X173491111Y-106160420D01*
X173469670Y-106161473D01*
X173448229Y-106160420D01*
X173426994Y-106157270D01*
X173406170Y-106152054D01*
X173385958Y-106144822D01*
X173366552Y-106135643D01*
X173348139Y-106124607D01*
X173330896Y-106111819D01*
X173314990Y-106097403D01*
X172952597Y-105735010D01*
X172938181Y-105719104D01*
X172925393Y-105701861D01*
X172914357Y-105683448D01*
X172905178Y-105664042D01*
X172897946Y-105643830D01*
X172892730Y-105623006D01*
X172889580Y-105601771D01*
X172888527Y-105580330D01*
X172889580Y-105558889D01*
X172892730Y-105537654D01*
X172897946Y-105516830D01*
X172905178Y-105496618D01*
X172914357Y-105477212D01*
X172925393Y-105458799D01*
X172938181Y-105441556D01*
X172952597Y-105425650D01*
X173261956Y-105116291D01*
X173277862Y-105101875D01*
X173295105Y-105089087D01*
X173313518Y-105078051D01*
X173332924Y-105068872D01*
X173353136Y-105061640D01*
X173373960Y-105056424D01*
X173395195Y-105053274D01*
X173416636Y-105052221D01*
X173438077Y-105053274D01*
X173438077Y-105053274D01*
G37*
D14*
X173443153Y-105606847D03*
D13*
G36*
X174551771Y-103939580D02*
X174573006Y-103942730D01*
X174593830Y-103947946D01*
X174614042Y-103955178D01*
X174633448Y-103964357D01*
X174651861Y-103975393D01*
X174669104Y-103988181D01*
X174685010Y-104002597D01*
X175047403Y-104364990D01*
X175061819Y-104380896D01*
X175074607Y-104398139D01*
X175085643Y-104416552D01*
X175094822Y-104435958D01*
X175102054Y-104456170D01*
X175107270Y-104476994D01*
X175110420Y-104498229D01*
X175111473Y-104519670D01*
X175110420Y-104541111D01*
X175107270Y-104562346D01*
X175102054Y-104583170D01*
X175094822Y-104603382D01*
X175085643Y-104622788D01*
X175074607Y-104641201D01*
X175061819Y-104658444D01*
X175047403Y-104674350D01*
X174738044Y-104983709D01*
X174722138Y-104998125D01*
X174704895Y-105010913D01*
X174686482Y-105021949D01*
X174667076Y-105031128D01*
X174646864Y-105038360D01*
X174626040Y-105043576D01*
X174604805Y-105046726D01*
X174583364Y-105047779D01*
X174561923Y-105046726D01*
X174540688Y-105043576D01*
X174519864Y-105038360D01*
X174499652Y-105031128D01*
X174480246Y-105021949D01*
X174461833Y-105010913D01*
X174444590Y-104998125D01*
X174428684Y-104983709D01*
X174066291Y-104621316D01*
X174051875Y-104605410D01*
X174039087Y-104588167D01*
X174028051Y-104569754D01*
X174018872Y-104550348D01*
X174011640Y-104530136D01*
X174006424Y-104509312D01*
X174003274Y-104488077D01*
X174002221Y-104466636D01*
X174003274Y-104445195D01*
X174006424Y-104423960D01*
X174011640Y-104403136D01*
X174018872Y-104382924D01*
X174028051Y-104363518D01*
X174039087Y-104345105D01*
X174051875Y-104327862D01*
X174066291Y-104311956D01*
X174375650Y-104002597D01*
X174391556Y-103988181D01*
X174408799Y-103975393D01*
X174427212Y-103964357D01*
X174446618Y-103955178D01*
X174466830Y-103947946D01*
X174487654Y-103942730D01*
X174508889Y-103939580D01*
X174530330Y-103938527D01*
X174551771Y-103939580D01*
X174551771Y-103939580D01*
G37*
D14*
X174556847Y-104493153D03*
G04 #@! TD*
D13*
G04 #@! TO.C,C6*
G36*
X160777691Y-117601053D02*
X160798926Y-117604203D01*
X160819750Y-117609419D01*
X160839962Y-117616651D01*
X160859368Y-117625830D01*
X160877781Y-117636866D01*
X160895024Y-117649654D01*
X160910930Y-117664070D01*
X160925346Y-117679976D01*
X160938134Y-117697219D01*
X160949170Y-117715632D01*
X160958349Y-117735038D01*
X160965581Y-117755250D01*
X160970797Y-117776074D01*
X160973947Y-117797309D01*
X160975000Y-117818750D01*
X160975000Y-118256250D01*
X160973947Y-118277691D01*
X160970797Y-118298926D01*
X160965581Y-118319750D01*
X160958349Y-118339962D01*
X160949170Y-118359368D01*
X160938134Y-118377781D01*
X160925346Y-118395024D01*
X160910930Y-118410930D01*
X160895024Y-118425346D01*
X160877781Y-118438134D01*
X160859368Y-118449170D01*
X160839962Y-118458349D01*
X160819750Y-118465581D01*
X160798926Y-118470797D01*
X160777691Y-118473947D01*
X160756250Y-118475000D01*
X160243750Y-118475000D01*
X160222309Y-118473947D01*
X160201074Y-118470797D01*
X160180250Y-118465581D01*
X160160038Y-118458349D01*
X160140632Y-118449170D01*
X160122219Y-118438134D01*
X160104976Y-118425346D01*
X160089070Y-118410930D01*
X160074654Y-118395024D01*
X160061866Y-118377781D01*
X160050830Y-118359368D01*
X160041651Y-118339962D01*
X160034419Y-118319750D01*
X160029203Y-118298926D01*
X160026053Y-118277691D01*
X160025000Y-118256250D01*
X160025000Y-117818750D01*
X160026053Y-117797309D01*
X160029203Y-117776074D01*
X160034419Y-117755250D01*
X160041651Y-117735038D01*
X160050830Y-117715632D01*
X160061866Y-117697219D01*
X160074654Y-117679976D01*
X160089070Y-117664070D01*
X160104976Y-117649654D01*
X160122219Y-117636866D01*
X160140632Y-117625830D01*
X160160038Y-117616651D01*
X160180250Y-117609419D01*
X160201074Y-117604203D01*
X160222309Y-117601053D01*
X160243750Y-117600000D01*
X160756250Y-117600000D01*
X160777691Y-117601053D01*
X160777691Y-117601053D01*
G37*
D14*
X160500000Y-118037500D03*
D13*
G36*
X160777691Y-116026053D02*
X160798926Y-116029203D01*
X160819750Y-116034419D01*
X160839962Y-116041651D01*
X160859368Y-116050830D01*
X160877781Y-116061866D01*
X160895024Y-116074654D01*
X160910930Y-116089070D01*
X160925346Y-116104976D01*
X160938134Y-116122219D01*
X160949170Y-116140632D01*
X160958349Y-116160038D01*
X160965581Y-116180250D01*
X160970797Y-116201074D01*
X160973947Y-116222309D01*
X160975000Y-116243750D01*
X160975000Y-116681250D01*
X160973947Y-116702691D01*
X160970797Y-116723926D01*
X160965581Y-116744750D01*
X160958349Y-116764962D01*
X160949170Y-116784368D01*
X160938134Y-116802781D01*
X160925346Y-116820024D01*
X160910930Y-116835930D01*
X160895024Y-116850346D01*
X160877781Y-116863134D01*
X160859368Y-116874170D01*
X160839962Y-116883349D01*
X160819750Y-116890581D01*
X160798926Y-116895797D01*
X160777691Y-116898947D01*
X160756250Y-116900000D01*
X160243750Y-116900000D01*
X160222309Y-116898947D01*
X160201074Y-116895797D01*
X160180250Y-116890581D01*
X160160038Y-116883349D01*
X160140632Y-116874170D01*
X160122219Y-116863134D01*
X160104976Y-116850346D01*
X160089070Y-116835930D01*
X160074654Y-116820024D01*
X160061866Y-116802781D01*
X160050830Y-116784368D01*
X160041651Y-116764962D01*
X160034419Y-116744750D01*
X160029203Y-116723926D01*
X160026053Y-116702691D01*
X160025000Y-116681250D01*
X160025000Y-116243750D01*
X160026053Y-116222309D01*
X160029203Y-116201074D01*
X160034419Y-116180250D01*
X160041651Y-116160038D01*
X160050830Y-116140632D01*
X160061866Y-116122219D01*
X160074654Y-116104976D01*
X160089070Y-116089070D01*
X160104976Y-116074654D01*
X160122219Y-116061866D01*
X160140632Y-116050830D01*
X160160038Y-116041651D01*
X160180250Y-116034419D01*
X160201074Y-116029203D01*
X160222309Y-116026053D01*
X160243750Y-116025000D01*
X160756250Y-116025000D01*
X160777691Y-116026053D01*
X160777691Y-116026053D01*
G37*
D14*
X160500000Y-116462500D03*
G04 #@! TD*
D13*
G04 #@! TO.C,C9*
G36*
X162188077Y-99003274D02*
X162209312Y-99006424D01*
X162230136Y-99011640D01*
X162250348Y-99018872D01*
X162269754Y-99028051D01*
X162288167Y-99039087D01*
X162305410Y-99051875D01*
X162321316Y-99066291D01*
X162683709Y-99428684D01*
X162698125Y-99444590D01*
X162710913Y-99461833D01*
X162721949Y-99480246D01*
X162731128Y-99499652D01*
X162738360Y-99519864D01*
X162743576Y-99540688D01*
X162746726Y-99561923D01*
X162747779Y-99583364D01*
X162746726Y-99604805D01*
X162743576Y-99626040D01*
X162738360Y-99646864D01*
X162731128Y-99667076D01*
X162721949Y-99686482D01*
X162710913Y-99704895D01*
X162698125Y-99722138D01*
X162683709Y-99738044D01*
X162374350Y-100047403D01*
X162358444Y-100061819D01*
X162341201Y-100074607D01*
X162322788Y-100085643D01*
X162303382Y-100094822D01*
X162283170Y-100102054D01*
X162262346Y-100107270D01*
X162241111Y-100110420D01*
X162219670Y-100111473D01*
X162198229Y-100110420D01*
X162176994Y-100107270D01*
X162156170Y-100102054D01*
X162135958Y-100094822D01*
X162116552Y-100085643D01*
X162098139Y-100074607D01*
X162080896Y-100061819D01*
X162064990Y-100047403D01*
X161702597Y-99685010D01*
X161688181Y-99669104D01*
X161675393Y-99651861D01*
X161664357Y-99633448D01*
X161655178Y-99614042D01*
X161647946Y-99593830D01*
X161642730Y-99573006D01*
X161639580Y-99551771D01*
X161638527Y-99530330D01*
X161639580Y-99508889D01*
X161642730Y-99487654D01*
X161647946Y-99466830D01*
X161655178Y-99446618D01*
X161664357Y-99427212D01*
X161675393Y-99408799D01*
X161688181Y-99391556D01*
X161702597Y-99375650D01*
X162011956Y-99066291D01*
X162027862Y-99051875D01*
X162045105Y-99039087D01*
X162063518Y-99028051D01*
X162082924Y-99018872D01*
X162103136Y-99011640D01*
X162123960Y-99006424D01*
X162145195Y-99003274D01*
X162166636Y-99002221D01*
X162188077Y-99003274D01*
X162188077Y-99003274D01*
G37*
D14*
X162193153Y-99556847D03*
D13*
G36*
X163301771Y-97889580D02*
X163323006Y-97892730D01*
X163343830Y-97897946D01*
X163364042Y-97905178D01*
X163383448Y-97914357D01*
X163401861Y-97925393D01*
X163419104Y-97938181D01*
X163435010Y-97952597D01*
X163797403Y-98314990D01*
X163811819Y-98330896D01*
X163824607Y-98348139D01*
X163835643Y-98366552D01*
X163844822Y-98385958D01*
X163852054Y-98406170D01*
X163857270Y-98426994D01*
X163860420Y-98448229D01*
X163861473Y-98469670D01*
X163860420Y-98491111D01*
X163857270Y-98512346D01*
X163852054Y-98533170D01*
X163844822Y-98553382D01*
X163835643Y-98572788D01*
X163824607Y-98591201D01*
X163811819Y-98608444D01*
X163797403Y-98624350D01*
X163488044Y-98933709D01*
X163472138Y-98948125D01*
X163454895Y-98960913D01*
X163436482Y-98971949D01*
X163417076Y-98981128D01*
X163396864Y-98988360D01*
X163376040Y-98993576D01*
X163354805Y-98996726D01*
X163333364Y-98997779D01*
X163311923Y-98996726D01*
X163290688Y-98993576D01*
X163269864Y-98988360D01*
X163249652Y-98981128D01*
X163230246Y-98971949D01*
X163211833Y-98960913D01*
X163194590Y-98948125D01*
X163178684Y-98933709D01*
X162816291Y-98571316D01*
X162801875Y-98555410D01*
X162789087Y-98538167D01*
X162778051Y-98519754D01*
X162768872Y-98500348D01*
X162761640Y-98480136D01*
X162756424Y-98459312D01*
X162753274Y-98438077D01*
X162752221Y-98416636D01*
X162753274Y-98395195D01*
X162756424Y-98373960D01*
X162761640Y-98353136D01*
X162768872Y-98332924D01*
X162778051Y-98313518D01*
X162789087Y-98295105D01*
X162801875Y-98277862D01*
X162816291Y-98261956D01*
X163125650Y-97952597D01*
X163141556Y-97938181D01*
X163158799Y-97925393D01*
X163177212Y-97914357D01*
X163196618Y-97905178D01*
X163216830Y-97897946D01*
X163237654Y-97892730D01*
X163258889Y-97889580D01*
X163280330Y-97888527D01*
X163301771Y-97889580D01*
X163301771Y-97889580D01*
G37*
D14*
X163306847Y-98443153D03*
G04 #@! TD*
D13*
G04 #@! TO.C,C16*
G36*
X152027691Y-102101054D02*
X152048926Y-102104204D01*
X152069750Y-102109420D01*
X152089962Y-102116652D01*
X152109368Y-102125831D01*
X152127781Y-102136867D01*
X152145024Y-102149655D01*
X152160930Y-102164071D01*
X152175346Y-102179977D01*
X152188134Y-102197220D01*
X152199170Y-102215633D01*
X152208349Y-102235039D01*
X152215581Y-102255251D01*
X152220797Y-102276075D01*
X152223947Y-102297310D01*
X152225000Y-102318751D01*
X152225000Y-102756251D01*
X152223947Y-102777692D01*
X152220797Y-102798927D01*
X152215581Y-102819751D01*
X152208349Y-102839963D01*
X152199170Y-102859369D01*
X152188134Y-102877782D01*
X152175346Y-102895025D01*
X152160930Y-102910931D01*
X152145024Y-102925347D01*
X152127781Y-102938135D01*
X152109368Y-102949171D01*
X152089962Y-102958350D01*
X152069750Y-102965582D01*
X152048926Y-102970798D01*
X152027691Y-102973948D01*
X152006250Y-102975001D01*
X151493750Y-102975001D01*
X151472309Y-102973948D01*
X151451074Y-102970798D01*
X151430250Y-102965582D01*
X151410038Y-102958350D01*
X151390632Y-102949171D01*
X151372219Y-102938135D01*
X151354976Y-102925347D01*
X151339070Y-102910931D01*
X151324654Y-102895025D01*
X151311866Y-102877782D01*
X151300830Y-102859369D01*
X151291651Y-102839963D01*
X151284419Y-102819751D01*
X151279203Y-102798927D01*
X151276053Y-102777692D01*
X151275000Y-102756251D01*
X151275000Y-102318751D01*
X151276053Y-102297310D01*
X151279203Y-102276075D01*
X151284419Y-102255251D01*
X151291651Y-102235039D01*
X151300830Y-102215633D01*
X151311866Y-102197220D01*
X151324654Y-102179977D01*
X151339070Y-102164071D01*
X151354976Y-102149655D01*
X151372219Y-102136867D01*
X151390632Y-102125831D01*
X151410038Y-102116652D01*
X151430250Y-102109420D01*
X151451074Y-102104204D01*
X151472309Y-102101054D01*
X151493750Y-102100001D01*
X152006250Y-102100001D01*
X152027691Y-102101054D01*
X152027691Y-102101054D01*
G37*
D14*
X151750000Y-102537501D03*
D13*
G36*
X152027691Y-100526052D02*
X152048926Y-100529202D01*
X152069750Y-100534418D01*
X152089962Y-100541650D01*
X152109368Y-100550829D01*
X152127781Y-100561865D01*
X152145024Y-100574653D01*
X152160930Y-100589069D01*
X152175346Y-100604975D01*
X152188134Y-100622218D01*
X152199170Y-100640631D01*
X152208349Y-100660037D01*
X152215581Y-100680249D01*
X152220797Y-100701073D01*
X152223947Y-100722308D01*
X152225000Y-100743749D01*
X152225000Y-101181249D01*
X152223947Y-101202690D01*
X152220797Y-101223925D01*
X152215581Y-101244749D01*
X152208349Y-101264961D01*
X152199170Y-101284367D01*
X152188134Y-101302780D01*
X152175346Y-101320023D01*
X152160930Y-101335929D01*
X152145024Y-101350345D01*
X152127781Y-101363133D01*
X152109368Y-101374169D01*
X152089962Y-101383348D01*
X152069750Y-101390580D01*
X152048926Y-101395796D01*
X152027691Y-101398946D01*
X152006250Y-101399999D01*
X151493750Y-101399999D01*
X151472309Y-101398946D01*
X151451074Y-101395796D01*
X151430250Y-101390580D01*
X151410038Y-101383348D01*
X151390632Y-101374169D01*
X151372219Y-101363133D01*
X151354976Y-101350345D01*
X151339070Y-101335929D01*
X151324654Y-101320023D01*
X151311866Y-101302780D01*
X151300830Y-101284367D01*
X151291651Y-101264961D01*
X151284419Y-101244749D01*
X151279203Y-101223925D01*
X151276053Y-101202690D01*
X151275000Y-101181249D01*
X151275000Y-100743749D01*
X151276053Y-100722308D01*
X151279203Y-100701073D01*
X151284419Y-100680249D01*
X151291651Y-100660037D01*
X151300830Y-100640631D01*
X151311866Y-100622218D01*
X151324654Y-100604975D01*
X151339070Y-100589069D01*
X151354976Y-100574653D01*
X151372219Y-100561865D01*
X151390632Y-100550829D01*
X151410038Y-100541650D01*
X151430250Y-100534418D01*
X151451074Y-100529202D01*
X151472309Y-100526052D01*
X151493750Y-100524999D01*
X152006250Y-100524999D01*
X152027691Y-100526052D01*
X152027691Y-100526052D01*
G37*
D14*
X151750000Y-100962499D03*
G04 #@! TD*
D16*
G04 #@! TO.C,D2*
X182100000Y-109250000D03*
X185400000Y-109250000D03*
G04 #@! TD*
D17*
G04 #@! TO.C,D3*
X157275000Y-155825000D03*
X157275000Y-156675000D03*
X158725000Y-155825000D03*
X158725000Y-156675000D03*
G04 #@! TD*
D18*
G04 #@! TO.C,IC8*
X191200000Y-106350000D03*
X190250000Y-106350000D03*
X189300000Y-106350000D03*
X189300000Y-104150000D03*
X191200000Y-104150000D03*
X190250000Y-104150000D03*
G04 #@! TD*
G04 #@! TO.C,IC9*
X184700000Y-106350000D03*
X183750000Y-106350000D03*
X182800000Y-106350000D03*
X182800000Y-104150000D03*
X184700000Y-104150000D03*
G04 #@! TD*
D13*
G04 #@! TO.C,L1*
G36*
X193980142Y-103826174D02*
X194003803Y-103829684D01*
X194027007Y-103835496D01*
X194049529Y-103843554D01*
X194071153Y-103853782D01*
X194091670Y-103866079D01*
X194110883Y-103880329D01*
X194128607Y-103896393D01*
X194144671Y-103914117D01*
X194158921Y-103933330D01*
X194171218Y-103953847D01*
X194181446Y-103975471D01*
X194189504Y-103997993D01*
X194195316Y-104021197D01*
X194198826Y-104044858D01*
X194200000Y-104068750D01*
X194200000Y-104556250D01*
X194198826Y-104580142D01*
X194195316Y-104603803D01*
X194189504Y-104627007D01*
X194181446Y-104649529D01*
X194171218Y-104671153D01*
X194158921Y-104691670D01*
X194144671Y-104710883D01*
X194128607Y-104728607D01*
X194110883Y-104744671D01*
X194091670Y-104758921D01*
X194071153Y-104771218D01*
X194049529Y-104781446D01*
X194027007Y-104789504D01*
X194003803Y-104795316D01*
X193980142Y-104798826D01*
X193956250Y-104800000D01*
X193043750Y-104800000D01*
X193019858Y-104798826D01*
X192996197Y-104795316D01*
X192972993Y-104789504D01*
X192950471Y-104781446D01*
X192928847Y-104771218D01*
X192908330Y-104758921D01*
X192889117Y-104744671D01*
X192871393Y-104728607D01*
X192855329Y-104710883D01*
X192841079Y-104691670D01*
X192828782Y-104671153D01*
X192818554Y-104649529D01*
X192810496Y-104627007D01*
X192804684Y-104603803D01*
X192801174Y-104580142D01*
X192800000Y-104556250D01*
X192800000Y-104068750D01*
X192801174Y-104044858D01*
X192804684Y-104021197D01*
X192810496Y-103997993D01*
X192818554Y-103975471D01*
X192828782Y-103953847D01*
X192841079Y-103933330D01*
X192855329Y-103914117D01*
X192871393Y-103896393D01*
X192889117Y-103880329D01*
X192908330Y-103866079D01*
X192928847Y-103853782D01*
X192950471Y-103843554D01*
X192972993Y-103835496D01*
X192996197Y-103829684D01*
X193019858Y-103826174D01*
X193043750Y-103825000D01*
X193956250Y-103825000D01*
X193980142Y-103826174D01*
X193980142Y-103826174D01*
G37*
D19*
X193500000Y-104312500D03*
D13*
G36*
X193980142Y-105701174D02*
X194003803Y-105704684D01*
X194027007Y-105710496D01*
X194049529Y-105718554D01*
X194071153Y-105728782D01*
X194091670Y-105741079D01*
X194110883Y-105755329D01*
X194128607Y-105771393D01*
X194144671Y-105789117D01*
X194158921Y-105808330D01*
X194171218Y-105828847D01*
X194181446Y-105850471D01*
X194189504Y-105872993D01*
X194195316Y-105896197D01*
X194198826Y-105919858D01*
X194200000Y-105943750D01*
X194200000Y-106431250D01*
X194198826Y-106455142D01*
X194195316Y-106478803D01*
X194189504Y-106502007D01*
X194181446Y-106524529D01*
X194171218Y-106546153D01*
X194158921Y-106566670D01*
X194144671Y-106585883D01*
X194128607Y-106603607D01*
X194110883Y-106619671D01*
X194091670Y-106633921D01*
X194071153Y-106646218D01*
X194049529Y-106656446D01*
X194027007Y-106664504D01*
X194003803Y-106670316D01*
X193980142Y-106673826D01*
X193956250Y-106675000D01*
X193043750Y-106675000D01*
X193019858Y-106673826D01*
X192996197Y-106670316D01*
X192972993Y-106664504D01*
X192950471Y-106656446D01*
X192928847Y-106646218D01*
X192908330Y-106633921D01*
X192889117Y-106619671D01*
X192871393Y-106603607D01*
X192855329Y-106585883D01*
X192841079Y-106566670D01*
X192828782Y-106546153D01*
X192818554Y-106524529D01*
X192810496Y-106502007D01*
X192804684Y-106478803D01*
X192801174Y-106455142D01*
X192800000Y-106431250D01*
X192800000Y-105943750D01*
X192801174Y-105919858D01*
X192804684Y-105896197D01*
X192810496Y-105872993D01*
X192818554Y-105850471D01*
X192828782Y-105828847D01*
X192841079Y-105808330D01*
X192855329Y-105789117D01*
X192871393Y-105771393D01*
X192889117Y-105755329D01*
X192908330Y-105741079D01*
X192928847Y-105728782D01*
X192950471Y-105718554D01*
X192972993Y-105710496D01*
X192996197Y-105704684D01*
X193019858Y-105701174D01*
X193043750Y-105700000D01*
X193956250Y-105700000D01*
X193980142Y-105701174D01*
X193980142Y-105701174D01*
G37*
D19*
X193500000Y-106187500D03*
G04 #@! TD*
D13*
G04 #@! TO.C,R1*
G36*
X202527691Y-104026053D02*
X202548926Y-104029203D01*
X202569750Y-104034419D01*
X202589962Y-104041651D01*
X202609368Y-104050830D01*
X202627781Y-104061866D01*
X202645024Y-104074654D01*
X202660930Y-104089070D01*
X202675346Y-104104976D01*
X202688134Y-104122219D01*
X202699170Y-104140632D01*
X202708349Y-104160038D01*
X202715581Y-104180250D01*
X202720797Y-104201074D01*
X202723947Y-104222309D01*
X202725000Y-104243750D01*
X202725000Y-104681250D01*
X202723947Y-104702691D01*
X202720797Y-104723926D01*
X202715581Y-104744750D01*
X202708349Y-104764962D01*
X202699170Y-104784368D01*
X202688134Y-104802781D01*
X202675346Y-104820024D01*
X202660930Y-104835930D01*
X202645024Y-104850346D01*
X202627781Y-104863134D01*
X202609368Y-104874170D01*
X202589962Y-104883349D01*
X202569750Y-104890581D01*
X202548926Y-104895797D01*
X202527691Y-104898947D01*
X202506250Y-104900000D01*
X201993750Y-104900000D01*
X201972309Y-104898947D01*
X201951074Y-104895797D01*
X201930250Y-104890581D01*
X201910038Y-104883349D01*
X201890632Y-104874170D01*
X201872219Y-104863134D01*
X201854976Y-104850346D01*
X201839070Y-104835930D01*
X201824654Y-104820024D01*
X201811866Y-104802781D01*
X201800830Y-104784368D01*
X201791651Y-104764962D01*
X201784419Y-104744750D01*
X201779203Y-104723926D01*
X201776053Y-104702691D01*
X201775000Y-104681250D01*
X201775000Y-104243750D01*
X201776053Y-104222309D01*
X201779203Y-104201074D01*
X201784419Y-104180250D01*
X201791651Y-104160038D01*
X201800830Y-104140632D01*
X201811866Y-104122219D01*
X201824654Y-104104976D01*
X201839070Y-104089070D01*
X201854976Y-104074654D01*
X201872219Y-104061866D01*
X201890632Y-104050830D01*
X201910038Y-104041651D01*
X201930250Y-104034419D01*
X201951074Y-104029203D01*
X201972309Y-104026053D01*
X201993750Y-104025000D01*
X202506250Y-104025000D01*
X202527691Y-104026053D01*
X202527691Y-104026053D01*
G37*
D14*
X202250000Y-104462500D03*
D13*
G36*
X202527691Y-105601053D02*
X202548926Y-105604203D01*
X202569750Y-105609419D01*
X202589962Y-105616651D01*
X202609368Y-105625830D01*
X202627781Y-105636866D01*
X202645024Y-105649654D01*
X202660930Y-105664070D01*
X202675346Y-105679976D01*
X202688134Y-105697219D01*
X202699170Y-105715632D01*
X202708349Y-105735038D01*
X202715581Y-105755250D01*
X202720797Y-105776074D01*
X202723947Y-105797309D01*
X202725000Y-105818750D01*
X202725000Y-106256250D01*
X202723947Y-106277691D01*
X202720797Y-106298926D01*
X202715581Y-106319750D01*
X202708349Y-106339962D01*
X202699170Y-106359368D01*
X202688134Y-106377781D01*
X202675346Y-106395024D01*
X202660930Y-106410930D01*
X202645024Y-106425346D01*
X202627781Y-106438134D01*
X202609368Y-106449170D01*
X202589962Y-106458349D01*
X202569750Y-106465581D01*
X202548926Y-106470797D01*
X202527691Y-106473947D01*
X202506250Y-106475000D01*
X201993750Y-106475000D01*
X201972309Y-106473947D01*
X201951074Y-106470797D01*
X201930250Y-106465581D01*
X201910038Y-106458349D01*
X201890632Y-106449170D01*
X201872219Y-106438134D01*
X201854976Y-106425346D01*
X201839070Y-106410930D01*
X201824654Y-106395024D01*
X201811866Y-106377781D01*
X201800830Y-106359368D01*
X201791651Y-106339962D01*
X201784419Y-106319750D01*
X201779203Y-106298926D01*
X201776053Y-106277691D01*
X201775000Y-106256250D01*
X201775000Y-105818750D01*
X201776053Y-105797309D01*
X201779203Y-105776074D01*
X201784419Y-105755250D01*
X201791651Y-105735038D01*
X201800830Y-105715632D01*
X201811866Y-105697219D01*
X201824654Y-105679976D01*
X201839070Y-105664070D01*
X201854976Y-105649654D01*
X201872219Y-105636866D01*
X201890632Y-105625830D01*
X201910038Y-105616651D01*
X201930250Y-105609419D01*
X201951074Y-105604203D01*
X201972309Y-105601053D01*
X201993750Y-105600000D01*
X202506250Y-105600000D01*
X202527691Y-105601053D01*
X202527691Y-105601053D01*
G37*
D14*
X202250000Y-106037500D03*
G04 #@! TD*
D13*
G04 #@! TO.C,R2*
G36*
X155527691Y-102101054D02*
X155548926Y-102104204D01*
X155569750Y-102109420D01*
X155589962Y-102116652D01*
X155609368Y-102125831D01*
X155627781Y-102136867D01*
X155645024Y-102149655D01*
X155660930Y-102164071D01*
X155675346Y-102179977D01*
X155688134Y-102197220D01*
X155699170Y-102215633D01*
X155708349Y-102235039D01*
X155715581Y-102255251D01*
X155720797Y-102276075D01*
X155723947Y-102297310D01*
X155725000Y-102318751D01*
X155725000Y-102756251D01*
X155723947Y-102777692D01*
X155720797Y-102798927D01*
X155715581Y-102819751D01*
X155708349Y-102839963D01*
X155699170Y-102859369D01*
X155688134Y-102877782D01*
X155675346Y-102895025D01*
X155660930Y-102910931D01*
X155645024Y-102925347D01*
X155627781Y-102938135D01*
X155609368Y-102949171D01*
X155589962Y-102958350D01*
X155569750Y-102965582D01*
X155548926Y-102970798D01*
X155527691Y-102973948D01*
X155506250Y-102975001D01*
X154993750Y-102975001D01*
X154972309Y-102973948D01*
X154951074Y-102970798D01*
X154930250Y-102965582D01*
X154910038Y-102958350D01*
X154890632Y-102949171D01*
X154872219Y-102938135D01*
X154854976Y-102925347D01*
X154839070Y-102910931D01*
X154824654Y-102895025D01*
X154811866Y-102877782D01*
X154800830Y-102859369D01*
X154791651Y-102839963D01*
X154784419Y-102819751D01*
X154779203Y-102798927D01*
X154776053Y-102777692D01*
X154775000Y-102756251D01*
X154775000Y-102318751D01*
X154776053Y-102297310D01*
X154779203Y-102276075D01*
X154784419Y-102255251D01*
X154791651Y-102235039D01*
X154800830Y-102215633D01*
X154811866Y-102197220D01*
X154824654Y-102179977D01*
X154839070Y-102164071D01*
X154854976Y-102149655D01*
X154872219Y-102136867D01*
X154890632Y-102125831D01*
X154910038Y-102116652D01*
X154930250Y-102109420D01*
X154951074Y-102104204D01*
X154972309Y-102101054D01*
X154993750Y-102100001D01*
X155506250Y-102100001D01*
X155527691Y-102101054D01*
X155527691Y-102101054D01*
G37*
D14*
X155250000Y-102537501D03*
D13*
G36*
X155527691Y-100526052D02*
X155548926Y-100529202D01*
X155569750Y-100534418D01*
X155589962Y-100541650D01*
X155609368Y-100550829D01*
X155627781Y-100561865D01*
X155645024Y-100574653D01*
X155660930Y-100589069D01*
X155675346Y-100604975D01*
X155688134Y-100622218D01*
X155699170Y-100640631D01*
X155708349Y-100660037D01*
X155715581Y-100680249D01*
X155720797Y-100701073D01*
X155723947Y-100722308D01*
X155725000Y-100743749D01*
X155725000Y-101181249D01*
X155723947Y-101202690D01*
X155720797Y-101223925D01*
X155715581Y-101244749D01*
X155708349Y-101264961D01*
X155699170Y-101284367D01*
X155688134Y-101302780D01*
X155675346Y-101320023D01*
X155660930Y-101335929D01*
X155645024Y-101350345D01*
X155627781Y-101363133D01*
X155609368Y-101374169D01*
X155589962Y-101383348D01*
X155569750Y-101390580D01*
X155548926Y-101395796D01*
X155527691Y-101398946D01*
X155506250Y-101399999D01*
X154993750Y-101399999D01*
X154972309Y-101398946D01*
X154951074Y-101395796D01*
X154930250Y-101390580D01*
X154910038Y-101383348D01*
X154890632Y-101374169D01*
X154872219Y-101363133D01*
X154854976Y-101350345D01*
X154839070Y-101335929D01*
X154824654Y-101320023D01*
X154811866Y-101302780D01*
X154800830Y-101284367D01*
X154791651Y-101264961D01*
X154784419Y-101244749D01*
X154779203Y-101223925D01*
X154776053Y-101202690D01*
X154775000Y-101181249D01*
X154775000Y-100743749D01*
X154776053Y-100722308D01*
X154779203Y-100701073D01*
X154784419Y-100680249D01*
X154791651Y-100660037D01*
X154800830Y-100640631D01*
X154811866Y-100622218D01*
X154824654Y-100604975D01*
X154839070Y-100589069D01*
X154854976Y-100574653D01*
X154872219Y-100561865D01*
X154890632Y-100550829D01*
X154910038Y-100541650D01*
X154930250Y-100534418D01*
X154951074Y-100529202D01*
X154972309Y-100526052D01*
X154993750Y-100524999D01*
X155506250Y-100524999D01*
X155527691Y-100526052D01*
X155527691Y-100526052D01*
G37*
D14*
X155250000Y-100962499D03*
G04 #@! TD*
D20*
G04 #@! TO.C,RN1*
X156800000Y-149900000D03*
X157600000Y-149900000D03*
X158400000Y-149900000D03*
X159200000Y-149900000D03*
X156800000Y-151600000D03*
X159200000Y-151600000D03*
X157600000Y-151600000D03*
X158400000Y-151600000D03*
G04 #@! TD*
D21*
G04 #@! TO.C,SW1*
X212779560Y-98377824D03*
D13*
G36*
X212937868Y-97613011D02*
X213560382Y-98395619D01*
X212621252Y-99142637D01*
X211998738Y-98360029D01*
X212937868Y-97613011D01*
X212937868Y-97613011D01*
G37*
D21*
X217162165Y-94891742D03*
D13*
G36*
X217320473Y-94126929D02*
X217942987Y-94909537D01*
X217003857Y-95656555D01*
X216381343Y-94873947D01*
X217320473Y-94126929D01*
X217320473Y-94126929D01*
G37*
D21*
X213837835Y-99708258D03*
D13*
G36*
X213996143Y-98943445D02*
X214618657Y-99726053D01*
X213679527Y-100473071D01*
X213057013Y-99690463D01*
X213996143Y-98943445D01*
X213996143Y-98943445D01*
G37*
D21*
X218220440Y-96222176D03*
D13*
G36*
X218378748Y-95457363D02*
X219001262Y-96239971D01*
X218062132Y-96986989D01*
X217439618Y-96204381D01*
X218378748Y-95457363D01*
X218378748Y-95457363D01*
G37*
G04 #@! TD*
D21*
G04 #@! TO.C,SW2*
X115183118Y-99893661D03*
D13*
G36*
X115963755Y-99869053D02*
X115348094Y-100657063D01*
X114402481Y-99918269D01*
X115018142Y-99130259D01*
X115963755Y-99869053D01*
X115963755Y-99869053D01*
G37*
D21*
X110770258Y-96445957D03*
D13*
G36*
X111550895Y-96421349D02*
X110935234Y-97209359D01*
X109989621Y-96470565D01*
X110605282Y-95682555D01*
X111550895Y-96421349D01*
X111550895Y-96421349D01*
G37*
D21*
X116229742Y-98554043D03*
D13*
G36*
X117010379Y-98529435D02*
X116394718Y-99317445D01*
X115449105Y-98578651D01*
X116064766Y-97790641D01*
X117010379Y-98529435D01*
X117010379Y-98529435D01*
G37*
D21*
X111816882Y-95106339D03*
D13*
G36*
X112597519Y-95081731D02*
X111981858Y-95869741D01*
X111036245Y-95130947D01*
X111651906Y-94342937D01*
X112597519Y-95081731D01*
X112597519Y-95081731D01*
G37*
G04 #@! TD*
D18*
G04 #@! TO.C,IC10*
X199950000Y-106350000D03*
X199000000Y-106350000D03*
X198050000Y-106350000D03*
X198050000Y-104150000D03*
X199950000Y-104150000D03*
G04 #@! TD*
D13*
G04 #@! TO.C,C1*
G36*
X196230142Y-105701174D02*
X196253803Y-105704684D01*
X196277007Y-105710496D01*
X196299529Y-105718554D01*
X196321153Y-105728782D01*
X196341670Y-105741079D01*
X196360883Y-105755329D01*
X196378607Y-105771393D01*
X196394671Y-105789117D01*
X196408921Y-105808330D01*
X196421218Y-105828847D01*
X196431446Y-105850471D01*
X196439504Y-105872993D01*
X196445316Y-105896197D01*
X196448826Y-105919858D01*
X196450000Y-105943750D01*
X196450000Y-106431250D01*
X196448826Y-106455142D01*
X196445316Y-106478803D01*
X196439504Y-106502007D01*
X196431446Y-106524529D01*
X196421218Y-106546153D01*
X196408921Y-106566670D01*
X196394671Y-106585883D01*
X196378607Y-106603607D01*
X196360883Y-106619671D01*
X196341670Y-106633921D01*
X196321153Y-106646218D01*
X196299529Y-106656446D01*
X196277007Y-106664504D01*
X196253803Y-106670316D01*
X196230142Y-106673826D01*
X196206250Y-106675000D01*
X195293750Y-106675000D01*
X195269858Y-106673826D01*
X195246197Y-106670316D01*
X195222993Y-106664504D01*
X195200471Y-106656446D01*
X195178847Y-106646218D01*
X195158330Y-106633921D01*
X195139117Y-106619671D01*
X195121393Y-106603607D01*
X195105329Y-106585883D01*
X195091079Y-106566670D01*
X195078782Y-106546153D01*
X195068554Y-106524529D01*
X195060496Y-106502007D01*
X195054684Y-106478803D01*
X195051174Y-106455142D01*
X195050000Y-106431250D01*
X195050000Y-105943750D01*
X195051174Y-105919858D01*
X195054684Y-105896197D01*
X195060496Y-105872993D01*
X195068554Y-105850471D01*
X195078782Y-105828847D01*
X195091079Y-105808330D01*
X195105329Y-105789117D01*
X195121393Y-105771393D01*
X195139117Y-105755329D01*
X195158330Y-105741079D01*
X195178847Y-105728782D01*
X195200471Y-105718554D01*
X195222993Y-105710496D01*
X195246197Y-105704684D01*
X195269858Y-105701174D01*
X195293750Y-105700000D01*
X196206250Y-105700000D01*
X196230142Y-105701174D01*
X196230142Y-105701174D01*
G37*
D19*
X195750000Y-106187500D03*
D13*
G36*
X196230142Y-103826174D02*
X196253803Y-103829684D01*
X196277007Y-103835496D01*
X196299529Y-103843554D01*
X196321153Y-103853782D01*
X196341670Y-103866079D01*
X196360883Y-103880329D01*
X196378607Y-103896393D01*
X196394671Y-103914117D01*
X196408921Y-103933330D01*
X196421218Y-103953847D01*
X196431446Y-103975471D01*
X196439504Y-103997993D01*
X196445316Y-104021197D01*
X196448826Y-104044858D01*
X196450000Y-104068750D01*
X196450000Y-104556250D01*
X196448826Y-104580142D01*
X196445316Y-104603803D01*
X196439504Y-104627007D01*
X196431446Y-104649529D01*
X196421218Y-104671153D01*
X196408921Y-104691670D01*
X196394671Y-104710883D01*
X196378607Y-104728607D01*
X196360883Y-104744671D01*
X196341670Y-104758921D01*
X196321153Y-104771218D01*
X196299529Y-104781446D01*
X196277007Y-104789504D01*
X196253803Y-104795316D01*
X196230142Y-104798826D01*
X196206250Y-104800000D01*
X195293750Y-104800000D01*
X195269858Y-104798826D01*
X195246197Y-104795316D01*
X195222993Y-104789504D01*
X195200471Y-104781446D01*
X195178847Y-104771218D01*
X195158330Y-104758921D01*
X195139117Y-104744671D01*
X195121393Y-104728607D01*
X195105329Y-104710883D01*
X195091079Y-104691670D01*
X195078782Y-104671153D01*
X195068554Y-104649529D01*
X195060496Y-104627007D01*
X195054684Y-104603803D01*
X195051174Y-104580142D01*
X195050000Y-104556250D01*
X195050000Y-104068750D01*
X195051174Y-104044858D01*
X195054684Y-104021197D01*
X195060496Y-103997993D01*
X195068554Y-103975471D01*
X195078782Y-103953847D01*
X195091079Y-103933330D01*
X195105329Y-103914117D01*
X195121393Y-103896393D01*
X195139117Y-103880329D01*
X195158330Y-103866079D01*
X195178847Y-103853782D01*
X195200471Y-103843554D01*
X195222993Y-103835496D01*
X195246197Y-103829684D01*
X195269858Y-103826174D01*
X195293750Y-103825000D01*
X196206250Y-103825000D01*
X196230142Y-103826174D01*
X196230142Y-103826174D01*
G37*
D19*
X195750000Y-104312500D03*
G04 #@! TD*
D13*
G04 #@! TO.C,C2*
G36*
X180980142Y-103826174D02*
X181003803Y-103829684D01*
X181027007Y-103835496D01*
X181049529Y-103843554D01*
X181071153Y-103853782D01*
X181091670Y-103866079D01*
X181110883Y-103880329D01*
X181128607Y-103896393D01*
X181144671Y-103914117D01*
X181158921Y-103933330D01*
X181171218Y-103953847D01*
X181181446Y-103975471D01*
X181189504Y-103997993D01*
X181195316Y-104021197D01*
X181198826Y-104044858D01*
X181200000Y-104068750D01*
X181200000Y-104556250D01*
X181198826Y-104580142D01*
X181195316Y-104603803D01*
X181189504Y-104627007D01*
X181181446Y-104649529D01*
X181171218Y-104671153D01*
X181158921Y-104691670D01*
X181144671Y-104710883D01*
X181128607Y-104728607D01*
X181110883Y-104744671D01*
X181091670Y-104758921D01*
X181071153Y-104771218D01*
X181049529Y-104781446D01*
X181027007Y-104789504D01*
X181003803Y-104795316D01*
X180980142Y-104798826D01*
X180956250Y-104800000D01*
X180043750Y-104800000D01*
X180019858Y-104798826D01*
X179996197Y-104795316D01*
X179972993Y-104789504D01*
X179950471Y-104781446D01*
X179928847Y-104771218D01*
X179908330Y-104758921D01*
X179889117Y-104744671D01*
X179871393Y-104728607D01*
X179855329Y-104710883D01*
X179841079Y-104691670D01*
X179828782Y-104671153D01*
X179818554Y-104649529D01*
X179810496Y-104627007D01*
X179804684Y-104603803D01*
X179801174Y-104580142D01*
X179800000Y-104556250D01*
X179800000Y-104068750D01*
X179801174Y-104044858D01*
X179804684Y-104021197D01*
X179810496Y-103997993D01*
X179818554Y-103975471D01*
X179828782Y-103953847D01*
X179841079Y-103933330D01*
X179855329Y-103914117D01*
X179871393Y-103896393D01*
X179889117Y-103880329D01*
X179908330Y-103866079D01*
X179928847Y-103853782D01*
X179950471Y-103843554D01*
X179972993Y-103835496D01*
X179996197Y-103829684D01*
X180019858Y-103826174D01*
X180043750Y-103825000D01*
X180956250Y-103825000D01*
X180980142Y-103826174D01*
X180980142Y-103826174D01*
G37*
D19*
X180500000Y-104312500D03*
D13*
G36*
X180980142Y-105701174D02*
X181003803Y-105704684D01*
X181027007Y-105710496D01*
X181049529Y-105718554D01*
X181071153Y-105728782D01*
X181091670Y-105741079D01*
X181110883Y-105755329D01*
X181128607Y-105771393D01*
X181144671Y-105789117D01*
X181158921Y-105808330D01*
X181171218Y-105828847D01*
X181181446Y-105850471D01*
X181189504Y-105872993D01*
X181195316Y-105896197D01*
X181198826Y-105919858D01*
X181200000Y-105943750D01*
X181200000Y-106431250D01*
X181198826Y-106455142D01*
X181195316Y-106478803D01*
X181189504Y-106502007D01*
X181181446Y-106524529D01*
X181171218Y-106546153D01*
X181158921Y-106566670D01*
X181144671Y-106585883D01*
X181128607Y-106603607D01*
X181110883Y-106619671D01*
X181091670Y-106633921D01*
X181071153Y-106646218D01*
X181049529Y-106656446D01*
X181027007Y-106664504D01*
X181003803Y-106670316D01*
X180980142Y-106673826D01*
X180956250Y-106675000D01*
X180043750Y-106675000D01*
X180019858Y-106673826D01*
X179996197Y-106670316D01*
X179972993Y-106664504D01*
X179950471Y-106656446D01*
X179928847Y-106646218D01*
X179908330Y-106633921D01*
X179889117Y-106619671D01*
X179871393Y-106603607D01*
X179855329Y-106585883D01*
X179841079Y-106566670D01*
X179828782Y-106546153D01*
X179818554Y-106524529D01*
X179810496Y-106502007D01*
X179804684Y-106478803D01*
X179801174Y-106455142D01*
X179800000Y-106431250D01*
X179800000Y-105943750D01*
X179801174Y-105919858D01*
X179804684Y-105896197D01*
X179810496Y-105872993D01*
X179818554Y-105850471D01*
X179828782Y-105828847D01*
X179841079Y-105808330D01*
X179855329Y-105789117D01*
X179871393Y-105771393D01*
X179889117Y-105755329D01*
X179908330Y-105741079D01*
X179928847Y-105728782D01*
X179950471Y-105718554D01*
X179972993Y-105710496D01*
X179996197Y-105704684D01*
X180019858Y-105701174D01*
X180043750Y-105700000D01*
X180956250Y-105700000D01*
X180980142Y-105701174D01*
X180980142Y-105701174D01*
G37*
D19*
X180500000Y-106187500D03*
G04 #@! TD*
D13*
G04 #@! TO.C,C3*
G36*
X187480142Y-103826174D02*
X187503803Y-103829684D01*
X187527007Y-103835496D01*
X187549529Y-103843554D01*
X187571153Y-103853782D01*
X187591670Y-103866079D01*
X187610883Y-103880329D01*
X187628607Y-103896393D01*
X187644671Y-103914117D01*
X187658921Y-103933330D01*
X187671218Y-103953847D01*
X187681446Y-103975471D01*
X187689504Y-103997993D01*
X187695316Y-104021197D01*
X187698826Y-104044858D01*
X187700000Y-104068750D01*
X187700000Y-104556250D01*
X187698826Y-104580142D01*
X187695316Y-104603803D01*
X187689504Y-104627007D01*
X187681446Y-104649529D01*
X187671218Y-104671153D01*
X187658921Y-104691670D01*
X187644671Y-104710883D01*
X187628607Y-104728607D01*
X187610883Y-104744671D01*
X187591670Y-104758921D01*
X187571153Y-104771218D01*
X187549529Y-104781446D01*
X187527007Y-104789504D01*
X187503803Y-104795316D01*
X187480142Y-104798826D01*
X187456250Y-104800000D01*
X186543750Y-104800000D01*
X186519858Y-104798826D01*
X186496197Y-104795316D01*
X186472993Y-104789504D01*
X186450471Y-104781446D01*
X186428847Y-104771218D01*
X186408330Y-104758921D01*
X186389117Y-104744671D01*
X186371393Y-104728607D01*
X186355329Y-104710883D01*
X186341079Y-104691670D01*
X186328782Y-104671153D01*
X186318554Y-104649529D01*
X186310496Y-104627007D01*
X186304684Y-104603803D01*
X186301174Y-104580142D01*
X186300000Y-104556250D01*
X186300000Y-104068750D01*
X186301174Y-104044858D01*
X186304684Y-104021197D01*
X186310496Y-103997993D01*
X186318554Y-103975471D01*
X186328782Y-103953847D01*
X186341079Y-103933330D01*
X186355329Y-103914117D01*
X186371393Y-103896393D01*
X186389117Y-103880329D01*
X186408330Y-103866079D01*
X186428847Y-103853782D01*
X186450471Y-103843554D01*
X186472993Y-103835496D01*
X186496197Y-103829684D01*
X186519858Y-103826174D01*
X186543750Y-103825000D01*
X187456250Y-103825000D01*
X187480142Y-103826174D01*
X187480142Y-103826174D01*
G37*
D19*
X187000000Y-104312500D03*
D13*
G36*
X187480142Y-105701174D02*
X187503803Y-105704684D01*
X187527007Y-105710496D01*
X187549529Y-105718554D01*
X187571153Y-105728782D01*
X187591670Y-105741079D01*
X187610883Y-105755329D01*
X187628607Y-105771393D01*
X187644671Y-105789117D01*
X187658921Y-105808330D01*
X187671218Y-105828847D01*
X187681446Y-105850471D01*
X187689504Y-105872993D01*
X187695316Y-105896197D01*
X187698826Y-105919858D01*
X187700000Y-105943750D01*
X187700000Y-106431250D01*
X187698826Y-106455142D01*
X187695316Y-106478803D01*
X187689504Y-106502007D01*
X187681446Y-106524529D01*
X187671218Y-106546153D01*
X187658921Y-106566670D01*
X187644671Y-106585883D01*
X187628607Y-106603607D01*
X187610883Y-106619671D01*
X187591670Y-106633921D01*
X187571153Y-106646218D01*
X187549529Y-106656446D01*
X187527007Y-106664504D01*
X187503803Y-106670316D01*
X187480142Y-106673826D01*
X187456250Y-106675000D01*
X186543750Y-106675000D01*
X186519858Y-106673826D01*
X186496197Y-106670316D01*
X186472993Y-106664504D01*
X186450471Y-106656446D01*
X186428847Y-106646218D01*
X186408330Y-106633921D01*
X186389117Y-106619671D01*
X186371393Y-106603607D01*
X186355329Y-106585883D01*
X186341079Y-106566670D01*
X186328782Y-106546153D01*
X186318554Y-106524529D01*
X186310496Y-106502007D01*
X186304684Y-106478803D01*
X186301174Y-106455142D01*
X186300000Y-106431250D01*
X186300000Y-105943750D01*
X186301174Y-105919858D01*
X186304684Y-105896197D01*
X186310496Y-105872993D01*
X186318554Y-105850471D01*
X186328782Y-105828847D01*
X186341079Y-105808330D01*
X186355329Y-105789117D01*
X186371393Y-105771393D01*
X186389117Y-105755329D01*
X186408330Y-105741079D01*
X186428847Y-105728782D01*
X186450471Y-105718554D01*
X186472993Y-105710496D01*
X186496197Y-105704684D01*
X186519858Y-105701174D01*
X186543750Y-105700000D01*
X187456250Y-105700000D01*
X187480142Y-105701174D01*
X187480142Y-105701174D01*
G37*
D19*
X187000000Y-106187500D03*
G04 #@! TD*
D13*
G04 #@! TO.C,C10*
G36*
X146777691Y-105526053D02*
X146798926Y-105529203D01*
X146819750Y-105534419D01*
X146839962Y-105541651D01*
X146859368Y-105550830D01*
X146877781Y-105561866D01*
X146895024Y-105574654D01*
X146910930Y-105589070D01*
X146925346Y-105604976D01*
X146938134Y-105622219D01*
X146949170Y-105640632D01*
X146958349Y-105660038D01*
X146965581Y-105680250D01*
X146970797Y-105701074D01*
X146973947Y-105722309D01*
X146975000Y-105743750D01*
X146975000Y-106181250D01*
X146973947Y-106202691D01*
X146970797Y-106223926D01*
X146965581Y-106244750D01*
X146958349Y-106264962D01*
X146949170Y-106284368D01*
X146938134Y-106302781D01*
X146925346Y-106320024D01*
X146910930Y-106335930D01*
X146895024Y-106350346D01*
X146877781Y-106363134D01*
X146859368Y-106374170D01*
X146839962Y-106383349D01*
X146819750Y-106390581D01*
X146798926Y-106395797D01*
X146777691Y-106398947D01*
X146756250Y-106400000D01*
X146243750Y-106400000D01*
X146222309Y-106398947D01*
X146201074Y-106395797D01*
X146180250Y-106390581D01*
X146160038Y-106383349D01*
X146140632Y-106374170D01*
X146122219Y-106363134D01*
X146104976Y-106350346D01*
X146089070Y-106335930D01*
X146074654Y-106320024D01*
X146061866Y-106302781D01*
X146050830Y-106284368D01*
X146041651Y-106264962D01*
X146034419Y-106244750D01*
X146029203Y-106223926D01*
X146026053Y-106202691D01*
X146025000Y-106181250D01*
X146025000Y-105743750D01*
X146026053Y-105722309D01*
X146029203Y-105701074D01*
X146034419Y-105680250D01*
X146041651Y-105660038D01*
X146050830Y-105640632D01*
X146061866Y-105622219D01*
X146074654Y-105604976D01*
X146089070Y-105589070D01*
X146104976Y-105574654D01*
X146122219Y-105561866D01*
X146140632Y-105550830D01*
X146160038Y-105541651D01*
X146180250Y-105534419D01*
X146201074Y-105529203D01*
X146222309Y-105526053D01*
X146243750Y-105525000D01*
X146756250Y-105525000D01*
X146777691Y-105526053D01*
X146777691Y-105526053D01*
G37*
D14*
X146500000Y-105962500D03*
D13*
G36*
X146777691Y-107101053D02*
X146798926Y-107104203D01*
X146819750Y-107109419D01*
X146839962Y-107116651D01*
X146859368Y-107125830D01*
X146877781Y-107136866D01*
X146895024Y-107149654D01*
X146910930Y-107164070D01*
X146925346Y-107179976D01*
X146938134Y-107197219D01*
X146949170Y-107215632D01*
X146958349Y-107235038D01*
X146965581Y-107255250D01*
X146970797Y-107276074D01*
X146973947Y-107297309D01*
X146975000Y-107318750D01*
X146975000Y-107756250D01*
X146973947Y-107777691D01*
X146970797Y-107798926D01*
X146965581Y-107819750D01*
X146958349Y-107839962D01*
X146949170Y-107859368D01*
X146938134Y-107877781D01*
X146925346Y-107895024D01*
X146910930Y-107910930D01*
X146895024Y-107925346D01*
X146877781Y-107938134D01*
X146859368Y-107949170D01*
X146839962Y-107958349D01*
X146819750Y-107965581D01*
X146798926Y-107970797D01*
X146777691Y-107973947D01*
X146756250Y-107975000D01*
X146243750Y-107975000D01*
X146222309Y-107973947D01*
X146201074Y-107970797D01*
X146180250Y-107965581D01*
X146160038Y-107958349D01*
X146140632Y-107949170D01*
X146122219Y-107938134D01*
X146104976Y-107925346D01*
X146089070Y-107910930D01*
X146074654Y-107895024D01*
X146061866Y-107877781D01*
X146050830Y-107859368D01*
X146041651Y-107839962D01*
X146034419Y-107819750D01*
X146029203Y-107798926D01*
X146026053Y-107777691D01*
X146025000Y-107756250D01*
X146025000Y-107318750D01*
X146026053Y-107297309D01*
X146029203Y-107276074D01*
X146034419Y-107255250D01*
X146041651Y-107235038D01*
X146050830Y-107215632D01*
X146061866Y-107197219D01*
X146074654Y-107179976D01*
X146089070Y-107164070D01*
X146104976Y-107149654D01*
X146122219Y-107136866D01*
X146140632Y-107125830D01*
X146160038Y-107116651D01*
X146180250Y-107109419D01*
X146201074Y-107104203D01*
X146222309Y-107101053D01*
X146243750Y-107100000D01*
X146756250Y-107100000D01*
X146777691Y-107101053D01*
X146777691Y-107101053D01*
G37*
D14*
X146500000Y-107537500D03*
G04 #@! TD*
D13*
G04 #@! TO.C,R4*
G36*
X157527691Y-116026053D02*
X157548926Y-116029203D01*
X157569750Y-116034419D01*
X157589962Y-116041651D01*
X157609368Y-116050830D01*
X157627781Y-116061866D01*
X157645024Y-116074654D01*
X157660930Y-116089070D01*
X157675346Y-116104976D01*
X157688134Y-116122219D01*
X157699170Y-116140632D01*
X157708349Y-116160038D01*
X157715581Y-116180250D01*
X157720797Y-116201074D01*
X157723947Y-116222309D01*
X157725000Y-116243750D01*
X157725000Y-116681250D01*
X157723947Y-116702691D01*
X157720797Y-116723926D01*
X157715581Y-116744750D01*
X157708349Y-116764962D01*
X157699170Y-116784368D01*
X157688134Y-116802781D01*
X157675346Y-116820024D01*
X157660930Y-116835930D01*
X157645024Y-116850346D01*
X157627781Y-116863134D01*
X157609368Y-116874170D01*
X157589962Y-116883349D01*
X157569750Y-116890581D01*
X157548926Y-116895797D01*
X157527691Y-116898947D01*
X157506250Y-116900000D01*
X156993750Y-116900000D01*
X156972309Y-116898947D01*
X156951074Y-116895797D01*
X156930250Y-116890581D01*
X156910038Y-116883349D01*
X156890632Y-116874170D01*
X156872219Y-116863134D01*
X156854976Y-116850346D01*
X156839070Y-116835930D01*
X156824654Y-116820024D01*
X156811866Y-116802781D01*
X156800830Y-116784368D01*
X156791651Y-116764962D01*
X156784419Y-116744750D01*
X156779203Y-116723926D01*
X156776053Y-116702691D01*
X156775000Y-116681250D01*
X156775000Y-116243750D01*
X156776053Y-116222309D01*
X156779203Y-116201074D01*
X156784419Y-116180250D01*
X156791651Y-116160038D01*
X156800830Y-116140632D01*
X156811866Y-116122219D01*
X156824654Y-116104976D01*
X156839070Y-116089070D01*
X156854976Y-116074654D01*
X156872219Y-116061866D01*
X156890632Y-116050830D01*
X156910038Y-116041651D01*
X156930250Y-116034419D01*
X156951074Y-116029203D01*
X156972309Y-116026053D01*
X156993750Y-116025000D01*
X157506250Y-116025000D01*
X157527691Y-116026053D01*
X157527691Y-116026053D01*
G37*
D14*
X157250000Y-116462500D03*
D13*
G36*
X157527691Y-117601053D02*
X157548926Y-117604203D01*
X157569750Y-117609419D01*
X157589962Y-117616651D01*
X157609368Y-117625830D01*
X157627781Y-117636866D01*
X157645024Y-117649654D01*
X157660930Y-117664070D01*
X157675346Y-117679976D01*
X157688134Y-117697219D01*
X157699170Y-117715632D01*
X157708349Y-117735038D01*
X157715581Y-117755250D01*
X157720797Y-117776074D01*
X157723947Y-117797309D01*
X157725000Y-117818750D01*
X157725000Y-118256250D01*
X157723947Y-118277691D01*
X157720797Y-118298926D01*
X157715581Y-118319750D01*
X157708349Y-118339962D01*
X157699170Y-118359368D01*
X157688134Y-118377781D01*
X157675346Y-118395024D01*
X157660930Y-118410930D01*
X157645024Y-118425346D01*
X157627781Y-118438134D01*
X157609368Y-118449170D01*
X157589962Y-118458349D01*
X157569750Y-118465581D01*
X157548926Y-118470797D01*
X157527691Y-118473947D01*
X157506250Y-118475000D01*
X156993750Y-118475000D01*
X156972309Y-118473947D01*
X156951074Y-118470797D01*
X156930250Y-118465581D01*
X156910038Y-118458349D01*
X156890632Y-118449170D01*
X156872219Y-118438134D01*
X156854976Y-118425346D01*
X156839070Y-118410930D01*
X156824654Y-118395024D01*
X156811866Y-118377781D01*
X156800830Y-118359368D01*
X156791651Y-118339962D01*
X156784419Y-118319750D01*
X156779203Y-118298926D01*
X156776053Y-118277691D01*
X156775000Y-118256250D01*
X156775000Y-117818750D01*
X156776053Y-117797309D01*
X156779203Y-117776074D01*
X156784419Y-117755250D01*
X156791651Y-117735038D01*
X156800830Y-117715632D01*
X156811866Y-117697219D01*
X156824654Y-117679976D01*
X156839070Y-117664070D01*
X156854976Y-117649654D01*
X156872219Y-117636866D01*
X156890632Y-117625830D01*
X156910038Y-117616651D01*
X156930250Y-117609419D01*
X156951074Y-117604203D01*
X156972309Y-117601053D01*
X156993750Y-117600000D01*
X157506250Y-117600000D01*
X157527691Y-117601053D01*
X157527691Y-117601053D01*
G37*
D14*
X157250000Y-118037500D03*
G04 #@! TD*
D13*
G04 #@! TO.C,R5*
G36*
X153277691Y-107101053D02*
X153298926Y-107104203D01*
X153319750Y-107109419D01*
X153339962Y-107116651D01*
X153359368Y-107125830D01*
X153377781Y-107136866D01*
X153395024Y-107149654D01*
X153410930Y-107164070D01*
X153425346Y-107179976D01*
X153438134Y-107197219D01*
X153449170Y-107215632D01*
X153458349Y-107235038D01*
X153465581Y-107255250D01*
X153470797Y-107276074D01*
X153473947Y-107297309D01*
X153475000Y-107318750D01*
X153475000Y-107756250D01*
X153473947Y-107777691D01*
X153470797Y-107798926D01*
X153465581Y-107819750D01*
X153458349Y-107839962D01*
X153449170Y-107859368D01*
X153438134Y-107877781D01*
X153425346Y-107895024D01*
X153410930Y-107910930D01*
X153395024Y-107925346D01*
X153377781Y-107938134D01*
X153359368Y-107949170D01*
X153339962Y-107958349D01*
X153319750Y-107965581D01*
X153298926Y-107970797D01*
X153277691Y-107973947D01*
X153256250Y-107975000D01*
X152743750Y-107975000D01*
X152722309Y-107973947D01*
X152701074Y-107970797D01*
X152680250Y-107965581D01*
X152660038Y-107958349D01*
X152640632Y-107949170D01*
X152622219Y-107938134D01*
X152604976Y-107925346D01*
X152589070Y-107910930D01*
X152574654Y-107895024D01*
X152561866Y-107877781D01*
X152550830Y-107859368D01*
X152541651Y-107839962D01*
X152534419Y-107819750D01*
X152529203Y-107798926D01*
X152526053Y-107777691D01*
X152525000Y-107756250D01*
X152525000Y-107318750D01*
X152526053Y-107297309D01*
X152529203Y-107276074D01*
X152534419Y-107255250D01*
X152541651Y-107235038D01*
X152550830Y-107215632D01*
X152561866Y-107197219D01*
X152574654Y-107179976D01*
X152589070Y-107164070D01*
X152604976Y-107149654D01*
X152622219Y-107136866D01*
X152640632Y-107125830D01*
X152660038Y-107116651D01*
X152680250Y-107109419D01*
X152701074Y-107104203D01*
X152722309Y-107101053D01*
X152743750Y-107100000D01*
X153256250Y-107100000D01*
X153277691Y-107101053D01*
X153277691Y-107101053D01*
G37*
D14*
X153000000Y-107537500D03*
D13*
G36*
X153277691Y-105526053D02*
X153298926Y-105529203D01*
X153319750Y-105534419D01*
X153339962Y-105541651D01*
X153359368Y-105550830D01*
X153377781Y-105561866D01*
X153395024Y-105574654D01*
X153410930Y-105589070D01*
X153425346Y-105604976D01*
X153438134Y-105622219D01*
X153449170Y-105640632D01*
X153458349Y-105660038D01*
X153465581Y-105680250D01*
X153470797Y-105701074D01*
X153473947Y-105722309D01*
X153475000Y-105743750D01*
X153475000Y-106181250D01*
X153473947Y-106202691D01*
X153470797Y-106223926D01*
X153465581Y-106244750D01*
X153458349Y-106264962D01*
X153449170Y-106284368D01*
X153438134Y-106302781D01*
X153425346Y-106320024D01*
X153410930Y-106335930D01*
X153395024Y-106350346D01*
X153377781Y-106363134D01*
X153359368Y-106374170D01*
X153339962Y-106383349D01*
X153319750Y-106390581D01*
X153298926Y-106395797D01*
X153277691Y-106398947D01*
X153256250Y-106400000D01*
X152743750Y-106400000D01*
X152722309Y-106398947D01*
X152701074Y-106395797D01*
X152680250Y-106390581D01*
X152660038Y-106383349D01*
X152640632Y-106374170D01*
X152622219Y-106363134D01*
X152604976Y-106350346D01*
X152589070Y-106335930D01*
X152574654Y-106320024D01*
X152561866Y-106302781D01*
X152550830Y-106284368D01*
X152541651Y-106264962D01*
X152534419Y-106244750D01*
X152529203Y-106223926D01*
X152526053Y-106202691D01*
X152525000Y-106181250D01*
X152525000Y-105743750D01*
X152526053Y-105722309D01*
X152529203Y-105701074D01*
X152534419Y-105680250D01*
X152541651Y-105660038D01*
X152550830Y-105640632D01*
X152561866Y-105622219D01*
X152574654Y-105604976D01*
X152589070Y-105589070D01*
X152604976Y-105574654D01*
X152622219Y-105561866D01*
X152640632Y-105550830D01*
X152660038Y-105541651D01*
X152680250Y-105534419D01*
X152701074Y-105529203D01*
X152722309Y-105526053D01*
X152743750Y-105525000D01*
X153256250Y-105525000D01*
X153277691Y-105526053D01*
X153277691Y-105526053D01*
G37*
D14*
X153000000Y-105962500D03*
G04 #@! TD*
D13*
G04 #@! TO.C,R6*
G36*
X155027691Y-107101053D02*
X155048926Y-107104203D01*
X155069750Y-107109419D01*
X155089962Y-107116651D01*
X155109368Y-107125830D01*
X155127781Y-107136866D01*
X155145024Y-107149654D01*
X155160930Y-107164070D01*
X155175346Y-107179976D01*
X155188134Y-107197219D01*
X155199170Y-107215632D01*
X155208349Y-107235038D01*
X155215581Y-107255250D01*
X155220797Y-107276074D01*
X155223947Y-107297309D01*
X155225000Y-107318750D01*
X155225000Y-107756250D01*
X155223947Y-107777691D01*
X155220797Y-107798926D01*
X155215581Y-107819750D01*
X155208349Y-107839962D01*
X155199170Y-107859368D01*
X155188134Y-107877781D01*
X155175346Y-107895024D01*
X155160930Y-107910930D01*
X155145024Y-107925346D01*
X155127781Y-107938134D01*
X155109368Y-107949170D01*
X155089962Y-107958349D01*
X155069750Y-107965581D01*
X155048926Y-107970797D01*
X155027691Y-107973947D01*
X155006250Y-107975000D01*
X154493750Y-107975000D01*
X154472309Y-107973947D01*
X154451074Y-107970797D01*
X154430250Y-107965581D01*
X154410038Y-107958349D01*
X154390632Y-107949170D01*
X154372219Y-107938134D01*
X154354976Y-107925346D01*
X154339070Y-107910930D01*
X154324654Y-107895024D01*
X154311866Y-107877781D01*
X154300830Y-107859368D01*
X154291651Y-107839962D01*
X154284419Y-107819750D01*
X154279203Y-107798926D01*
X154276053Y-107777691D01*
X154275000Y-107756250D01*
X154275000Y-107318750D01*
X154276053Y-107297309D01*
X154279203Y-107276074D01*
X154284419Y-107255250D01*
X154291651Y-107235038D01*
X154300830Y-107215632D01*
X154311866Y-107197219D01*
X154324654Y-107179976D01*
X154339070Y-107164070D01*
X154354976Y-107149654D01*
X154372219Y-107136866D01*
X154390632Y-107125830D01*
X154410038Y-107116651D01*
X154430250Y-107109419D01*
X154451074Y-107104203D01*
X154472309Y-107101053D01*
X154493750Y-107100000D01*
X155006250Y-107100000D01*
X155027691Y-107101053D01*
X155027691Y-107101053D01*
G37*
D14*
X154750000Y-107537500D03*
D13*
G36*
X155027691Y-105526053D02*
X155048926Y-105529203D01*
X155069750Y-105534419D01*
X155089962Y-105541651D01*
X155109368Y-105550830D01*
X155127781Y-105561866D01*
X155145024Y-105574654D01*
X155160930Y-105589070D01*
X155175346Y-105604976D01*
X155188134Y-105622219D01*
X155199170Y-105640632D01*
X155208349Y-105660038D01*
X155215581Y-105680250D01*
X155220797Y-105701074D01*
X155223947Y-105722309D01*
X155225000Y-105743750D01*
X155225000Y-106181250D01*
X155223947Y-106202691D01*
X155220797Y-106223926D01*
X155215581Y-106244750D01*
X155208349Y-106264962D01*
X155199170Y-106284368D01*
X155188134Y-106302781D01*
X155175346Y-106320024D01*
X155160930Y-106335930D01*
X155145024Y-106350346D01*
X155127781Y-106363134D01*
X155109368Y-106374170D01*
X155089962Y-106383349D01*
X155069750Y-106390581D01*
X155048926Y-106395797D01*
X155027691Y-106398947D01*
X155006250Y-106400000D01*
X154493750Y-106400000D01*
X154472309Y-106398947D01*
X154451074Y-106395797D01*
X154430250Y-106390581D01*
X154410038Y-106383349D01*
X154390632Y-106374170D01*
X154372219Y-106363134D01*
X154354976Y-106350346D01*
X154339070Y-106335930D01*
X154324654Y-106320024D01*
X154311866Y-106302781D01*
X154300830Y-106284368D01*
X154291651Y-106264962D01*
X154284419Y-106244750D01*
X154279203Y-106223926D01*
X154276053Y-106202691D01*
X154275000Y-106181250D01*
X154275000Y-105743750D01*
X154276053Y-105722309D01*
X154279203Y-105701074D01*
X154284419Y-105680250D01*
X154291651Y-105660038D01*
X154300830Y-105640632D01*
X154311866Y-105622219D01*
X154324654Y-105604976D01*
X154339070Y-105589070D01*
X154354976Y-105574654D01*
X154372219Y-105561866D01*
X154390632Y-105550830D01*
X154410038Y-105541651D01*
X154430250Y-105534419D01*
X154451074Y-105529203D01*
X154472309Y-105526053D01*
X154493750Y-105525000D01*
X155006250Y-105525000D01*
X155027691Y-105526053D01*
X155027691Y-105526053D01*
G37*
D14*
X154750000Y-105962500D03*
G04 #@! TD*
D22*
G04 #@! TO.C,IC7*
X150762500Y-106500000D03*
X150762500Y-107000000D03*
X149237500Y-106500000D03*
X149237500Y-107000000D03*
X150762500Y-107500000D03*
X149237500Y-107500000D03*
X150762500Y-106000000D03*
X149237500Y-106000000D03*
D23*
X150250000Y-107512500D03*
X149750000Y-107512500D03*
X149750000Y-105987500D03*
X150250000Y-105987500D03*
G04 #@! TD*
D13*
G04 #@! TO.C,C11*
G36*
X172354805Y-114753274D02*
X172376040Y-114756424D01*
X172396864Y-114761640D01*
X172417076Y-114768872D01*
X172436482Y-114778051D01*
X172454895Y-114789087D01*
X172472138Y-114801875D01*
X172488044Y-114816291D01*
X172797403Y-115125650D01*
X172811819Y-115141556D01*
X172824607Y-115158799D01*
X172835643Y-115177212D01*
X172844822Y-115196618D01*
X172852054Y-115216830D01*
X172857270Y-115237654D01*
X172860420Y-115258889D01*
X172861473Y-115280330D01*
X172860420Y-115301771D01*
X172857270Y-115323006D01*
X172852054Y-115343830D01*
X172844822Y-115364042D01*
X172835643Y-115383448D01*
X172824607Y-115401861D01*
X172811819Y-115419104D01*
X172797403Y-115435010D01*
X172435010Y-115797403D01*
X172419104Y-115811819D01*
X172401861Y-115824607D01*
X172383448Y-115835643D01*
X172364042Y-115844822D01*
X172343830Y-115852054D01*
X172323006Y-115857270D01*
X172301771Y-115860420D01*
X172280330Y-115861473D01*
X172258889Y-115860420D01*
X172237654Y-115857270D01*
X172216830Y-115852054D01*
X172196618Y-115844822D01*
X172177212Y-115835643D01*
X172158799Y-115824607D01*
X172141556Y-115811819D01*
X172125650Y-115797403D01*
X171816291Y-115488044D01*
X171801875Y-115472138D01*
X171789087Y-115454895D01*
X171778051Y-115436482D01*
X171768872Y-115417076D01*
X171761640Y-115396864D01*
X171756424Y-115376040D01*
X171753274Y-115354805D01*
X171752221Y-115333364D01*
X171753274Y-115311923D01*
X171756424Y-115290688D01*
X171761640Y-115269864D01*
X171768872Y-115249652D01*
X171778051Y-115230246D01*
X171789087Y-115211833D01*
X171801875Y-115194590D01*
X171816291Y-115178684D01*
X172178684Y-114816291D01*
X172194590Y-114801875D01*
X172211833Y-114789087D01*
X172230246Y-114778051D01*
X172249652Y-114768872D01*
X172269864Y-114761640D01*
X172290688Y-114756424D01*
X172311923Y-114753274D01*
X172333364Y-114752221D01*
X172354805Y-114753274D01*
X172354805Y-114753274D01*
G37*
D14*
X172306847Y-115306847D03*
D13*
G36*
X171241111Y-113639580D02*
X171262346Y-113642730D01*
X171283170Y-113647946D01*
X171303382Y-113655178D01*
X171322788Y-113664357D01*
X171341201Y-113675393D01*
X171358444Y-113688181D01*
X171374350Y-113702597D01*
X171683709Y-114011956D01*
X171698125Y-114027862D01*
X171710913Y-114045105D01*
X171721949Y-114063518D01*
X171731128Y-114082924D01*
X171738360Y-114103136D01*
X171743576Y-114123960D01*
X171746726Y-114145195D01*
X171747779Y-114166636D01*
X171746726Y-114188077D01*
X171743576Y-114209312D01*
X171738360Y-114230136D01*
X171731128Y-114250348D01*
X171721949Y-114269754D01*
X171710913Y-114288167D01*
X171698125Y-114305410D01*
X171683709Y-114321316D01*
X171321316Y-114683709D01*
X171305410Y-114698125D01*
X171288167Y-114710913D01*
X171269754Y-114721949D01*
X171250348Y-114731128D01*
X171230136Y-114738360D01*
X171209312Y-114743576D01*
X171188077Y-114746726D01*
X171166636Y-114747779D01*
X171145195Y-114746726D01*
X171123960Y-114743576D01*
X171103136Y-114738360D01*
X171082924Y-114731128D01*
X171063518Y-114721949D01*
X171045105Y-114710913D01*
X171027862Y-114698125D01*
X171011956Y-114683709D01*
X170702597Y-114374350D01*
X170688181Y-114358444D01*
X170675393Y-114341201D01*
X170664357Y-114322788D01*
X170655178Y-114303382D01*
X170647946Y-114283170D01*
X170642730Y-114262346D01*
X170639580Y-114241111D01*
X170638527Y-114219670D01*
X170639580Y-114198229D01*
X170642730Y-114176994D01*
X170647946Y-114156170D01*
X170655178Y-114135958D01*
X170664357Y-114116552D01*
X170675393Y-114098139D01*
X170688181Y-114080896D01*
X170702597Y-114064990D01*
X171064990Y-113702597D01*
X171080896Y-113688181D01*
X171098139Y-113675393D01*
X171116552Y-113664357D01*
X171135958Y-113655178D01*
X171156170Y-113647946D01*
X171176994Y-113642730D01*
X171198229Y-113639580D01*
X171219670Y-113638527D01*
X171241111Y-113639580D01*
X171241111Y-113639580D01*
G37*
D14*
X171193153Y-114193153D03*
G04 #@! TD*
D13*
G04 #@! TO.C,C15*
G36*
X169991111Y-114889580D02*
X170012346Y-114892730D01*
X170033170Y-114897946D01*
X170053382Y-114905178D01*
X170072788Y-114914357D01*
X170091201Y-114925393D01*
X170108444Y-114938181D01*
X170124350Y-114952597D01*
X170433709Y-115261956D01*
X170448125Y-115277862D01*
X170460913Y-115295105D01*
X170471949Y-115313518D01*
X170481128Y-115332924D01*
X170488360Y-115353136D01*
X170493576Y-115373960D01*
X170496726Y-115395195D01*
X170497779Y-115416636D01*
X170496726Y-115438077D01*
X170493576Y-115459312D01*
X170488360Y-115480136D01*
X170481128Y-115500348D01*
X170471949Y-115519754D01*
X170460913Y-115538167D01*
X170448125Y-115555410D01*
X170433709Y-115571316D01*
X170071316Y-115933709D01*
X170055410Y-115948125D01*
X170038167Y-115960913D01*
X170019754Y-115971949D01*
X170000348Y-115981128D01*
X169980136Y-115988360D01*
X169959312Y-115993576D01*
X169938077Y-115996726D01*
X169916636Y-115997779D01*
X169895195Y-115996726D01*
X169873960Y-115993576D01*
X169853136Y-115988360D01*
X169832924Y-115981128D01*
X169813518Y-115971949D01*
X169795105Y-115960913D01*
X169777862Y-115948125D01*
X169761956Y-115933709D01*
X169452597Y-115624350D01*
X169438181Y-115608444D01*
X169425393Y-115591201D01*
X169414357Y-115572788D01*
X169405178Y-115553382D01*
X169397946Y-115533170D01*
X169392730Y-115512346D01*
X169389580Y-115491111D01*
X169388527Y-115469670D01*
X169389580Y-115448229D01*
X169392730Y-115426994D01*
X169397946Y-115406170D01*
X169405178Y-115385958D01*
X169414357Y-115366552D01*
X169425393Y-115348139D01*
X169438181Y-115330896D01*
X169452597Y-115314990D01*
X169814990Y-114952597D01*
X169830896Y-114938181D01*
X169848139Y-114925393D01*
X169866552Y-114914357D01*
X169885958Y-114905178D01*
X169906170Y-114897946D01*
X169926994Y-114892730D01*
X169948229Y-114889580D01*
X169969670Y-114888527D01*
X169991111Y-114889580D01*
X169991111Y-114889580D01*
G37*
D14*
X169943153Y-115443153D03*
D13*
G36*
X171104805Y-116003274D02*
X171126040Y-116006424D01*
X171146864Y-116011640D01*
X171167076Y-116018872D01*
X171186482Y-116028051D01*
X171204895Y-116039087D01*
X171222138Y-116051875D01*
X171238044Y-116066291D01*
X171547403Y-116375650D01*
X171561819Y-116391556D01*
X171574607Y-116408799D01*
X171585643Y-116427212D01*
X171594822Y-116446618D01*
X171602054Y-116466830D01*
X171607270Y-116487654D01*
X171610420Y-116508889D01*
X171611473Y-116530330D01*
X171610420Y-116551771D01*
X171607270Y-116573006D01*
X171602054Y-116593830D01*
X171594822Y-116614042D01*
X171585643Y-116633448D01*
X171574607Y-116651861D01*
X171561819Y-116669104D01*
X171547403Y-116685010D01*
X171185010Y-117047403D01*
X171169104Y-117061819D01*
X171151861Y-117074607D01*
X171133448Y-117085643D01*
X171114042Y-117094822D01*
X171093830Y-117102054D01*
X171073006Y-117107270D01*
X171051771Y-117110420D01*
X171030330Y-117111473D01*
X171008889Y-117110420D01*
X170987654Y-117107270D01*
X170966830Y-117102054D01*
X170946618Y-117094822D01*
X170927212Y-117085643D01*
X170908799Y-117074607D01*
X170891556Y-117061819D01*
X170875650Y-117047403D01*
X170566291Y-116738044D01*
X170551875Y-116722138D01*
X170539087Y-116704895D01*
X170528051Y-116686482D01*
X170518872Y-116667076D01*
X170511640Y-116646864D01*
X170506424Y-116626040D01*
X170503274Y-116604805D01*
X170502221Y-116583364D01*
X170503274Y-116561923D01*
X170506424Y-116540688D01*
X170511640Y-116519864D01*
X170518872Y-116499652D01*
X170528051Y-116480246D01*
X170539087Y-116461833D01*
X170551875Y-116444590D01*
X170566291Y-116428684D01*
X170928684Y-116066291D01*
X170944590Y-116051875D01*
X170961833Y-116039087D01*
X170980246Y-116028051D01*
X170999652Y-116018872D01*
X171019864Y-116011640D01*
X171040688Y-116006424D01*
X171061923Y-116003274D01*
X171083364Y-116002221D01*
X171104805Y-116003274D01*
X171104805Y-116003274D01*
G37*
D14*
X171056847Y-116556847D03*
G04 #@! TD*
D13*
G04 #@! TO.C,C12*
G36*
X174241111Y-110639580D02*
X174262346Y-110642730D01*
X174283170Y-110647946D01*
X174303382Y-110655178D01*
X174322788Y-110664357D01*
X174341201Y-110675393D01*
X174358444Y-110688181D01*
X174374350Y-110702597D01*
X174683709Y-111011956D01*
X174698125Y-111027862D01*
X174710913Y-111045105D01*
X174721949Y-111063518D01*
X174731128Y-111082924D01*
X174738360Y-111103136D01*
X174743576Y-111123960D01*
X174746726Y-111145195D01*
X174747779Y-111166636D01*
X174746726Y-111188077D01*
X174743576Y-111209312D01*
X174738360Y-111230136D01*
X174731128Y-111250348D01*
X174721949Y-111269754D01*
X174710913Y-111288167D01*
X174698125Y-111305410D01*
X174683709Y-111321316D01*
X174321316Y-111683709D01*
X174305410Y-111698125D01*
X174288167Y-111710913D01*
X174269754Y-111721949D01*
X174250348Y-111731128D01*
X174230136Y-111738360D01*
X174209312Y-111743576D01*
X174188077Y-111746726D01*
X174166636Y-111747779D01*
X174145195Y-111746726D01*
X174123960Y-111743576D01*
X174103136Y-111738360D01*
X174082924Y-111731128D01*
X174063518Y-111721949D01*
X174045105Y-111710913D01*
X174027862Y-111698125D01*
X174011956Y-111683709D01*
X173702597Y-111374350D01*
X173688181Y-111358444D01*
X173675393Y-111341201D01*
X173664357Y-111322788D01*
X173655178Y-111303382D01*
X173647946Y-111283170D01*
X173642730Y-111262346D01*
X173639580Y-111241111D01*
X173638527Y-111219670D01*
X173639580Y-111198229D01*
X173642730Y-111176994D01*
X173647946Y-111156170D01*
X173655178Y-111135958D01*
X173664357Y-111116552D01*
X173675393Y-111098139D01*
X173688181Y-111080896D01*
X173702597Y-111064990D01*
X174064990Y-110702597D01*
X174080896Y-110688181D01*
X174098139Y-110675393D01*
X174116552Y-110664357D01*
X174135958Y-110655178D01*
X174156170Y-110647946D01*
X174176994Y-110642730D01*
X174198229Y-110639580D01*
X174219670Y-110638527D01*
X174241111Y-110639580D01*
X174241111Y-110639580D01*
G37*
D14*
X174193153Y-111193153D03*
D13*
G36*
X175354805Y-111753274D02*
X175376040Y-111756424D01*
X175396864Y-111761640D01*
X175417076Y-111768872D01*
X175436482Y-111778051D01*
X175454895Y-111789087D01*
X175472138Y-111801875D01*
X175488044Y-111816291D01*
X175797403Y-112125650D01*
X175811819Y-112141556D01*
X175824607Y-112158799D01*
X175835643Y-112177212D01*
X175844822Y-112196618D01*
X175852054Y-112216830D01*
X175857270Y-112237654D01*
X175860420Y-112258889D01*
X175861473Y-112280330D01*
X175860420Y-112301771D01*
X175857270Y-112323006D01*
X175852054Y-112343830D01*
X175844822Y-112364042D01*
X175835643Y-112383448D01*
X175824607Y-112401861D01*
X175811819Y-112419104D01*
X175797403Y-112435010D01*
X175435010Y-112797403D01*
X175419104Y-112811819D01*
X175401861Y-112824607D01*
X175383448Y-112835643D01*
X175364042Y-112844822D01*
X175343830Y-112852054D01*
X175323006Y-112857270D01*
X175301771Y-112860420D01*
X175280330Y-112861473D01*
X175258889Y-112860420D01*
X175237654Y-112857270D01*
X175216830Y-112852054D01*
X175196618Y-112844822D01*
X175177212Y-112835643D01*
X175158799Y-112824607D01*
X175141556Y-112811819D01*
X175125650Y-112797403D01*
X174816291Y-112488044D01*
X174801875Y-112472138D01*
X174789087Y-112454895D01*
X174778051Y-112436482D01*
X174768872Y-112417076D01*
X174761640Y-112396864D01*
X174756424Y-112376040D01*
X174753274Y-112354805D01*
X174752221Y-112333364D01*
X174753274Y-112311923D01*
X174756424Y-112290688D01*
X174761640Y-112269864D01*
X174768872Y-112249652D01*
X174778051Y-112230246D01*
X174789087Y-112211833D01*
X174801875Y-112194590D01*
X174816291Y-112178684D01*
X175178684Y-111816291D01*
X175194590Y-111801875D01*
X175211833Y-111789087D01*
X175230246Y-111778051D01*
X175249652Y-111768872D01*
X175269864Y-111761640D01*
X175290688Y-111756424D01*
X175311923Y-111753274D01*
X175333364Y-111752221D01*
X175354805Y-111753274D01*
X175354805Y-111753274D01*
G37*
D14*
X175306847Y-112306847D03*
G04 #@! TD*
D13*
G04 #@! TO.C,C13*
G36*
X134027691Y-68601053D02*
X134048926Y-68604203D01*
X134069750Y-68609419D01*
X134089962Y-68616651D01*
X134109368Y-68625830D01*
X134127781Y-68636866D01*
X134145024Y-68649654D01*
X134160930Y-68664070D01*
X134175346Y-68679976D01*
X134188134Y-68697219D01*
X134199170Y-68715632D01*
X134208349Y-68735038D01*
X134215581Y-68755250D01*
X134220797Y-68776074D01*
X134223947Y-68797309D01*
X134225000Y-68818750D01*
X134225000Y-69256250D01*
X134223947Y-69277691D01*
X134220797Y-69298926D01*
X134215581Y-69319750D01*
X134208349Y-69339962D01*
X134199170Y-69359368D01*
X134188134Y-69377781D01*
X134175346Y-69395024D01*
X134160930Y-69410930D01*
X134145024Y-69425346D01*
X134127781Y-69438134D01*
X134109368Y-69449170D01*
X134089962Y-69458349D01*
X134069750Y-69465581D01*
X134048926Y-69470797D01*
X134027691Y-69473947D01*
X134006250Y-69475000D01*
X133493750Y-69475000D01*
X133472309Y-69473947D01*
X133451074Y-69470797D01*
X133430250Y-69465581D01*
X133410038Y-69458349D01*
X133390632Y-69449170D01*
X133372219Y-69438134D01*
X133354976Y-69425346D01*
X133339070Y-69410930D01*
X133324654Y-69395024D01*
X133311866Y-69377781D01*
X133300830Y-69359368D01*
X133291651Y-69339962D01*
X133284419Y-69319750D01*
X133279203Y-69298926D01*
X133276053Y-69277691D01*
X133275000Y-69256250D01*
X133275000Y-68818750D01*
X133276053Y-68797309D01*
X133279203Y-68776074D01*
X133284419Y-68755250D01*
X133291651Y-68735038D01*
X133300830Y-68715632D01*
X133311866Y-68697219D01*
X133324654Y-68679976D01*
X133339070Y-68664070D01*
X133354976Y-68649654D01*
X133372219Y-68636866D01*
X133390632Y-68625830D01*
X133410038Y-68616651D01*
X133430250Y-68609419D01*
X133451074Y-68604203D01*
X133472309Y-68601053D01*
X133493750Y-68600000D01*
X134006250Y-68600000D01*
X134027691Y-68601053D01*
X134027691Y-68601053D01*
G37*
D14*
X133750000Y-69037500D03*
D13*
G36*
X134027691Y-67026053D02*
X134048926Y-67029203D01*
X134069750Y-67034419D01*
X134089962Y-67041651D01*
X134109368Y-67050830D01*
X134127781Y-67061866D01*
X134145024Y-67074654D01*
X134160930Y-67089070D01*
X134175346Y-67104976D01*
X134188134Y-67122219D01*
X134199170Y-67140632D01*
X134208349Y-67160038D01*
X134215581Y-67180250D01*
X134220797Y-67201074D01*
X134223947Y-67222309D01*
X134225000Y-67243750D01*
X134225000Y-67681250D01*
X134223947Y-67702691D01*
X134220797Y-67723926D01*
X134215581Y-67744750D01*
X134208349Y-67764962D01*
X134199170Y-67784368D01*
X134188134Y-67802781D01*
X134175346Y-67820024D01*
X134160930Y-67835930D01*
X134145024Y-67850346D01*
X134127781Y-67863134D01*
X134109368Y-67874170D01*
X134089962Y-67883349D01*
X134069750Y-67890581D01*
X134048926Y-67895797D01*
X134027691Y-67898947D01*
X134006250Y-67900000D01*
X133493750Y-67900000D01*
X133472309Y-67898947D01*
X133451074Y-67895797D01*
X133430250Y-67890581D01*
X133410038Y-67883349D01*
X133390632Y-67874170D01*
X133372219Y-67863134D01*
X133354976Y-67850346D01*
X133339070Y-67835930D01*
X133324654Y-67820024D01*
X133311866Y-67802781D01*
X133300830Y-67784368D01*
X133291651Y-67764962D01*
X133284419Y-67744750D01*
X133279203Y-67723926D01*
X133276053Y-67702691D01*
X133275000Y-67681250D01*
X133275000Y-67243750D01*
X133276053Y-67222309D01*
X133279203Y-67201074D01*
X133284419Y-67180250D01*
X133291651Y-67160038D01*
X133300830Y-67140632D01*
X133311866Y-67122219D01*
X133324654Y-67104976D01*
X133339070Y-67089070D01*
X133354976Y-67074654D01*
X133372219Y-67061866D01*
X133390632Y-67050830D01*
X133410038Y-67041651D01*
X133430250Y-67034419D01*
X133451074Y-67029203D01*
X133472309Y-67026053D01*
X133493750Y-67025000D01*
X134006250Y-67025000D01*
X134027691Y-67026053D01*
X134027691Y-67026053D01*
G37*
D14*
X133750000Y-67462500D03*
G04 #@! TD*
D13*
G04 #@! TO.C,C14*
G36*
X132027691Y-67026053D02*
X132048926Y-67029203D01*
X132069750Y-67034419D01*
X132089962Y-67041651D01*
X132109368Y-67050830D01*
X132127781Y-67061866D01*
X132145024Y-67074654D01*
X132160930Y-67089070D01*
X132175346Y-67104976D01*
X132188134Y-67122219D01*
X132199170Y-67140632D01*
X132208349Y-67160038D01*
X132215581Y-67180250D01*
X132220797Y-67201074D01*
X132223947Y-67222309D01*
X132225000Y-67243750D01*
X132225000Y-67681250D01*
X132223947Y-67702691D01*
X132220797Y-67723926D01*
X132215581Y-67744750D01*
X132208349Y-67764962D01*
X132199170Y-67784368D01*
X132188134Y-67802781D01*
X132175346Y-67820024D01*
X132160930Y-67835930D01*
X132145024Y-67850346D01*
X132127781Y-67863134D01*
X132109368Y-67874170D01*
X132089962Y-67883349D01*
X132069750Y-67890581D01*
X132048926Y-67895797D01*
X132027691Y-67898947D01*
X132006250Y-67900000D01*
X131493750Y-67900000D01*
X131472309Y-67898947D01*
X131451074Y-67895797D01*
X131430250Y-67890581D01*
X131410038Y-67883349D01*
X131390632Y-67874170D01*
X131372219Y-67863134D01*
X131354976Y-67850346D01*
X131339070Y-67835930D01*
X131324654Y-67820024D01*
X131311866Y-67802781D01*
X131300830Y-67784368D01*
X131291651Y-67764962D01*
X131284419Y-67744750D01*
X131279203Y-67723926D01*
X131276053Y-67702691D01*
X131275000Y-67681250D01*
X131275000Y-67243750D01*
X131276053Y-67222309D01*
X131279203Y-67201074D01*
X131284419Y-67180250D01*
X131291651Y-67160038D01*
X131300830Y-67140632D01*
X131311866Y-67122219D01*
X131324654Y-67104976D01*
X131339070Y-67089070D01*
X131354976Y-67074654D01*
X131372219Y-67061866D01*
X131390632Y-67050830D01*
X131410038Y-67041651D01*
X131430250Y-67034419D01*
X131451074Y-67029203D01*
X131472309Y-67026053D01*
X131493750Y-67025000D01*
X132006250Y-67025000D01*
X132027691Y-67026053D01*
X132027691Y-67026053D01*
G37*
D14*
X131750000Y-67462500D03*
D13*
G36*
X132027691Y-68601053D02*
X132048926Y-68604203D01*
X132069750Y-68609419D01*
X132089962Y-68616651D01*
X132109368Y-68625830D01*
X132127781Y-68636866D01*
X132145024Y-68649654D01*
X132160930Y-68664070D01*
X132175346Y-68679976D01*
X132188134Y-68697219D01*
X132199170Y-68715632D01*
X132208349Y-68735038D01*
X132215581Y-68755250D01*
X132220797Y-68776074D01*
X132223947Y-68797309D01*
X132225000Y-68818750D01*
X132225000Y-69256250D01*
X132223947Y-69277691D01*
X132220797Y-69298926D01*
X132215581Y-69319750D01*
X132208349Y-69339962D01*
X132199170Y-69359368D01*
X132188134Y-69377781D01*
X132175346Y-69395024D01*
X132160930Y-69410930D01*
X132145024Y-69425346D01*
X132127781Y-69438134D01*
X132109368Y-69449170D01*
X132089962Y-69458349D01*
X132069750Y-69465581D01*
X132048926Y-69470797D01*
X132027691Y-69473947D01*
X132006250Y-69475000D01*
X131493750Y-69475000D01*
X131472309Y-69473947D01*
X131451074Y-69470797D01*
X131430250Y-69465581D01*
X131410038Y-69458349D01*
X131390632Y-69449170D01*
X131372219Y-69438134D01*
X131354976Y-69425346D01*
X131339070Y-69410930D01*
X131324654Y-69395024D01*
X131311866Y-69377781D01*
X131300830Y-69359368D01*
X131291651Y-69339962D01*
X131284419Y-69319750D01*
X131279203Y-69298926D01*
X131276053Y-69277691D01*
X131275000Y-69256250D01*
X131275000Y-68818750D01*
X131276053Y-68797309D01*
X131279203Y-68776074D01*
X131284419Y-68755250D01*
X131291651Y-68735038D01*
X131300830Y-68715632D01*
X131311866Y-68697219D01*
X131324654Y-68679976D01*
X131339070Y-68664070D01*
X131354976Y-68649654D01*
X131372219Y-68636866D01*
X131390632Y-68625830D01*
X131410038Y-68616651D01*
X131430250Y-68609419D01*
X131451074Y-68604203D01*
X131472309Y-68601053D01*
X131493750Y-68600000D01*
X132006250Y-68600000D01*
X132027691Y-68601053D01*
X132027691Y-68601053D01*
G37*
D14*
X131750000Y-69037500D03*
G04 #@! TD*
D24*
G04 #@! TO.C,J1*
X169050000Y-158250000D03*
X161450000Y-158250000D03*
D25*
X164050000Y-158250000D03*
X166450000Y-158250000D03*
D26*
X162150000Y-155700000D03*
X168350000Y-155700000D03*
D27*
X163950000Y-155450000D03*
X164600000Y-155450000D03*
X165250000Y-155450000D03*
X165900000Y-155450000D03*
X166550000Y-155450000D03*
G04 #@! TD*
D13*
G04 #@! TO.C,R7*
G36*
X117777691Y-55276053D02*
X117798926Y-55279203D01*
X117819750Y-55284419D01*
X117839962Y-55291651D01*
X117859368Y-55300830D01*
X117877781Y-55311866D01*
X117895024Y-55324654D01*
X117910930Y-55339070D01*
X117925346Y-55354976D01*
X117938134Y-55372219D01*
X117949170Y-55390632D01*
X117958349Y-55410038D01*
X117965581Y-55430250D01*
X117970797Y-55451074D01*
X117973947Y-55472309D01*
X117975000Y-55493750D01*
X117975000Y-55931250D01*
X117973947Y-55952691D01*
X117970797Y-55973926D01*
X117965581Y-55994750D01*
X117958349Y-56014962D01*
X117949170Y-56034368D01*
X117938134Y-56052781D01*
X117925346Y-56070024D01*
X117910930Y-56085930D01*
X117895024Y-56100346D01*
X117877781Y-56113134D01*
X117859368Y-56124170D01*
X117839962Y-56133349D01*
X117819750Y-56140581D01*
X117798926Y-56145797D01*
X117777691Y-56148947D01*
X117756250Y-56150000D01*
X117243750Y-56150000D01*
X117222309Y-56148947D01*
X117201074Y-56145797D01*
X117180250Y-56140581D01*
X117160038Y-56133349D01*
X117140632Y-56124170D01*
X117122219Y-56113134D01*
X117104976Y-56100346D01*
X117089070Y-56085930D01*
X117074654Y-56070024D01*
X117061866Y-56052781D01*
X117050830Y-56034368D01*
X117041651Y-56014962D01*
X117034419Y-55994750D01*
X117029203Y-55973926D01*
X117026053Y-55952691D01*
X117025000Y-55931250D01*
X117025000Y-55493750D01*
X117026053Y-55472309D01*
X117029203Y-55451074D01*
X117034419Y-55430250D01*
X117041651Y-55410038D01*
X117050830Y-55390632D01*
X117061866Y-55372219D01*
X117074654Y-55354976D01*
X117089070Y-55339070D01*
X117104976Y-55324654D01*
X117122219Y-55311866D01*
X117140632Y-55300830D01*
X117160038Y-55291651D01*
X117180250Y-55284419D01*
X117201074Y-55279203D01*
X117222309Y-55276053D01*
X117243750Y-55275000D01*
X117756250Y-55275000D01*
X117777691Y-55276053D01*
X117777691Y-55276053D01*
G37*
D14*
X117500000Y-55712500D03*
D13*
G36*
X117777691Y-56851053D02*
X117798926Y-56854203D01*
X117819750Y-56859419D01*
X117839962Y-56866651D01*
X117859368Y-56875830D01*
X117877781Y-56886866D01*
X117895024Y-56899654D01*
X117910930Y-56914070D01*
X117925346Y-56929976D01*
X117938134Y-56947219D01*
X117949170Y-56965632D01*
X117958349Y-56985038D01*
X117965581Y-57005250D01*
X117970797Y-57026074D01*
X117973947Y-57047309D01*
X117975000Y-57068750D01*
X117975000Y-57506250D01*
X117973947Y-57527691D01*
X117970797Y-57548926D01*
X117965581Y-57569750D01*
X117958349Y-57589962D01*
X117949170Y-57609368D01*
X117938134Y-57627781D01*
X117925346Y-57645024D01*
X117910930Y-57660930D01*
X117895024Y-57675346D01*
X117877781Y-57688134D01*
X117859368Y-57699170D01*
X117839962Y-57708349D01*
X117819750Y-57715581D01*
X117798926Y-57720797D01*
X117777691Y-57723947D01*
X117756250Y-57725000D01*
X117243750Y-57725000D01*
X117222309Y-57723947D01*
X117201074Y-57720797D01*
X117180250Y-57715581D01*
X117160038Y-57708349D01*
X117140632Y-57699170D01*
X117122219Y-57688134D01*
X117104976Y-57675346D01*
X117089070Y-57660930D01*
X117074654Y-57645024D01*
X117061866Y-57627781D01*
X117050830Y-57609368D01*
X117041651Y-57589962D01*
X117034419Y-57569750D01*
X117029203Y-57548926D01*
X117026053Y-57527691D01*
X117025000Y-57506250D01*
X117025000Y-57068750D01*
X117026053Y-57047309D01*
X117029203Y-57026074D01*
X117034419Y-57005250D01*
X117041651Y-56985038D01*
X117050830Y-56965632D01*
X117061866Y-56947219D01*
X117074654Y-56929976D01*
X117089070Y-56914070D01*
X117104976Y-56899654D01*
X117122219Y-56886866D01*
X117140632Y-56875830D01*
X117160038Y-56866651D01*
X117180250Y-56859419D01*
X117201074Y-56854203D01*
X117222309Y-56851053D01*
X117243750Y-56850000D01*
X117756250Y-56850000D01*
X117777691Y-56851053D01*
X117777691Y-56851053D01*
G37*
D14*
X117500000Y-57287500D03*
G04 #@! TD*
D28*
G04 #@! TO.C,IC5*
X168150000Y-120845000D03*
X168150000Y-122115000D03*
X168150000Y-123385000D03*
X168150000Y-124655000D03*
X160850000Y-124655000D03*
X160850000Y-123385000D03*
X160850000Y-122115000D03*
X160850000Y-120845000D03*
G04 #@! TD*
D29*
G04 #@! TO.C,D1*
X166200000Y-151750000D03*
X164300000Y-151750000D03*
X165250000Y-149750000D03*
G04 #@! TD*
D13*
G04 #@! TO.C,C4*
G36*
X119767642Y-64551174D02*
X119791303Y-64554684D01*
X119814507Y-64560496D01*
X119837029Y-64568554D01*
X119858653Y-64578782D01*
X119879170Y-64591079D01*
X119898383Y-64605329D01*
X119916107Y-64621393D01*
X119932171Y-64639117D01*
X119946421Y-64658330D01*
X119958718Y-64678847D01*
X119968946Y-64700471D01*
X119977004Y-64722993D01*
X119982816Y-64746197D01*
X119986326Y-64769858D01*
X119987500Y-64793750D01*
X119987500Y-65706250D01*
X119986326Y-65730142D01*
X119982816Y-65753803D01*
X119977004Y-65777007D01*
X119968946Y-65799529D01*
X119958718Y-65821153D01*
X119946421Y-65841670D01*
X119932171Y-65860883D01*
X119916107Y-65878607D01*
X119898383Y-65894671D01*
X119879170Y-65908921D01*
X119858653Y-65921218D01*
X119837029Y-65931446D01*
X119814507Y-65939504D01*
X119791303Y-65945316D01*
X119767642Y-65948826D01*
X119743750Y-65950000D01*
X119256250Y-65950000D01*
X119232358Y-65948826D01*
X119208697Y-65945316D01*
X119185493Y-65939504D01*
X119162971Y-65931446D01*
X119141347Y-65921218D01*
X119120830Y-65908921D01*
X119101617Y-65894671D01*
X119083893Y-65878607D01*
X119067829Y-65860883D01*
X119053579Y-65841670D01*
X119041282Y-65821153D01*
X119031054Y-65799529D01*
X119022996Y-65777007D01*
X119017184Y-65753803D01*
X119013674Y-65730142D01*
X119012500Y-65706250D01*
X119012500Y-64793750D01*
X119013674Y-64769858D01*
X119017184Y-64746197D01*
X119022996Y-64722993D01*
X119031054Y-64700471D01*
X119041282Y-64678847D01*
X119053579Y-64658330D01*
X119067829Y-64639117D01*
X119083893Y-64621393D01*
X119101617Y-64605329D01*
X119120830Y-64591079D01*
X119141347Y-64578782D01*
X119162971Y-64568554D01*
X119185493Y-64560496D01*
X119208697Y-64554684D01*
X119232358Y-64551174D01*
X119256250Y-64550000D01*
X119743750Y-64550000D01*
X119767642Y-64551174D01*
X119767642Y-64551174D01*
G37*
D19*
X119500000Y-65250000D03*
D13*
G36*
X121642642Y-64551174D02*
X121666303Y-64554684D01*
X121689507Y-64560496D01*
X121712029Y-64568554D01*
X121733653Y-64578782D01*
X121754170Y-64591079D01*
X121773383Y-64605329D01*
X121791107Y-64621393D01*
X121807171Y-64639117D01*
X121821421Y-64658330D01*
X121833718Y-64678847D01*
X121843946Y-64700471D01*
X121852004Y-64722993D01*
X121857816Y-64746197D01*
X121861326Y-64769858D01*
X121862500Y-64793750D01*
X121862500Y-65706250D01*
X121861326Y-65730142D01*
X121857816Y-65753803D01*
X121852004Y-65777007D01*
X121843946Y-65799529D01*
X121833718Y-65821153D01*
X121821421Y-65841670D01*
X121807171Y-65860883D01*
X121791107Y-65878607D01*
X121773383Y-65894671D01*
X121754170Y-65908921D01*
X121733653Y-65921218D01*
X121712029Y-65931446D01*
X121689507Y-65939504D01*
X121666303Y-65945316D01*
X121642642Y-65948826D01*
X121618750Y-65950000D01*
X121131250Y-65950000D01*
X121107358Y-65948826D01*
X121083697Y-65945316D01*
X121060493Y-65939504D01*
X121037971Y-65931446D01*
X121016347Y-65921218D01*
X120995830Y-65908921D01*
X120976617Y-65894671D01*
X120958893Y-65878607D01*
X120942829Y-65860883D01*
X120928579Y-65841670D01*
X120916282Y-65821153D01*
X120906054Y-65799529D01*
X120897996Y-65777007D01*
X120892184Y-65753803D01*
X120888674Y-65730142D01*
X120887500Y-65706250D01*
X120887500Y-64793750D01*
X120888674Y-64769858D01*
X120892184Y-64746197D01*
X120897996Y-64722993D01*
X120906054Y-64700471D01*
X120916282Y-64678847D01*
X120928579Y-64658330D01*
X120942829Y-64639117D01*
X120958893Y-64621393D01*
X120976617Y-64605329D01*
X120995830Y-64591079D01*
X121016347Y-64578782D01*
X121037971Y-64568554D01*
X121060493Y-64560496D01*
X121083697Y-64554684D01*
X121107358Y-64551174D01*
X121131250Y-64550000D01*
X121618750Y-64550000D01*
X121642642Y-64551174D01*
X121642642Y-64551174D01*
G37*
D19*
X121375000Y-65250000D03*
G04 #@! TD*
D13*
G04 #@! TO.C,C5*
G36*
X156027691Y-109526053D02*
X156048926Y-109529203D01*
X156069750Y-109534419D01*
X156089962Y-109541651D01*
X156109368Y-109550830D01*
X156127781Y-109561866D01*
X156145024Y-109574654D01*
X156160930Y-109589070D01*
X156175346Y-109604976D01*
X156188134Y-109622219D01*
X156199170Y-109640632D01*
X156208349Y-109660038D01*
X156215581Y-109680250D01*
X156220797Y-109701074D01*
X156223947Y-109722309D01*
X156225000Y-109743750D01*
X156225000Y-110256250D01*
X156223947Y-110277691D01*
X156220797Y-110298926D01*
X156215581Y-110319750D01*
X156208349Y-110339962D01*
X156199170Y-110359368D01*
X156188134Y-110377781D01*
X156175346Y-110395024D01*
X156160930Y-110410930D01*
X156145024Y-110425346D01*
X156127781Y-110438134D01*
X156109368Y-110449170D01*
X156089962Y-110458349D01*
X156069750Y-110465581D01*
X156048926Y-110470797D01*
X156027691Y-110473947D01*
X156006250Y-110475000D01*
X155568750Y-110475000D01*
X155547309Y-110473947D01*
X155526074Y-110470797D01*
X155505250Y-110465581D01*
X155485038Y-110458349D01*
X155465632Y-110449170D01*
X155447219Y-110438134D01*
X155429976Y-110425346D01*
X155414070Y-110410930D01*
X155399654Y-110395024D01*
X155386866Y-110377781D01*
X155375830Y-110359368D01*
X155366651Y-110339962D01*
X155359419Y-110319750D01*
X155354203Y-110298926D01*
X155351053Y-110277691D01*
X155350000Y-110256250D01*
X155350000Y-109743750D01*
X155351053Y-109722309D01*
X155354203Y-109701074D01*
X155359419Y-109680250D01*
X155366651Y-109660038D01*
X155375830Y-109640632D01*
X155386866Y-109622219D01*
X155399654Y-109604976D01*
X155414070Y-109589070D01*
X155429976Y-109574654D01*
X155447219Y-109561866D01*
X155465632Y-109550830D01*
X155485038Y-109541651D01*
X155505250Y-109534419D01*
X155526074Y-109529203D01*
X155547309Y-109526053D01*
X155568750Y-109525000D01*
X156006250Y-109525000D01*
X156027691Y-109526053D01*
X156027691Y-109526053D01*
G37*
D14*
X155787500Y-110000000D03*
D13*
G36*
X154452691Y-109526053D02*
X154473926Y-109529203D01*
X154494750Y-109534419D01*
X154514962Y-109541651D01*
X154534368Y-109550830D01*
X154552781Y-109561866D01*
X154570024Y-109574654D01*
X154585930Y-109589070D01*
X154600346Y-109604976D01*
X154613134Y-109622219D01*
X154624170Y-109640632D01*
X154633349Y-109660038D01*
X154640581Y-109680250D01*
X154645797Y-109701074D01*
X154648947Y-109722309D01*
X154650000Y-109743750D01*
X154650000Y-110256250D01*
X154648947Y-110277691D01*
X154645797Y-110298926D01*
X154640581Y-110319750D01*
X154633349Y-110339962D01*
X154624170Y-110359368D01*
X154613134Y-110377781D01*
X154600346Y-110395024D01*
X154585930Y-110410930D01*
X154570024Y-110425346D01*
X154552781Y-110438134D01*
X154534368Y-110449170D01*
X154514962Y-110458349D01*
X154494750Y-110465581D01*
X154473926Y-110470797D01*
X154452691Y-110473947D01*
X154431250Y-110475000D01*
X153993750Y-110475000D01*
X153972309Y-110473947D01*
X153951074Y-110470797D01*
X153930250Y-110465581D01*
X153910038Y-110458349D01*
X153890632Y-110449170D01*
X153872219Y-110438134D01*
X153854976Y-110425346D01*
X153839070Y-110410930D01*
X153824654Y-110395024D01*
X153811866Y-110377781D01*
X153800830Y-110359368D01*
X153791651Y-110339962D01*
X153784419Y-110319750D01*
X153779203Y-110298926D01*
X153776053Y-110277691D01*
X153775000Y-110256250D01*
X153775000Y-109743750D01*
X153776053Y-109722309D01*
X153779203Y-109701074D01*
X153784419Y-109680250D01*
X153791651Y-109660038D01*
X153800830Y-109640632D01*
X153811866Y-109622219D01*
X153824654Y-109604976D01*
X153839070Y-109589070D01*
X153854976Y-109574654D01*
X153872219Y-109561866D01*
X153890632Y-109550830D01*
X153910038Y-109541651D01*
X153930250Y-109534419D01*
X153951074Y-109529203D01*
X153972309Y-109526053D01*
X153993750Y-109525000D01*
X154431250Y-109525000D01*
X154452691Y-109526053D01*
X154452691Y-109526053D01*
G37*
D14*
X154212500Y-110000000D03*
G04 #@! TD*
D21*
G04 #@! TO.C,Y1*
X174133883Y-114133883D03*
D13*
G36*
X173143934Y-114416726D02*
X174416726Y-113143934D01*
X175123832Y-113851040D01*
X173851040Y-115123832D01*
X173143934Y-114416726D01*
X173143934Y-114416726D01*
G37*
D21*
X172366117Y-112366117D03*
D13*
G36*
X171376168Y-112648960D02*
X172648960Y-111376168D01*
X173356066Y-112083274D01*
X172083274Y-113356066D01*
X171376168Y-112648960D01*
X171376168Y-112648960D01*
G37*
G04 #@! TD*
D30*
G04 #@! TO.C,Y2*
X131500000Y-65250000D03*
X134000000Y-65250000D03*
G04 #@! TD*
D13*
G04 #@! TO.C,R8*
G36*
X153777691Y-102101053D02*
X153798926Y-102104203D01*
X153819750Y-102109419D01*
X153839962Y-102116651D01*
X153859368Y-102125830D01*
X153877781Y-102136866D01*
X153895024Y-102149654D01*
X153910930Y-102164070D01*
X153925346Y-102179976D01*
X153938134Y-102197219D01*
X153949170Y-102215632D01*
X153958349Y-102235038D01*
X153965581Y-102255250D01*
X153970797Y-102276074D01*
X153973947Y-102297309D01*
X153975000Y-102318750D01*
X153975000Y-102756250D01*
X153973947Y-102777691D01*
X153970797Y-102798926D01*
X153965581Y-102819750D01*
X153958349Y-102839962D01*
X153949170Y-102859368D01*
X153938134Y-102877781D01*
X153925346Y-102895024D01*
X153910930Y-102910930D01*
X153895024Y-102925346D01*
X153877781Y-102938134D01*
X153859368Y-102949170D01*
X153839962Y-102958349D01*
X153819750Y-102965581D01*
X153798926Y-102970797D01*
X153777691Y-102973947D01*
X153756250Y-102975000D01*
X153243750Y-102975000D01*
X153222309Y-102973947D01*
X153201074Y-102970797D01*
X153180250Y-102965581D01*
X153160038Y-102958349D01*
X153140632Y-102949170D01*
X153122219Y-102938134D01*
X153104976Y-102925346D01*
X153089070Y-102910930D01*
X153074654Y-102895024D01*
X153061866Y-102877781D01*
X153050830Y-102859368D01*
X153041651Y-102839962D01*
X153034419Y-102819750D01*
X153029203Y-102798926D01*
X153026053Y-102777691D01*
X153025000Y-102756250D01*
X153025000Y-102318750D01*
X153026053Y-102297309D01*
X153029203Y-102276074D01*
X153034419Y-102255250D01*
X153041651Y-102235038D01*
X153050830Y-102215632D01*
X153061866Y-102197219D01*
X153074654Y-102179976D01*
X153089070Y-102164070D01*
X153104976Y-102149654D01*
X153122219Y-102136866D01*
X153140632Y-102125830D01*
X153160038Y-102116651D01*
X153180250Y-102109419D01*
X153201074Y-102104203D01*
X153222309Y-102101053D01*
X153243750Y-102100000D01*
X153756250Y-102100000D01*
X153777691Y-102101053D01*
X153777691Y-102101053D01*
G37*
D14*
X153500000Y-102537500D03*
D13*
G36*
X153777691Y-100526053D02*
X153798926Y-100529203D01*
X153819750Y-100534419D01*
X153839962Y-100541651D01*
X153859368Y-100550830D01*
X153877781Y-100561866D01*
X153895024Y-100574654D01*
X153910930Y-100589070D01*
X153925346Y-100604976D01*
X153938134Y-100622219D01*
X153949170Y-100640632D01*
X153958349Y-100660038D01*
X153965581Y-100680250D01*
X153970797Y-100701074D01*
X153973947Y-100722309D01*
X153975000Y-100743750D01*
X153975000Y-101181250D01*
X153973947Y-101202691D01*
X153970797Y-101223926D01*
X153965581Y-101244750D01*
X153958349Y-101264962D01*
X153949170Y-101284368D01*
X153938134Y-101302781D01*
X153925346Y-101320024D01*
X153910930Y-101335930D01*
X153895024Y-101350346D01*
X153877781Y-101363134D01*
X153859368Y-101374170D01*
X153839962Y-101383349D01*
X153819750Y-101390581D01*
X153798926Y-101395797D01*
X153777691Y-101398947D01*
X153756250Y-101400000D01*
X153243750Y-101400000D01*
X153222309Y-101398947D01*
X153201074Y-101395797D01*
X153180250Y-101390581D01*
X153160038Y-101383349D01*
X153140632Y-101374170D01*
X153122219Y-101363134D01*
X153104976Y-101350346D01*
X153089070Y-101335930D01*
X153074654Y-101320024D01*
X153061866Y-101302781D01*
X153050830Y-101284368D01*
X153041651Y-101264962D01*
X153034419Y-101244750D01*
X153029203Y-101223926D01*
X153026053Y-101202691D01*
X153025000Y-101181250D01*
X153025000Y-100743750D01*
X153026053Y-100722309D01*
X153029203Y-100701074D01*
X153034419Y-100680250D01*
X153041651Y-100660038D01*
X153050830Y-100640632D01*
X153061866Y-100622219D01*
X153074654Y-100604976D01*
X153089070Y-100589070D01*
X153104976Y-100574654D01*
X153122219Y-100561866D01*
X153140632Y-100550830D01*
X153160038Y-100541651D01*
X153180250Y-100534419D01*
X153201074Y-100529203D01*
X153222309Y-100526053D01*
X153243750Y-100525000D01*
X153756250Y-100525000D01*
X153777691Y-100526053D01*
X153777691Y-100526053D01*
G37*
D14*
X153500000Y-100962500D03*
G04 #@! TD*
D13*
G04 #@! TO.C,R9*
G36*
X152077691Y-96526053D02*
X152098926Y-96529203D01*
X152119750Y-96534419D01*
X152139962Y-96541651D01*
X152159368Y-96550830D01*
X152177781Y-96561866D01*
X152195024Y-96574654D01*
X152210930Y-96589070D01*
X152225346Y-96604976D01*
X152238134Y-96622219D01*
X152249170Y-96640632D01*
X152258349Y-96660038D01*
X152265581Y-96680250D01*
X152270797Y-96701074D01*
X152273947Y-96722309D01*
X152275000Y-96743750D01*
X152275000Y-97256250D01*
X152273947Y-97277691D01*
X152270797Y-97298926D01*
X152265581Y-97319750D01*
X152258349Y-97339962D01*
X152249170Y-97359368D01*
X152238134Y-97377781D01*
X152225346Y-97395024D01*
X152210930Y-97410930D01*
X152195024Y-97425346D01*
X152177781Y-97438134D01*
X152159368Y-97449170D01*
X152139962Y-97458349D01*
X152119750Y-97465581D01*
X152098926Y-97470797D01*
X152077691Y-97473947D01*
X152056250Y-97475000D01*
X151618750Y-97475000D01*
X151597309Y-97473947D01*
X151576074Y-97470797D01*
X151555250Y-97465581D01*
X151535038Y-97458349D01*
X151515632Y-97449170D01*
X151497219Y-97438134D01*
X151479976Y-97425346D01*
X151464070Y-97410930D01*
X151449654Y-97395024D01*
X151436866Y-97377781D01*
X151425830Y-97359368D01*
X151416651Y-97339962D01*
X151409419Y-97319750D01*
X151404203Y-97298926D01*
X151401053Y-97277691D01*
X151400000Y-97256250D01*
X151400000Y-96743750D01*
X151401053Y-96722309D01*
X151404203Y-96701074D01*
X151409419Y-96680250D01*
X151416651Y-96660038D01*
X151425830Y-96640632D01*
X151436866Y-96622219D01*
X151449654Y-96604976D01*
X151464070Y-96589070D01*
X151479976Y-96574654D01*
X151497219Y-96561866D01*
X151515632Y-96550830D01*
X151535038Y-96541651D01*
X151555250Y-96534419D01*
X151576074Y-96529203D01*
X151597309Y-96526053D01*
X151618750Y-96525000D01*
X152056250Y-96525000D01*
X152077691Y-96526053D01*
X152077691Y-96526053D01*
G37*
D14*
X151837500Y-97000000D03*
D13*
G36*
X153652691Y-96526053D02*
X153673926Y-96529203D01*
X153694750Y-96534419D01*
X153714962Y-96541651D01*
X153734368Y-96550830D01*
X153752781Y-96561866D01*
X153770024Y-96574654D01*
X153785930Y-96589070D01*
X153800346Y-96604976D01*
X153813134Y-96622219D01*
X153824170Y-96640632D01*
X153833349Y-96660038D01*
X153840581Y-96680250D01*
X153845797Y-96701074D01*
X153848947Y-96722309D01*
X153850000Y-96743750D01*
X153850000Y-97256250D01*
X153848947Y-97277691D01*
X153845797Y-97298926D01*
X153840581Y-97319750D01*
X153833349Y-97339962D01*
X153824170Y-97359368D01*
X153813134Y-97377781D01*
X153800346Y-97395024D01*
X153785930Y-97410930D01*
X153770024Y-97425346D01*
X153752781Y-97438134D01*
X153734368Y-97449170D01*
X153714962Y-97458349D01*
X153694750Y-97465581D01*
X153673926Y-97470797D01*
X153652691Y-97473947D01*
X153631250Y-97475000D01*
X153193750Y-97475000D01*
X153172309Y-97473947D01*
X153151074Y-97470797D01*
X153130250Y-97465581D01*
X153110038Y-97458349D01*
X153090632Y-97449170D01*
X153072219Y-97438134D01*
X153054976Y-97425346D01*
X153039070Y-97410930D01*
X153024654Y-97395024D01*
X153011866Y-97377781D01*
X153000830Y-97359368D01*
X152991651Y-97339962D01*
X152984419Y-97319750D01*
X152979203Y-97298926D01*
X152976053Y-97277691D01*
X152975000Y-97256250D01*
X152975000Y-96743750D01*
X152976053Y-96722309D01*
X152979203Y-96701074D01*
X152984419Y-96680250D01*
X152991651Y-96660038D01*
X153000830Y-96640632D01*
X153011866Y-96622219D01*
X153024654Y-96604976D01*
X153039070Y-96589070D01*
X153054976Y-96574654D01*
X153072219Y-96561866D01*
X153090632Y-96550830D01*
X153110038Y-96541651D01*
X153130250Y-96534419D01*
X153151074Y-96529203D01*
X153172309Y-96526053D01*
X153193750Y-96525000D01*
X153631250Y-96525000D01*
X153652691Y-96526053D01*
X153652691Y-96526053D01*
G37*
D14*
X153412500Y-97000000D03*
G04 #@! TD*
D31*
G04 #@! TO.C,D4*
X151925000Y-98750000D03*
X153325000Y-98750000D03*
G04 #@! TD*
D13*
G04 #@! TO.C,D5*
G36*
X117777691Y-60101053D02*
X117798926Y-60104203D01*
X117819750Y-60109419D01*
X117839962Y-60116651D01*
X117859368Y-60125830D01*
X117877781Y-60136866D01*
X117895024Y-60149654D01*
X117910930Y-60164070D01*
X117925346Y-60179976D01*
X117938134Y-60197219D01*
X117949170Y-60215632D01*
X117958349Y-60235038D01*
X117965581Y-60255250D01*
X117970797Y-60276074D01*
X117973947Y-60297309D01*
X117975000Y-60318750D01*
X117975000Y-60756250D01*
X117973947Y-60777691D01*
X117970797Y-60798926D01*
X117965581Y-60819750D01*
X117958349Y-60839962D01*
X117949170Y-60859368D01*
X117938134Y-60877781D01*
X117925346Y-60895024D01*
X117910930Y-60910930D01*
X117895024Y-60925346D01*
X117877781Y-60938134D01*
X117859368Y-60949170D01*
X117839962Y-60958349D01*
X117819750Y-60965581D01*
X117798926Y-60970797D01*
X117777691Y-60973947D01*
X117756250Y-60975000D01*
X117243750Y-60975000D01*
X117222309Y-60973947D01*
X117201074Y-60970797D01*
X117180250Y-60965581D01*
X117160038Y-60958349D01*
X117140632Y-60949170D01*
X117122219Y-60938134D01*
X117104976Y-60925346D01*
X117089070Y-60910930D01*
X117074654Y-60895024D01*
X117061866Y-60877781D01*
X117050830Y-60859368D01*
X117041651Y-60839962D01*
X117034419Y-60819750D01*
X117029203Y-60798926D01*
X117026053Y-60777691D01*
X117025000Y-60756250D01*
X117025000Y-60318750D01*
X117026053Y-60297309D01*
X117029203Y-60276074D01*
X117034419Y-60255250D01*
X117041651Y-60235038D01*
X117050830Y-60215632D01*
X117061866Y-60197219D01*
X117074654Y-60179976D01*
X117089070Y-60164070D01*
X117104976Y-60149654D01*
X117122219Y-60136866D01*
X117140632Y-60125830D01*
X117160038Y-60116651D01*
X117180250Y-60109419D01*
X117201074Y-60104203D01*
X117222309Y-60101053D01*
X117243750Y-60100000D01*
X117756250Y-60100000D01*
X117777691Y-60101053D01*
X117777691Y-60101053D01*
G37*
D14*
X117500000Y-60537500D03*
D13*
G36*
X117777691Y-58526053D02*
X117798926Y-58529203D01*
X117819750Y-58534419D01*
X117839962Y-58541651D01*
X117859368Y-58550830D01*
X117877781Y-58561866D01*
X117895024Y-58574654D01*
X117910930Y-58589070D01*
X117925346Y-58604976D01*
X117938134Y-58622219D01*
X117949170Y-58640632D01*
X117958349Y-58660038D01*
X117965581Y-58680250D01*
X117970797Y-58701074D01*
X117973947Y-58722309D01*
X117975000Y-58743750D01*
X117975000Y-59181250D01*
X117973947Y-59202691D01*
X117970797Y-59223926D01*
X117965581Y-59244750D01*
X117958349Y-59264962D01*
X117949170Y-59284368D01*
X117938134Y-59302781D01*
X117925346Y-59320024D01*
X117910930Y-59335930D01*
X117895024Y-59350346D01*
X117877781Y-59363134D01*
X117859368Y-59374170D01*
X117839962Y-59383349D01*
X117819750Y-59390581D01*
X117798926Y-59395797D01*
X117777691Y-59398947D01*
X117756250Y-59400000D01*
X117243750Y-59400000D01*
X117222309Y-59398947D01*
X117201074Y-59395797D01*
X117180250Y-59390581D01*
X117160038Y-59383349D01*
X117140632Y-59374170D01*
X117122219Y-59363134D01*
X117104976Y-59350346D01*
X117089070Y-59335930D01*
X117074654Y-59320024D01*
X117061866Y-59302781D01*
X117050830Y-59284368D01*
X117041651Y-59264962D01*
X117034419Y-59244750D01*
X117029203Y-59223926D01*
X117026053Y-59202691D01*
X117025000Y-59181250D01*
X117025000Y-58743750D01*
X117026053Y-58722309D01*
X117029203Y-58701074D01*
X117034419Y-58680250D01*
X117041651Y-58660038D01*
X117050830Y-58640632D01*
X117061866Y-58622219D01*
X117074654Y-58604976D01*
X117089070Y-58589070D01*
X117104976Y-58574654D01*
X117122219Y-58561866D01*
X117140632Y-58550830D01*
X117160038Y-58541651D01*
X117180250Y-58534419D01*
X117201074Y-58529203D01*
X117222309Y-58526053D01*
X117243750Y-58525000D01*
X117756250Y-58525000D01*
X117777691Y-58526053D01*
X117777691Y-58526053D01*
G37*
D14*
X117500000Y-58962500D03*
G04 #@! TD*
M02*
