G04 #@! TF.GenerationSoftware,KiCad,Pcbnew,5.0.2-bee76a0~70~ubuntu16.04.1*
G04 #@! TF.CreationDate,2019-07-05T21:08:44-07:00*
G04 #@! TF.ProjectId,dc27-fur-badge,64633237-2d66-4757-922d-62616467652e,rev?*
G04 #@! TF.SameCoordinates,Original*
G04 #@! TF.FileFunction,Paste,Top*
G04 #@! TF.FilePolarity,Positive*
%FSLAX46Y46*%
G04 Gerber Fmt 4.6, Leading zero omitted, Abs format (unit mm)*
G04 Created by KiCad (PCBNEW 5.0.2-bee76a0~70~ubuntu16.04.1) date Fri 05 Jul 2019 09:08:44 PM PDT*
%MOMM*%
%LPD*%
G01*
G04 APERTURE LIST*
%ADD10C,1.000000*%
%ADD11R,0.600000X0.850000*%
G04 APERTURE END LIST*
D10*
G04 #@! TO.C,H2*
X112488593Y-67827071D02*
G75*
G02X114327070Y-65988593I2511407J-672929D01*
G01*
X114327071Y-71011407D02*
G75*
G02X112488593Y-69172930I672929J2511407D01*
G01*
X117511407Y-69172929D02*
G75*
G02X115672930Y-71011407I-2511407J672929D01*
G01*
X115672929Y-65988593D02*
G75*
G02X117511407Y-67827070I-672929J-2511407D01*
G01*
G04 #@! TO.C,H3*
X211488593Y-67827071D02*
G75*
G02X213327070Y-65988593I2511407J-672929D01*
G01*
X213327071Y-71011407D02*
G75*
G02X211488593Y-69172930I672929J2511407D01*
G01*
X216511407Y-69172929D02*
G75*
G02X214672930Y-71011407I-2511407J672929D01*
G01*
X214672929Y-65988593D02*
G75*
G02X216511407Y-67827070I-672929J-2511407D01*
G01*
G04 #@! TD*
D11*
G04 #@! TO.C,D515*
X196550000Y-74525000D03*
X197450000Y-74525000D03*
X196550000Y-75975000D03*
X197450000Y-75975000D03*
G04 #@! TD*
G04 #@! TO.C,D101*
X126550000Y-56525000D03*
X127450000Y-56525000D03*
X126550000Y-57975000D03*
X127450000Y-57975000D03*
G04 #@! TD*
G04 #@! TO.C,D102*
X131550000Y-56525000D03*
X132450000Y-56525000D03*
X131550000Y-57975000D03*
X132450000Y-57975000D03*
G04 #@! TD*
G04 #@! TO.C,D103*
X136550000Y-56525000D03*
X137450000Y-56525000D03*
X136550000Y-57975000D03*
X137450000Y-57975000D03*
G04 #@! TD*
G04 #@! TO.C,D104*
X141550000Y-56525000D03*
X142450000Y-56525000D03*
X141550000Y-57975000D03*
X142450000Y-57975000D03*
G04 #@! TD*
G04 #@! TO.C,D105*
X146550000Y-56525000D03*
X147450000Y-56525000D03*
X146550000Y-57975000D03*
X147450000Y-57975000D03*
G04 #@! TD*
G04 #@! TO.C,D106*
X151550000Y-56525000D03*
X152450000Y-56525000D03*
X151550000Y-57975000D03*
X152450000Y-57975000D03*
G04 #@! TD*
G04 #@! TO.C,D107*
X156550000Y-56525000D03*
X157450000Y-56525000D03*
X156550000Y-57975000D03*
X157450000Y-57975000D03*
G04 #@! TD*
G04 #@! TO.C,D108*
X161550000Y-56525000D03*
X162450000Y-56525000D03*
X161550000Y-57975000D03*
X162450000Y-57975000D03*
G04 #@! TD*
G04 #@! TO.C,D109*
X166550000Y-56525000D03*
X167450000Y-56525000D03*
X166550000Y-57975000D03*
X167450000Y-57975000D03*
G04 #@! TD*
G04 #@! TO.C,D110*
X171550000Y-56525000D03*
X172450000Y-56525000D03*
X171550000Y-57975000D03*
X172450000Y-57975000D03*
G04 #@! TD*
G04 #@! TO.C,D111*
X176550000Y-56525000D03*
X177450000Y-56525000D03*
X176550000Y-57975000D03*
X177450000Y-57975000D03*
G04 #@! TD*
G04 #@! TO.C,D112*
X181550000Y-56525000D03*
X182450000Y-56525000D03*
X181550000Y-57975000D03*
X182450000Y-57975000D03*
G04 #@! TD*
G04 #@! TO.C,D113*
X186550000Y-56525000D03*
X187450000Y-56525000D03*
X186550000Y-57975000D03*
X187450000Y-57975000D03*
G04 #@! TD*
G04 #@! TO.C,D114*
X191550000Y-56525000D03*
X192450000Y-56525000D03*
X191550000Y-57975000D03*
X192450000Y-57975000D03*
G04 #@! TD*
G04 #@! TO.C,D115*
X196550000Y-56525000D03*
X197450000Y-56525000D03*
X196550000Y-57975000D03*
X197450000Y-57975000D03*
G04 #@! TD*
G04 #@! TO.C,D116*
X201550000Y-56525000D03*
X202450000Y-56525000D03*
X201550000Y-57975000D03*
X202450000Y-57975000D03*
G04 #@! TD*
G04 #@! TO.C,D200*
X121550000Y-61025000D03*
X122450000Y-61025000D03*
X121550000Y-62475000D03*
X122450000Y-62475000D03*
G04 #@! TD*
G04 #@! TO.C,D201*
X126550000Y-61025000D03*
X127450000Y-61025000D03*
X126550000Y-62475000D03*
X127450000Y-62475000D03*
G04 #@! TD*
G04 #@! TO.C,D202*
X131550000Y-61025000D03*
X132450000Y-61025000D03*
X131550000Y-62475000D03*
X132450000Y-62475000D03*
G04 #@! TD*
G04 #@! TO.C,D203*
X136550000Y-61025000D03*
X137450000Y-61025000D03*
X136550000Y-62475000D03*
X137450000Y-62475000D03*
G04 #@! TD*
G04 #@! TO.C,D204*
X141550000Y-61025000D03*
X142450000Y-61025000D03*
X141550000Y-62475000D03*
X142450000Y-62475000D03*
G04 #@! TD*
G04 #@! TO.C,D205*
X146550000Y-61025000D03*
X147450000Y-61025000D03*
X146550000Y-62475000D03*
X147450000Y-62475000D03*
G04 #@! TD*
G04 #@! TO.C,D206*
X151550000Y-61025000D03*
X152450000Y-61025000D03*
X151550000Y-62475000D03*
X152450000Y-62475000D03*
G04 #@! TD*
G04 #@! TO.C,D207*
X156550000Y-61025000D03*
X157450000Y-61025000D03*
X156550000Y-62475000D03*
X157450000Y-62475000D03*
G04 #@! TD*
G04 #@! TO.C,D208*
X161550000Y-61025000D03*
X162450000Y-61025000D03*
X161550000Y-62475000D03*
X162450000Y-62475000D03*
G04 #@! TD*
G04 #@! TO.C,D209*
X166550000Y-61025000D03*
X167450000Y-61025000D03*
X166550000Y-62475000D03*
X167450000Y-62475000D03*
G04 #@! TD*
G04 #@! TO.C,D210*
X171550000Y-61025000D03*
X172450000Y-61025000D03*
X171550000Y-62475000D03*
X172450000Y-62475000D03*
G04 #@! TD*
G04 #@! TO.C,D211*
X176550000Y-61025000D03*
X177450000Y-61025000D03*
X176550000Y-62475000D03*
X177450000Y-62475000D03*
G04 #@! TD*
G04 #@! TO.C,D212*
X181550000Y-61025000D03*
X182450000Y-61025000D03*
X181550000Y-62475000D03*
X182450000Y-62475000D03*
G04 #@! TD*
G04 #@! TO.C,D213*
X186550000Y-61025000D03*
X187450000Y-61025000D03*
X186550000Y-62475000D03*
X187450000Y-62475000D03*
G04 #@! TD*
G04 #@! TO.C,D214*
X191550000Y-61025000D03*
X192450000Y-61025000D03*
X191550000Y-62475000D03*
X192450000Y-62475000D03*
G04 #@! TD*
G04 #@! TO.C,D215*
X196550000Y-61025000D03*
X197450000Y-61025000D03*
X196550000Y-62475000D03*
X197450000Y-62475000D03*
G04 #@! TD*
G04 #@! TO.C,D216*
X201550000Y-61025000D03*
X202450000Y-61025000D03*
X201550000Y-62475000D03*
X202450000Y-62475000D03*
G04 #@! TD*
G04 #@! TO.C,D217*
X206550000Y-61025000D03*
X207450000Y-61025000D03*
X206550000Y-62475000D03*
X207450000Y-62475000D03*
G04 #@! TD*
G04 #@! TO.C,D300*
X121550000Y-65525000D03*
X122450000Y-65525000D03*
X121550000Y-66975000D03*
X122450000Y-66975000D03*
G04 #@! TD*
G04 #@! TO.C,D301*
X126550000Y-65525000D03*
X127450000Y-65525000D03*
X126550000Y-66975000D03*
X127450000Y-66975000D03*
G04 #@! TD*
G04 #@! TO.C,D302*
X131550000Y-65525000D03*
X132450000Y-65525000D03*
X131550000Y-66975000D03*
X132450000Y-66975000D03*
G04 #@! TD*
G04 #@! TO.C,D303*
X136550000Y-65525000D03*
X137450000Y-65525000D03*
X136550000Y-66975000D03*
X137450000Y-66975000D03*
G04 #@! TD*
G04 #@! TO.C,D304*
X141550000Y-65525000D03*
X142450000Y-65525000D03*
X141550000Y-66975000D03*
X142450000Y-66975000D03*
G04 #@! TD*
G04 #@! TO.C,D305*
X146550000Y-65525000D03*
X147450000Y-65525000D03*
X146550000Y-66975000D03*
X147450000Y-66975000D03*
G04 #@! TD*
G04 #@! TO.C,D306*
X151550000Y-65525000D03*
X152450000Y-65525000D03*
X151550000Y-66975000D03*
X152450000Y-66975000D03*
G04 #@! TD*
G04 #@! TO.C,D307*
X156550000Y-65525000D03*
X157450000Y-65525000D03*
X156550000Y-66975000D03*
X157450000Y-66975000D03*
G04 #@! TD*
G04 #@! TO.C,D308*
X161550000Y-65525000D03*
X162450000Y-65525000D03*
X161550000Y-66975000D03*
X162450000Y-66975000D03*
G04 #@! TD*
G04 #@! TO.C,D309*
X166550000Y-65525000D03*
X167450000Y-65525000D03*
X166550000Y-66975000D03*
X167450000Y-66975000D03*
G04 #@! TD*
G04 #@! TO.C,D310*
X171550000Y-65525000D03*
X172450000Y-65525000D03*
X171550000Y-66975000D03*
X172450000Y-66975000D03*
G04 #@! TD*
G04 #@! TO.C,D311*
X176550000Y-65525000D03*
X177450000Y-65525000D03*
X176550000Y-66975000D03*
X177450000Y-66975000D03*
G04 #@! TD*
G04 #@! TO.C,D312*
X181550000Y-65525000D03*
X182450000Y-65525000D03*
X181550000Y-66975000D03*
X182450000Y-66975000D03*
G04 #@! TD*
G04 #@! TO.C,D313*
X186550000Y-65525000D03*
X187450000Y-65525000D03*
X186550000Y-66975000D03*
X187450000Y-66975000D03*
G04 #@! TD*
G04 #@! TO.C,D314*
X191550000Y-65525000D03*
X192450000Y-65525000D03*
X191550000Y-66975000D03*
X192450000Y-66975000D03*
G04 #@! TD*
G04 #@! TO.C,D315*
X196550000Y-65525000D03*
X197450000Y-65525000D03*
X196550000Y-66975000D03*
X197450000Y-66975000D03*
G04 #@! TD*
G04 #@! TO.C,D316*
X201550000Y-65525000D03*
X202450000Y-65525000D03*
X201550000Y-66975000D03*
X202450000Y-66975000D03*
G04 #@! TD*
G04 #@! TO.C,D317*
X206550000Y-65525000D03*
X207450000Y-65525000D03*
X206550000Y-66975000D03*
X207450000Y-66975000D03*
G04 #@! TD*
G04 #@! TO.C,D400*
X121550000Y-70025000D03*
X122450000Y-70025000D03*
X121550000Y-71475000D03*
X122450000Y-71475000D03*
G04 #@! TD*
G04 #@! TO.C,D401*
X126550000Y-70025000D03*
X127450000Y-70025000D03*
X126550000Y-71475000D03*
X127450000Y-71475000D03*
G04 #@! TD*
G04 #@! TO.C,D402*
X131550000Y-70025000D03*
X132450000Y-70025000D03*
X131550000Y-71475000D03*
X132450000Y-71475000D03*
G04 #@! TD*
G04 #@! TO.C,D403*
X136550000Y-70025000D03*
X137450000Y-70025000D03*
X136550000Y-71475000D03*
X137450000Y-71475000D03*
G04 #@! TD*
G04 #@! TO.C,D404*
X141550000Y-70025000D03*
X142450000Y-70025000D03*
X141550000Y-71475000D03*
X142450000Y-71475000D03*
G04 #@! TD*
G04 #@! TO.C,D405*
X146550000Y-70025000D03*
X147450000Y-70025000D03*
X146550000Y-71475000D03*
X147450000Y-71475000D03*
G04 #@! TD*
G04 #@! TO.C,D406*
X151550000Y-70025000D03*
X152450000Y-70025000D03*
X151550000Y-71475000D03*
X152450000Y-71475000D03*
G04 #@! TD*
G04 #@! TO.C,D407*
X156550000Y-70025000D03*
X157450000Y-70025000D03*
X156550000Y-71475000D03*
X157450000Y-71475000D03*
G04 #@! TD*
G04 #@! TO.C,D408*
X161550000Y-70025000D03*
X162450000Y-70025000D03*
X161550000Y-71475000D03*
X162450000Y-71475000D03*
G04 #@! TD*
G04 #@! TO.C,D409*
X166550000Y-70025000D03*
X167450000Y-70025000D03*
X166550000Y-71475000D03*
X167450000Y-71475000D03*
G04 #@! TD*
G04 #@! TO.C,D410*
X171550000Y-70025000D03*
X172450000Y-70025000D03*
X171550000Y-71475000D03*
X172450000Y-71475000D03*
G04 #@! TD*
G04 #@! TO.C,D411*
X176550000Y-70025000D03*
X177450000Y-70025000D03*
X176550000Y-71475000D03*
X177450000Y-71475000D03*
G04 #@! TD*
G04 #@! TO.C,D412*
X181550000Y-70025000D03*
X182450000Y-70025000D03*
X181550000Y-71475000D03*
X182450000Y-71475000D03*
G04 #@! TD*
G04 #@! TO.C,D413*
X186550000Y-70025000D03*
X187450000Y-70025000D03*
X186550000Y-71475000D03*
X187450000Y-71475000D03*
G04 #@! TD*
G04 #@! TO.C,D414*
X191550000Y-70025000D03*
X192450000Y-70025000D03*
X191550000Y-71475000D03*
X192450000Y-71475000D03*
G04 #@! TD*
G04 #@! TO.C,D415*
X196550000Y-70025000D03*
X197450000Y-70025000D03*
X196550000Y-71475000D03*
X197450000Y-71475000D03*
G04 #@! TD*
G04 #@! TO.C,D416*
X201550000Y-70025000D03*
X202450000Y-70025000D03*
X201550000Y-71475000D03*
X202450000Y-71475000D03*
G04 #@! TD*
G04 #@! TO.C,D417*
X206550000Y-70025000D03*
X207450000Y-70025000D03*
X206550000Y-71475000D03*
X207450000Y-71475000D03*
G04 #@! TD*
G04 #@! TO.C,D500*
X121550000Y-74525000D03*
X122450000Y-74525000D03*
X121550000Y-75975000D03*
X122450000Y-75975000D03*
G04 #@! TD*
G04 #@! TO.C,D501*
X126550000Y-74525000D03*
X127450000Y-74525000D03*
X126550000Y-75975000D03*
X127450000Y-75975000D03*
G04 #@! TD*
G04 #@! TO.C,D502*
X131625000Y-74500000D03*
X132525000Y-74500000D03*
X131625000Y-75950000D03*
X132525000Y-75950000D03*
G04 #@! TD*
G04 #@! TO.C,D503*
X136550000Y-74525000D03*
X137450000Y-74525000D03*
X136550000Y-75975000D03*
X137450000Y-75975000D03*
G04 #@! TD*
G04 #@! TO.C,D504*
X141550000Y-74525000D03*
X142450000Y-74525000D03*
X141550000Y-75975000D03*
X142450000Y-75975000D03*
G04 #@! TD*
G04 #@! TO.C,D505*
X146550000Y-74525000D03*
X147450000Y-74525000D03*
X146550000Y-75975000D03*
X147450000Y-75975000D03*
G04 #@! TD*
G04 #@! TO.C,D506*
X151550000Y-74525000D03*
X152450000Y-74525000D03*
X151550000Y-75975000D03*
X152450000Y-75975000D03*
G04 #@! TD*
G04 #@! TO.C,D507*
X156550000Y-74525000D03*
X157450000Y-74525000D03*
X156550000Y-75975000D03*
X157450000Y-75975000D03*
G04 #@! TD*
G04 #@! TO.C,D508*
X161550000Y-74525000D03*
X162450000Y-74525000D03*
X161550000Y-75975000D03*
X162450000Y-75975000D03*
G04 #@! TD*
G04 #@! TO.C,D509*
X166550000Y-74525000D03*
X167450000Y-74525000D03*
X166550000Y-75975000D03*
X167450000Y-75975000D03*
G04 #@! TD*
G04 #@! TO.C,D510*
X171550000Y-74525000D03*
X172450000Y-74525000D03*
X171550000Y-75975000D03*
X172450000Y-75975000D03*
G04 #@! TD*
G04 #@! TO.C,D511*
X176550000Y-74525000D03*
X177450000Y-74525000D03*
X176550000Y-75975000D03*
X177450000Y-75975000D03*
G04 #@! TD*
G04 #@! TO.C,D512*
X181550000Y-74525000D03*
X182450000Y-74525000D03*
X181550000Y-75975000D03*
X182450000Y-75975000D03*
G04 #@! TD*
G04 #@! TO.C,D513*
X186550000Y-74525000D03*
X187450000Y-74525000D03*
X186550000Y-75975000D03*
X187450000Y-75975000D03*
G04 #@! TD*
G04 #@! TO.C,D514*
X191550000Y-74525000D03*
X192450000Y-74525000D03*
X191550000Y-75975000D03*
X192450000Y-75975000D03*
G04 #@! TD*
G04 #@! TO.C,D516*
X201550000Y-74525000D03*
X202450000Y-74525000D03*
X201550000Y-75975000D03*
X202450000Y-75975000D03*
G04 #@! TD*
G04 #@! TO.C,D517*
X206550000Y-74525000D03*
X207450000Y-74525000D03*
X206550000Y-75975000D03*
X207450000Y-75975000D03*
G04 #@! TD*
G04 #@! TO.C,D600*
X121550000Y-79025000D03*
X122450000Y-79025000D03*
X121550000Y-80475000D03*
X122450000Y-80475000D03*
G04 #@! TD*
G04 #@! TO.C,D601*
X126550000Y-79025000D03*
X127450000Y-79025000D03*
X126550000Y-80475000D03*
X127450000Y-80475000D03*
G04 #@! TD*
G04 #@! TO.C,D602*
X131550000Y-79025000D03*
X132450000Y-79025000D03*
X131550000Y-80475000D03*
X132450000Y-80475000D03*
G04 #@! TD*
G04 #@! TO.C,D603*
X136550000Y-79025000D03*
X137450000Y-79025000D03*
X136550000Y-80475000D03*
X137450000Y-80475000D03*
G04 #@! TD*
G04 #@! TO.C,D604*
X141550000Y-79025000D03*
X142450000Y-79025000D03*
X141550000Y-80475000D03*
X142450000Y-80475000D03*
G04 #@! TD*
G04 #@! TO.C,D605*
X146550000Y-79025000D03*
X147450000Y-79025000D03*
X146550000Y-80475000D03*
X147450000Y-80475000D03*
G04 #@! TD*
G04 #@! TO.C,D606*
X151550000Y-79025000D03*
X152450000Y-79025000D03*
X151550000Y-80475000D03*
X152450000Y-80475000D03*
G04 #@! TD*
G04 #@! TO.C,D611*
X176550000Y-79025000D03*
X177450000Y-79025000D03*
X176550000Y-80475000D03*
X177450000Y-80475000D03*
G04 #@! TD*
G04 #@! TO.C,D612*
X181550000Y-79025000D03*
X182450000Y-79025000D03*
X181550000Y-80475000D03*
X182450000Y-80475000D03*
G04 #@! TD*
G04 #@! TO.C,D613*
X186550000Y-79025000D03*
X187450000Y-79025000D03*
X186550000Y-80475000D03*
X187450000Y-80475000D03*
G04 #@! TD*
G04 #@! TO.C,D614*
X191550000Y-79025000D03*
X192450000Y-79025000D03*
X191550000Y-80475000D03*
X192450000Y-80475000D03*
G04 #@! TD*
G04 #@! TO.C,D615*
X196550000Y-79025000D03*
X197450000Y-79025000D03*
X196550000Y-80475000D03*
X197450000Y-80475000D03*
G04 #@! TD*
G04 #@! TO.C,D616*
X201550000Y-79025000D03*
X202450000Y-79025000D03*
X201550000Y-80475000D03*
X202450000Y-80475000D03*
G04 #@! TD*
G04 #@! TO.C,D617*
X206550000Y-79025000D03*
X207450000Y-79025000D03*
X206550000Y-80475000D03*
X207450000Y-80475000D03*
G04 #@! TD*
G04 #@! TO.C,D701*
X126550000Y-83525000D03*
X127450000Y-83525000D03*
X126550000Y-84975000D03*
X127450000Y-84975000D03*
G04 #@! TD*
G04 #@! TO.C,D702*
X131550000Y-83525000D03*
X132450000Y-83525000D03*
X131550000Y-84975000D03*
X132450000Y-84975000D03*
G04 #@! TD*
G04 #@! TO.C,D703*
X136550000Y-83525000D03*
X137450000Y-83525000D03*
X136550000Y-84975000D03*
X137450000Y-84975000D03*
G04 #@! TD*
G04 #@! TO.C,D704*
X141550000Y-83525000D03*
X142450000Y-83525000D03*
X141550000Y-84975000D03*
X142450000Y-84975000D03*
G04 #@! TD*
G04 #@! TO.C,D705*
X146550000Y-83525000D03*
X147450000Y-83525000D03*
X146550000Y-84975000D03*
X147450000Y-84975000D03*
G04 #@! TD*
G04 #@! TO.C,D712*
X181550000Y-83525000D03*
X182450000Y-83525000D03*
X181550000Y-84975000D03*
X182450000Y-84975000D03*
G04 #@! TD*
G04 #@! TO.C,D713*
X186550000Y-83525000D03*
X187450000Y-83525000D03*
X186550000Y-84975000D03*
X187450000Y-84975000D03*
G04 #@! TD*
G04 #@! TO.C,D714*
X191550000Y-83525000D03*
X192450000Y-83525000D03*
X191550000Y-84975000D03*
X192450000Y-84975000D03*
G04 #@! TD*
G04 #@! TO.C,D715*
X196550000Y-83525000D03*
X197450000Y-83525000D03*
X196550000Y-84975000D03*
X197450000Y-84975000D03*
G04 #@! TD*
G04 #@! TO.C,D716*
X201550000Y-83525000D03*
X202450000Y-83525000D03*
X201550000Y-84975000D03*
X202450000Y-84975000D03*
G04 #@! TD*
M02*
